<svg xmlns="http://www.w3.org/2000/svg" xmlns:xlink="http://www.w3.org/1999/xlink" width="40" zoomAndPan="magnify" viewBox="0 0 30 30.000001" height="40" preserveAspectRatio="xMidYMid meet" version="1.0"><defs><clipPath id="e551156200"><path d="M 0.484375 3.410156 L 29.515625 3.410156 L 29.515625 25.910156 L 0.484375 25.910156 Z M 0.484375 3.410156 " clip-rule="nonzero"/></clipPath></defs><path fill="currentColor" d="M 9.21875 11.527344 L 12.183594 8.523438 C 12.128906 8.441406 12.078125 8.359375 12.019531 8.277344 L 8.984375 11.351562 Z M 9.21875 11.527344 " fill-opacity="1" fill-rule="nonzero"/><path fill="currentColor" d="M 8.71875 11.15625 L 11.820312 8.007812 C 11.761719 7.933594 11.699219 7.859375 11.632812 7.789062 L 8.484375 10.980469 Z M 8.71875 11.15625 " fill-opacity="1" fill-rule="nonzero"/><path fill="currentColor" d="M 8.246094 9.871094 L 10.933594 7.148438 C 10.855469 7.089844 10.773438 7.035156 10.691406 6.980469 L 8.25 9.460938 L 8.25 9.871094 Z M 8.246094 9.871094 " fill-opacity="1" fill-rule="nonzero"/><path fill="currentColor" d="M 8.246094 8.988281 L 10.40625 6.804688 C 10.316406 6.757812 10.226562 6.710938 10.136719 6.667969 L 8.246094 8.578125 Z M 8.246094 8.988281 " fill-opacity="1" fill-rule="nonzero"/><path fill="currentColor" d="M 8.246094 8.109375 L 9.8125 6.523438 C 9.714844 6.484375 9.613281 6.453125 9.511719 6.417969 L 8.246094 7.699219 Z M 8.246094 8.109375 " fill-opacity="1" fill-rule="nonzero"/><path fill="currentColor" d="M 8.246094 7.230469 L 9.148438 6.320312 C 9.035156 6.292969 8.921875 6.273438 8.804688 6.253906 L 8.246094 6.820312 Z M 8.246094 7.230469 " fill-opacity="1" fill-rule="nonzero"/><path fill="currentColor" d="M 8.246094 10.75 L 11.40625 7.550781 C 11.335938 7.484375 11.265625 7.417969 11.191406 7.355469 L 8.246094 10.339844 Z M 8.246094 10.75 " fill-opacity="1" fill-rule="nonzero"/><path fill="currentColor" d="M 8.386719 6.207031 C 8.339844 6.203125 8.292969 6.203125 8.246094 6.203125 L 8.246094 6.351562 Z M 8.386719 6.207031 " fill-opacity="1" fill-rule="nonzero"/><path fill="currentColor" d="M 9.722656 11.898438 L 12.480469 9.101562 C 12.441406 9.007812 12.398438 8.914062 12.351562 8.824219 L 9.488281 11.722656 Z M 9.722656 11.898438 " fill-opacity="1" fill-rule="nonzero"/><path fill="currentColor" d="M 10.726562 12.640625 L 12.859375 10.480469 C 12.84375 10.363281 12.824219 10.242188 12.804688 10.125 L 10.492188 12.46875 Z M 10.726562 12.640625 " fill-opacity="1" fill-rule="nonzero"/><path fill="currentColor" d="M 10.222656 12.269531 L 12.710938 9.75 C 12.683594 9.644531 12.652344 9.539062 12.613281 9.4375 L 9.988281 12.097656 Z M 10.222656 12.269531 " fill-opacity="1" fill-rule="nonzero"/><path fill="currentColor" d="M 11.730469 13.386719 L 12.71875 12.382812 C 12.765625 12.210938 12.804688 12.035156 12.832031 11.859375 L 11.496094 13.210938 Z M 11.730469 13.386719 " fill-opacity="1" fill-rule="nonzero"/><path fill="currentColor" d="M 11.226562 13.011719 L 12.886719 11.332031 C 12.890625 11.246094 12.894531 11.164062 12.894531 11.074219 C 12.894531 11.023438 12.894531 10.96875 12.890625 10.917969 L 10.992188 12.839844 Z M 11.226562 13.011719 " fill-opacity="1" fill-rule="nonzero"/><path fill="currentColor" d="M 12.140625 13.691406 C 12.253906 13.511719 12.355469 13.324219 12.445312 13.128906 L 12 13.582031 Z M 12.140625 13.691406 " fill-opacity="1" fill-rule="nonzero"/><g clip-path="url(#e551156200)"><path fill="currentColor" d="M 27.835938 25.890625 L 2.164062 25.890625 C 1.269531 25.890625 0.542969 25.152344 0.542969 24.246094 L 0.542969 5.042969 C 0.542969 4.136719 1.269531 3.398438 2.164062 3.398438 L 27.835938 3.398438 C 28.730469 3.398438 29.457031 4.136719 29.457031 5.042969 L 29.457031 24.246094 C 29.457031 25.152344 28.730469 25.890625 27.835938 25.890625 Z M 2.164062 4.054688 C 1.628906 4.054688 1.191406 4.5 1.191406 5.042969 L 1.191406 24.246094 C 1.191406 24.789062 1.628906 25.234375 2.164062 25.234375 L 27.835938 25.234375 C 28.371094 25.234375 28.808594 24.789062 28.808594 24.246094 L 28.808594 5.042969 C 28.808594 4.5 28.371094 4.054688 27.835938 4.054688 Z M 2.164062 4.054688 " fill-opacity="1" fill-rule="nonzero"/></g><path fill="currentColor" d="M 17.097656 9.875 L 18.34375 9.875 L 18.34375 14.011719 L 17.097656 14.011719 Z M 17.097656 9.875 " fill-opacity="1" fill-rule="nonzero"/><path fill="currentColor" d="M 19.03125 10.222656 L 20.277344 10.222656 L 20.277344 14.011719 L 19.03125 14.011719 Z M 19.03125 10.222656 " fill-opacity="1" fill-rule="nonzero"/><path fill="currentColor" d="M 20.964844 10.910156 L 22.210938 10.910156 L 22.210938 14.011719 L 20.964844 14.011719 Z M 20.964844 10.910156 " fill-opacity="1" fill-rule="nonzero"/><path fill="currentColor" d="M 22.898438 9.1875 L 24.144531 9.1875 L 24.144531 14.011719 L 22.898438 14.011719 Z M 22.898438 9.1875 " fill-opacity="1" fill-rule="nonzero"/><path fill="currentColor" d="M 24.832031 9.1875 L 26.082031 9.1875 L 26.082031 14.011719 L 24.832031 14.011719 Z M 24.832031 9.1875 " fill-opacity="1" fill-rule="nonzero"/><path fill="currentColor" d="M 26.019531 16.84375 L 19.472656 20.105469 L 17.089844 18.640625 L 12.792969 20.621094 L 5.828125 21.246094 L 3.085938 23.21875 L 26 23.21875 Z M 26.019531 16.84375 " fill-opacity="1" fill-rule="nonzero"/><path fill="currentColor" d="M 8.070312 15.941406 C 5.417969 15.941406 3.253906 13.753906 3.253906 11.0625 C 3.253906 8.433594 5.320312 6.285156 7.890625 6.1875 L 7.890625 11.015625 L 7.894531 11.015625 L 11.917969 13.996094 C 11.039062 15.175781 9.640625 15.941406 8.070312 15.941406 Z M 8.070312 15.941406 " fill-opacity="1" fill-rule="nonzero"/></svg>