<svg xmlns="http://www.w3.org/2000/svg" xmlns:xlink="http://www.w3.org/1999/xlink" width="500" zoomAndPan="magnify" viewBox="0 0 375 374.999991" height="500" preserveAspectRatio="xMidYMid meet" version="1.0"><defs><clipPath id="b9f696e578"><path d="M 6.734375 8.25 L 368.234375 8.25 L 368.234375 370 L 6.734375 370 Z M 6.734375 8.25 " clip-rule="nonzero"/></clipPath></defs><g clip-path="url(#b9f696e578)"><path fill="currentColor" d="M 187.484375 8.367188 C 184.523438 8.367188 181.566406 8.445312 178.613281 8.59375 C 175.65625 8.742188 172.707031 8.960938 169.761719 9.253906 C 166.816406 9.546875 163.878906 9.914062 160.953125 10.351562 C 158.027344 10.785156 155.113281 11.292969 152.210938 11.875 C 149.308594 12.453125 146.421875 13.105469 143.550781 13.824219 C 140.683594 14.546875 137.832031 15.339844 135 16.199219 C 132.167969 17.058594 129.359375 17.988281 126.574219 18.988281 C 123.789062 19.988281 121.027344 21.054688 118.296875 22.1875 C 115.5625 23.320312 112.859375 24.519531 110.183594 25.789062 C 107.507812 27.054688 104.867188 28.386719 102.257812 29.78125 C 99.648438 31.175781 97.074219 32.636719 94.535156 34.15625 C 92 35.679688 89.5 37.261719 87.039062 38.90625 C 84.578125 40.550781 82.160156 42.257812 79.785156 44.019531 C 77.40625 45.78125 75.074219 47.601562 72.789062 49.480469 C 70.5 51.359375 68.261719 53.289062 66.066406 55.277344 C 63.875 57.265625 61.734375 59.304688 59.640625 61.394531 C 57.546875 63.488281 55.507812 65.628906 53.519531 67.824219 C 51.53125 70.015625 49.601562 72.253906 47.722656 74.542969 C 45.84375 76.828125 44.023438 79.160156 42.261719 81.535156 C 40.496094 83.914062 38.792969 86.332031 37.148438 88.789062 C 35.503906 91.25 33.917969 93.75 32.398438 96.285156 C 30.875 98.824219 29.414062 101.394531 28.019531 104.003906 C 26.621094 106.613281 25.292969 109.253906 24.023438 111.929688 C 22.757812 114.605469 21.558594 117.308594 20.425781 120.039062 C 19.289062 122.773438 18.222656 125.53125 17.222656 128.316406 C 16.226562 131.101562 15.296875 133.910156 14.433594 136.742188 C 13.574219 139.574219 12.78125 142.421875 12.0625 145.292969 C 11.339844 148.160156 10.6875 151.046875 10.109375 153.949219 C 9.53125 156.851562 9.019531 159.765625 8.585938 162.691406 C 8.148438 165.617188 7.78125 168.550781 7.488281 171.496094 C 7.195312 174.441406 6.976562 177.390625 6.828125 180.347656 C 6.679688 183.300781 6.601562 186.257812 6.597656 189.21875 C 16.539062 429.140625 358.46875 429.070312 368.371094 189.214844 C 368.367188 186.257812 368.289062 183.300781 368.140625 180.34375 C 367.992188 177.390625 367.773438 174.441406 367.480469 171.496094 C 367.1875 168.550781 366.824219 165.617188 366.386719 162.691406 C 365.949219 159.761719 365.441406 156.847656 364.859375 153.949219 C 364.28125 151.046875 363.628906 148.160156 362.910156 145.292969 C 362.1875 142.421875 361.394531 139.570312 360.535156 136.742188 C 359.671875 133.910156 358.742188 131.101562 357.746094 128.316406 C 356.746094 125.53125 355.679688 122.773438 354.546875 120.039062 C 353.410156 117.304688 352.210938 114.601562 350.945312 111.929688 C 349.675781 109.253906 348.347656 106.613281 346.949219 104.003906 C 345.554688 101.394531 344.09375 98.820312 342.574219 96.285156 C 341.050781 93.746094 339.464844 91.25 337.820312 88.789062 C 336.175781 86.328125 334.472656 83.910156 332.710938 81.535156 C 330.945312 79.160156 329.125 76.828125 327.246094 74.539062 C 325.371094 72.253906 323.4375 70.015625 321.449219 67.820312 C 319.460938 65.628906 317.421875 63.488281 315.328125 61.394531 C 313.238281 59.304688 311.09375 57.265625 308.902344 55.277344 C 306.707031 53.289062 304.46875 51.355469 302.179688 49.480469 C 299.894531 47.601562 297.5625 45.78125 295.183594 44.019531 C 292.808594 42.257812 290.390625 40.550781 287.929688 38.90625 C 285.46875 37.261719 282.972656 35.679688 280.433594 34.15625 C 277.894531 32.636719 275.320312 31.175781 272.710938 29.78125 C 270.101562 28.386719 267.460938 27.054688 264.785156 25.789062 C 262.113281 24.519531 259.40625 23.320312 256.675781 22.1875 C 253.941406 21.054688 251.179688 19.988281 248.394531 18.988281 C 245.609375 17.988281 242.800781 17.058594 239.96875 16.199219 C 237.136719 15.339844 234.289062 14.546875 231.417969 13.824219 C 228.546875 13.105469 225.660156 12.453125 222.757812 11.875 C 219.855469 11.292969 216.941406 10.785156 214.015625 10.351562 C 211.089844 9.914062 208.152344 9.546875 205.207031 9.253906 C 202.261719 8.960938 199.3125 8.742188 196.355469 8.59375 C 193.402344 8.445312 190.445312 8.367188 187.484375 8.367188 Z M 84.933594 109.421875 L 290.035156 109.421875 C 290.472656 109.421875 290.898438 109.488281 291.316406 109.621094 C 291.734375 109.753906 292.121094 109.949219 292.476562 110.203125 C 292.832031 110.457031 293.140625 110.757812 293.40625 111.109375 C 293.667969 111.457031 293.871094 111.839844 294.011719 112.253906 C 294.15625 112.667969 294.234375 113.089844 294.242188 113.527344 C 294.253906 113.964844 294.199219 114.394531 294.074219 114.8125 C 293.953125 115.234375 293.769531 115.625 293.523438 115.988281 C 293.277344 116.351562 292.984375 116.667969 292.640625 116.9375 L 191.019531 196.96875 C 190.511719 197.355469 189.957031 197.652344 189.351562 197.859375 C 188.746094 198.0625 188.125 198.164062 187.484375 198.164062 C 186.84375 198.164062 186.222656 198.0625 185.617188 197.859375 C 185.011719 197.652344 184.457031 197.355469 183.949219 196.96875 L 82.328125 116.9375 C 81.984375 116.667969 81.691406 116.351562 81.445312 115.988281 C 81.203125 115.625 81.015625 115.234375 80.894531 114.8125 C 80.769531 114.394531 80.714844 113.964844 80.726562 113.527344 C 80.734375 113.089844 80.8125 112.667969 80.957031 112.253906 C 81.101562 111.839844 81.300781 111.457031 81.566406 111.109375 C 81.828125 110.757812 82.136719 110.457031 82.492188 110.203125 C 82.847656 109.949219 83.234375 109.753906 83.652344 109.621094 C 84.070312 109.488281 84.496094 109.421875 84.933594 109.421875 Z M 312.898438 258.914062 C 312.898438 259.578125 312.835938 260.234375 312.703125 260.886719 C 312.574219 261.535156 312.382812 262.167969 312.128906 262.777344 C 311.875 263.390625 311.566406 263.972656 311.195312 264.523438 C 310.828125 265.074219 310.410156 265.585938 309.941406 266.054688 C 309.472656 266.523438 308.960938 266.941406 308.410156 267.308594 C 307.859375 267.679688 307.277344 267.988281 306.664062 268.242188 C 306.054688 268.496094 305.421875 268.6875 304.769531 268.816406 C 304.121094 268.945312 303.464844 269.011719 302.800781 269.011719 L 72.167969 269.011719 C 71.503906 269.011719 70.847656 268.945312 70.199219 268.816406 C 69.546875 268.6875 68.917969 268.496094 68.304688 268.242188 C 67.691406 267.988281 67.109375 267.679688 66.558594 267.308594 C 66.007812 266.941406 65.496094 266.523438 65.027344 266.054688 C 64.558594 265.585938 64.140625 265.074219 63.773438 264.523438 C 63.402344 263.972656 63.09375 263.390625 62.839844 262.777344 C 62.585938 262.167969 62.394531 261.535156 62.265625 260.886719 C 62.136719 260.234375 62.070312 259.578125 62.070312 258.914062 L 62.070312 124.132812 C 62.070312 123.328125 62.285156 122.582031 62.710938 121.902344 C 63.140625 121.21875 63.714844 120.699219 64.441406 120.347656 C 65.167969 119.996094 65.929688 119.863281 66.730469 119.949219 C 67.53125 120.035156 68.25 120.328125 68.882812 120.828125 L 176.882812 205.859375 C 177.625 206.464844 178.414062 207 179.25 207.46875 C 180.085938 207.9375 180.957031 208.332031 181.859375 208.652344 C 182.761719 208.972656 183.6875 209.214844 184.632812 209.378906 C 185.574219 209.539062 186.527344 209.621094 187.484375 209.621094 C 188.445312 209.621094 189.394531 209.539062 190.339844 209.378906 C 191.285156 209.214844 192.207031 208.972656 193.109375 208.652344 C 194.015625 208.332031 194.882812 207.9375 195.71875 207.46875 C 196.554688 207 197.34375 206.464844 198.089844 205.859375 L 306.085938 120.828125 C 306.71875 120.328125 307.4375 120.035156 308.238281 119.949219 C 309.039062 119.863281 309.800781 119.996094 310.527344 120.347656 C 311.253906 120.699219 311.828125 121.21875 312.257812 121.902344 C 312.683594 122.582031 312.898438 123.328125 312.898438 124.132812 Z M 312.898438 258.914062 " fill-opacity="1" fill-rule="nonzero"/></g></svg>
