<svg xmlns="http://www.w3.org/2000/svg" xmlns:xlink="http://www.w3.org/1999/xlink" width="40" zoomAndPan="magnify" viewBox="0 0 30 30.000001" height="40" preserveAspectRatio="xMidYMid meet" version="1.0"><defs><clipPath id="9da7ba08f9"><path d="M 2.445312 0 L 27.550781 0 L 27.550781 29 L 2.445312 29 Z M 2.445312 0 " clip-rule="nonzero"/></clipPath></defs><g clip-path="url(#9da7ba08f9)"><path fill="currentColor" d="M 7.746094 6.628906 L 7.765625 6.464844 C 7.785156 6.050781 7.574219 5.613281 7.289062 5.3125 C 6.667969 4.652344 5.78125 4.375 4.890625 4.335938 C 4.042969 4.359375 3.246094 4.570312 2.515625 4.992188 C 4.015625 4.875 4.5 6.621094 5.648438 7.1875 C 6.066406 7.394531 6.546875 7.460938 6.996094 7.3125 C 7.210938 7.242188 7.375 7.117188 7.476562 6.921875 L 7.484375 6.863281 C 7.429688 6.792969 7.289062 6.738281 7.207031 6.699219 C 6.667969 6.4375 6.085938 6.257812 5.527344 6.035156 L 5.527344 6.019531 C 6.261719 6.21875 7.039062 6.351562 7.746094 6.628906 Z M 2.609375 7.851562 C 2.441406 8.394531 2.449219 9.054688 2.441406 9.546875 C 2.433594 10.386719 2.515625 11.214844 2.753906 12.023438 C 3.246094 13.667969 4.355469 15.152344 5.859375 16.078125 C 6.046875 16.191406 6.238281 16.300781 6.4375 16.394531 C 6.519531 16.433594 6.792969 16.503906 6.820312 16.601562 C 6.855469 16.710938 6.640625 16.953125 6.59375 17.054688 C 6.488281 17.269531 6.402344 17.496094 6.320312 17.722656 C 6.039062 18.546875 5.894531 19.417969 5.921875 20.289062 C 5.972656 21.929688 6.652344 23.460938 7.753906 24.703125 C 8.324219 25.351562 8.996094 25.914062 9.730469 26.382812 C 10.175781 26.671875 10.648438 26.917969 11.136719 27.128906 C 11.382812 27.234375 11.636719 27.328125 11.886719 27.425781 C 12.101562 27.507812 12.371094 27.660156 12.605469 27.65625 C 12.53125 27.546875 12.34375 27.488281 12.226562 27.425781 C 12.082031 27.34375 11.9375 27.25 11.800781 27.15625 C 11.496094 26.945312 11.207031 26.710938 10.941406 26.457031 C 10.472656 26.015625 10.070312 25.503906 9.785156 24.9375 C 9.179688 23.726562 9.214844 22.300781 9.925781 21.140625 C 10.558594 20.109375 11.605469 19.40625 12.496094 18.597656 C 13.453125 17.734375 14.289062 16.734375 14.816406 15.570312 C 15.148438 14.839844 15.371094 14.0625 15.503906 13.273438 C 15.566406 12.894531 15.605469 12.511719 15.625 12.128906 C 15.632812 11.945312 15.640625 11.761719 15.636719 11.578125 C 15.636719 11.386719 15.582031 11.164062 15.636719 10.976562 C 15.730469 11.128906 15.734375 11.355469 15.765625 11.523438 C 15.792969 11.695312 15.828125 11.867188 15.855469 12.039062 C 15.917969 12.445312 15.941406 12.855469 15.933594 13.269531 C 15.910156 14.054688 15.761719 14.835938 15.496094 15.578125 C 14.996094 16.984375 14.078125 18.160156 12.941406 19.152344 C 11.914062 20.054688 10.597656 20.773438 10.15625 22.125 C 9.9375 22.792969 9.945312 23.535156 10.242188 24.175781 C 10.539062 24.816406 11.0625 25.261719 11.667969 25.585938 C 13.074219 26.335938 14.679688 26.21875 16.226562 26.207031 C 17.777344 26.195312 19.417969 26.488281 20.566406 27.601562 C 20.820312 27.84375 21.039062 28.113281 21.226562 28.402344 C 21.320312 28.539062 21.386719 28.683594 21.464844 28.828125 C 21.578125 29.03125 21.675781 28.902344 21.792969 28.769531 C 22.320312 28.179688 22.847656 27.597656 23.328125 26.972656 C 24.273438 25.75 25.0625 24.378906 25.34375 22.863281 C 25.5 22.035156 25.5 21.167969 25.261719 20.355469 C 25.027344 19.539062 24.558594 18.898438 23.984375 18.308594 C 23.40625 17.722656 22.730469 17.195312 22.117188 16.625 C 21.800781 16.335938 21.5 16.035156 21.230469 15.710938 C 21.117188 15.570312 21.003906 15.429688 20.898438 15.285156 C 20.796875 15.152344 20.617188 14.949219 20.621094 14.777344 C 20.78125 14.898438 20.882812 15.101562 21.011719 15.253906 C 21.175781 15.449219 21.363281 15.628906 21.558594 15.796875 C 21.933594 16.125 22.351562 16.410156 22.769531 16.6875 C 23.585938 17.226562 24.40625 17.777344 25.082031 18.480469 C 25.695312 19.121094 26.171875 19.886719 26.378906 20.742188 C 26.605469 21.675781 26.527344 22.675781 26.183594 23.574219 C 26.003906 24.046875 25.75 24.492188 25.445312 24.902344 C 25.277344 25.132812 25.089844 25.355469 24.882812 25.558594 C 24.71875 25.71875 24.429688 25.859375 24.324219 26.0625 C 24.53125 26.054688 24.785156 25.820312 24.953125 25.710938 C 25.207031 25.542969 25.453125 25.359375 25.679688 25.15625 C 26.082031 24.796875 26.4375 24.378906 26.714844 23.921875 C 27.300781 22.960938 27.542969 21.824219 27.449219 20.71875 C 27.355469 19.613281 26.917969 18.5625 26.175781 17.71875 C 25.433594 16.878906 24.445312 16.28125 23.460938 15.734375 C 22.867188 15.40625 22.253906 15.09375 21.703125 14.695312 C 21.460938 14.519531 21.230469 14.332031 21.023438 14.117188 C 20.921875 14.011719 20.824219 13.894531 20.730469 13.78125 C 20.671875 13.710938 20.515625 13.566406 20.542969 13.46875 C 20.699219 13.449219 20.894531 13.546875 21.039062 13.585938 C 21.179688 13.625 21.320312 13.644531 21.464844 13.652344 C 21.769531 13.667969 22.101562 13.652344 22.386719 13.535156 C 22.625 13.433594 22.816406 13.265625 22.914062 13.03125 C 22.96875 12.898438 22.996094 12.753906 22.996094 12.609375 C 23 12.429688 22.945312 12.242188 22.996094 12.066406 C 23.070312 11.828125 23.359375 11.667969 23.308594 11.394531 C 23.289062 11.296875 23.175781 11.25 23.15625 11.175781 C 23.136719 11.082031 23.339844 10.953125 23.394531 10.875 C 23.457031 10.777344 23.5 10.660156 23.441406 10.550781 C 23.402344 10.46875 23.308594 10.429688 23.25 10.359375 C 23.105469 10.183594 23.269531 10.03125 23.421875 9.925781 C 23.578125 9.816406 23.746094 9.738281 23.878906 9.601562 C 23.964844 9.515625 24.050781 9.414062 24.070312 9.292969 C 24.097656 9.125 23.984375 9.03125 23.871094 8.921875 C 23.699219 8.761719 23.523438 8.574219 23.378906 8.382812 C 23.304688 8.28125 23.320312 8.222656 23.367188 8.113281 C 23.445312 7.933594 23.527344 7.75 23.605469 7.566406 C 23.859375 6.945312 24.089844 6.300781 24.085938 5.621094 C 24.085938 4.984375 23.910156 4.351562 23.621094 3.777344 C 23.085938 2.71875 22.175781 1.851562 21.15625 1.21875 C 20.066406 0.535156 18.734375 0.0585938 17.429688 0.0195312 C 16.816406 0 16.167969 0.078125 15.5625 0.175781 C 14.996094 0.269531 14.4375 0.410156 13.902344 0.609375 C 12.796875 1.019531 11.796875 1.679688 11.039062 2.558594 C 10.117188 3.636719 9.59375 4.996094 9.398438 6.371094 C 9.285156 7.164062 9.304688 7.96875 9.246094 8.765625 C 9.21875 9.117188 9.164062 9.457031 9.082031 9.800781 C 9.042969 9.96875 8.960938 10.449219 8.753906 10.507812 C 8.707031 10.367188 8.796875 10.167969 8.820312 10.027344 C 8.855469 9.8125 8.871094 9.59375 8.867188 9.378906 C 8.867188 8.964844 8.8125 8.550781 8.699219 8.152344 C 8.613281 7.867188 8.492188 7.582031 8.3125 7.339844 C 8.175781 7.160156 7.878906 6.84375 7.613281 6.871094 C 7.664062 6.964844 7.792969 7.015625 7.871094 7.089844 C 7.964844 7.179688 8.042969 7.289062 8.109375 7.398438 C 8.285156 7.671875 8.40625 7.976562 8.480469 8.289062 C 8.640625 8.941406 8.59375 9.589844 8.476562 10.246094 C 8.445312 10.421875 8.46875 10.65625 8.253906 10.699219 C 7.949219 10.765625 7.589844 10.734375 7.285156 10.695312 C 6.957031 10.652344 6.636719 10.570312 6.332031 10.445312 C 6.199219 10.394531 6.0625 10.332031 5.9375 10.261719 C 5.824219 10.195312 5.707031 10.0625 5.578125 10.039062 C 5.636719 10.246094 5.890625 10.433594 6.058594 10.558594 C 6.273438 10.714844 6.507812 10.839844 6.757812 10.9375 C 7.34375 11.171875 7.996094 11.210938 8.621094 11.15625 C 9.894531 11.046875 11.113281 10.539062 12.230469 9.972656 C 14.535156 8.800781 16.515625 7.164062 18.488281 5.546875 C 19.042969 5.089844 19.59375 4.644531 20.066406 4.101562 C 20.289062 3.84375 20.496094 3.574219 20.65625 3.273438 C 20.730469 3.136719 20.792969 2.992188 20.828125 2.84375 C 20.863281 2.679688 20.820312 2.527344 20.84375 2.363281 C 20.980469 2.660156 20.878906 3.054688 20.765625 3.34375 C 20.632812 3.6875 20.425781 4.007812 20.207031 4.308594 C 19.730469 4.972656 19.160156 5.550781 18.558594 6.105469 C 17.289062 7.285156 15.992188 8.457031 14.550781 9.441406 C 13.195312 10.363281 11.707031 11.128906 10.101562 11.550781 C 8.59375 11.945312 6.921875 12.03125 5.5 11.332031 C 4.742188 10.957031 4.089844 10.386719 3.652344 9.683594 C 3.417969 9.3125 3.242188 8.90625 3.128906 8.484375 C 3.074219 8.273438 3.03125 8.0625 3.003906 7.847656 C 2.980469 7.640625 3 7.433594 2.933594 7.238281 C 2.78125 7.40625 2.679688 7.617188 2.609375 7.851562 Z M 16.371094 0.886719 C 15.976562 0.933594 15.601562 1 15.222656 1.125 C 14.277344 1.433594 13.425781 2.058594 12.8125 2.820312 C 11.699219 4.203125 11.222656 6.007812 11.4375 7.746094 C 11.511719 8.375 11.679688 8.964844 11.867188 9.566406 C 11.566406 9.082031 11.308594 8.566406 11.128906 8.023438 C 10.898438 7.320312 10.816406 6.535156 10.851562 5.796875 L 10.890625 5.375 C 10.902344 5.300781 10.9375 5.191406 10.929688 5.121094 C 10.746094 5.386719 10.609375 5.6875 10.488281 5.980469 C 10.285156 6.464844 10.113281 6.980469 10.003906 7.492188 C 9.953125 7.746094 9.921875 8.003906 9.886719 8.261719 C 9.835938 8.152344 9.871094 7.898438 9.875 7.773438 C 9.910156 6.683594 10.140625 5.628906 10.550781 4.613281 C 10.691406 4.273438 10.847656 3.941406 11.042969 3.628906 C 11.691406 2.613281 12.671875 1.832031 13.796875 1.355469 C 14.597656 1.015625 15.496094 0.820312 16.371094 0.886719 Z M 16.394531 15.464844 C 16.441406 15.351562 16.484375 15.234375 16.527344 15.121094 C 16.847656 14.21875 16.980469 13.296875 16.90625 12.347656 C 16.863281 11.863281 16.773438 11.386719 16.710938 10.910156 C 16.679688 10.683594 16.652344 10.457031 16.640625 10.230469 C 16.632812 10.003906 16.597656 9.710938 16.667969 9.492188 C 16.722656 9.53125 16.75 9.660156 16.777344 9.722656 C 16.8125 9.804688 16.847656 9.882812 16.890625 9.960938 C 16.976562 10.117188 17.09375 10.261719 17.257812 10.347656 C 17.667969 10.558594 18.15625 10.394531 18.476562 10.113281 C 18.796875 9.828125 18.960938 9.363281 18.816406 8.945312 C 18.753906 8.757812 18.628906 8.589844 18.441406 8.503906 C 18.324219 8.445312 18.039062 8.378906 17.96875 8.539062 C 18.105469 8.558594 18.210938 8.535156 18.332031 8.617188 C 18.433594 8.683594 18.503906 8.792969 18.53125 8.910156 C 18.589844 9.171875 18.433594 9.433594 18.1875 9.546875 C 17.945312 9.660156 17.648438 9.628906 17.460938 9.4375 C 17.277344 9.246094 17.273438 8.980469 17.316406 8.746094 C 17.378906 8.425781 17.558594 8.128906 17.746094 7.859375 C 17.960938 7.546875 18.203125 7.25 18.453125 6.96875 C 18.964844 6.382812 19.527344 5.84375 20.058594 5.277344 C 20.355469 4.957031 20.644531 4.628906 20.910156 4.285156 C 21.03125 4.125 21.148438 3.964844 21.25 3.792969 C 21.441406 3.46875 21.472656 3.089844 21.777344 3.570312 C 21.867188 3.710938 21.960938 3.84375 22.050781 3.984375 C 22.246094 4.300781 22.425781 4.632812 22.542969 4.984375 C 22.660156 5.332031 22.667969 5.664062 22.617188 6.019531 C 22.566406 6.375 22.476562 6.699219 22.46875 7.042969 C 22.457031 7.410156 22.570312 7.746094 22.746094 8.070312 C 22.921875 8.394531 23.117188 8.703125 23.367188 8.976562 C 23.441406 9.054688 23.597656 9.144531 23.625 9.25 C 23.65625 9.378906 23.5 9.484375 23.402344 9.535156 C 23.277344 9.601562 22.730469 9.710938 22.742188 9.894531 C 22.84375 9.910156 22.9375 9.871094 23.035156 9.890625 C 23.003906 9.957031 22.9375 9.992188 22.921875 10.070312 C 22.902344 10.15625 22.9375 10.226562 22.984375 10.296875 C 23.03125 10.371094 23.058594 10.410156 22.976562 10.464844 C 22.898438 10.515625 22.804688 10.542969 22.726562 10.59375 C 22.5625 10.707031 22.425781 10.855469 22.25 10.957031 C 22.160156 11.007812 22.070312 11.039062 21.96875 11.050781 C 21.894531 11.0625 21.757812 11.050781 21.703125 11.113281 C 21.726562 11.242188 21.964844 11.371094 22.066406 11.445312 C 22.195312 11.539062 22.316406 11.640625 22.457031 11.714844 C 22.507812 11.738281 22.605469 11.757812 22.640625 11.800781 C 22.710938 11.882812 22.652344 11.90625 22.605469 11.984375 C 22.527344 12.125 22.539062 12.285156 22.550781 12.441406 C 22.570312 12.78125 22.464844 13.039062 22.117188 13.15625 C 21.796875 13.265625 21.433594 13.222656 21.109375 13.152344 C 20.316406 12.976562 19.5 12.707031 18.777344 12.34375 C 18.457031 12.179688 18.140625 11.992188 17.863281 11.765625 C 17.726562 11.65625 17.605469 11.527344 17.492188 11.398438 C 17.378906 11.265625 17.261719 11.074219 17.113281 10.96875 C 17.109375 11.105469 17.234375 11.285156 17.304688 11.398438 C 17.390625 11.542969 17.484375 11.683594 17.578125 11.824219 C 17.785156 12.128906 18.027344 12.414062 18.289062 12.675781 C 18.410156 12.792969 18.539062 12.90625 18.671875 13.011719 C 18.71875 13.046875 18.859375 13.113281 18.882812 13.167969 C 18.910156 13.238281 18.839844 13.324219 18.804688 13.378906 C 18.632812 13.679688 18.519531 14.011719 18.421875 14.34375 C 18.207031 15.089844 18.105469 15.859375 18.167969 16.636719 C 18.214844 17.28125 18.363281 18.011719 18.910156 18.441406 C 19.394531 18.828125 20.058594 18.90625 20.617188 19.160156 C 21.171875 19.414062 21.667969 19.785156 22.066406 20.242188 C 22.976562 21.292969 23.246094 22.703125 23.15625 24.042969 C 23.101562 24.886719 22.90625 25.71875 22.625 26.515625 C 22.480469 26.917969 22.316406 27.3125 22.144531 27.699219 C 22.0625 27.886719 21.976562 28.070312 21.898438 28.257812 C 21.835938 28.40625 21.777344 28.664062 21.636719 28.769531 C 21.5625 28.714844 21.609375 28.484375 21.609375 28.402344 C 21.617188 28.214844 21.59375 28.03125 21.5625 27.851562 C 21.5 27.460938 21.382812 27.078125 21.21875 26.714844 C 20.917969 26.039062 20.460938 25.441406 19.902344 24.941406 C 18.691406 23.867188 17.117188 23.265625 15.734375 22.433594 C 15.058594 22.023438 14.476562 21.527344 14.050781 20.871094 C 13.839844 20.550781 13.691406 20.203125 13.558594 19.847656 C 13.515625 19.730469 13.402344 19.53125 13.46875 19.410156 C 13.5 19.355469 13.566406 19.316406 13.613281 19.277344 C 13.699219 19.207031 13.789062 19.132812 13.875 19.058594 C 14.988281 18.097656 15.851562 16.8125 16.390625 15.460938 Z M 21.042969 5.601562 C 21.179688 5.601562 21.316406 5.625 21.449219 5.65625 C 21.554688 5.675781 21.660156 5.707031 21.761719 5.742188 C 21.847656 5.773438 21.941406 5.808594 22.015625 5.859375 C 22.152344 5.945312 22.1875 6.121094 22.199219 6.269531 C 22.203125 6.308594 22.21875 6.472656 22.140625 6.453125 C 22.117188 6.445312 22.089844 6.421875 22.066406 6.40625 C 22.035156 6.382812 22 6.363281 21.964844 6.339844 C 21.789062 6.230469 21.605469 6.128906 21.40625 6.058594 C 21.210938 5.984375 21.019531 5.9375 20.8125 5.917969 C 20.75 5.910156 20.6875 5.917969 20.625 5.921875 C 20.5625 5.925781 20.503906 5.933594 20.445312 5.941406 C 20.332031 5.964844 20.21875 5.992188 20.109375 6.03125 C 20 6.066406 19.898438 6.109375 19.796875 6.15625 C 19.746094 6.179688 19.691406 6.203125 19.640625 6.230469 C 19.617188 6.242188 19.59375 6.253906 19.566406 6.269531 C 19.542969 6.28125 19.515625 6.300781 19.488281 6.3125 C 19.519531 6.269531 19.570312 6.238281 19.609375 6.207031 C 19.820312 6.039062 20.066406 5.902344 20.3125 5.789062 C 20.5 5.703125 20.695312 5.632812 20.902344 5.609375 C 20.949219 5.605469 20.996094 5.605469 21.039062 5.605469 Z M 20.765625 6.886719 C 20.859375 6.875 20.957031 6.871094 21.054688 6.875 C 21.03125 6.878906 21.007812 6.894531 20.984375 6.902344 L 20.828125 6.96875 C 20.75 7.003906 20.671875 7.035156 20.589844 7.066406 C 20.453125 7.132812 20.316406 7.207031 20.175781 7.269531 C 20.101562 7.304688 20.03125 7.335938 19.957031 7.363281 C 19.882812 7.390625 19.804688 7.410156 19.726562 7.433594 C 19.75 7.441406 19.769531 7.457031 19.785156 7.46875 L 19.90625 7.535156 C 19.964844 7.570312 20.027344 7.601562 20.085938 7.636719 C 20.289062 7.757812 20.484375 7.890625 20.710938 7.96875 C 20.828125 8.011719 20.949219 8.03125 21.074219 8.039062 C 21.132812 8.046875 21.195312 8.050781 21.257812 8.058594 C 21.285156 8.066406 21.316406 8.070312 21.347656 8.078125 C 21.363281 8.082031 21.378906 8.085938 21.394531 8.089844 C 21.410156 8.097656 21.429688 8.109375 21.445312 8.109375 C 21.453125 8.089844 21.433594 8.050781 21.429688 8.03125 C 21.417969 8.007812 21.402344 7.980469 21.394531 7.953125 C 21.386719 7.925781 21.398438 7.894531 21.40625 7.867188 C 21.410156 7.832031 21.417969 7.796875 21.425781 7.761719 C 21.441406 7.703125 21.457031 7.644531 21.46875 7.582031 C 21.472656 7.558594 21.476562 7.53125 21.484375 7.507812 C 21.488281 7.496094 21.492188 7.480469 21.5 7.46875 C 21.507812 7.457031 21.511719 7.453125 21.527344 7.453125 C 21.578125 7.449219 21.625 7.449219 21.671875 7.429688 C 21.722656 7.414062 21.765625 7.382812 21.808594 7.351562 C 21.886719 7.285156 21.953125 7.207031 21.996094 7.113281 C 22.046875 7.015625 22.074219 6.902344 22.089844 6.796875 C 22.070312 6.828125 22.050781 6.855469 22.027344 6.890625 C 22.007812 6.921875 21.988281 6.953125 21.964844 6.988281 C 21.925781 7.042969 21.871094 7.089844 21.804688 7.113281 C 21.769531 7.125 21.730469 7.132812 21.695312 7.128906 C 21.675781 7.128906 21.65625 7.125 21.640625 7.117188 C 21.617188 7.109375 21.589844 7.101562 21.597656 7.074219 C 21.605469 7.03125 21.628906 6.992188 21.648438 6.953125 C 21.660156 6.933594 21.667969 6.917969 21.675781 6.898438 C 21.679688 6.886719 21.703125 6.847656 21.695312 6.835938 C 21.679688 6.824219 21.640625 6.855469 21.632812 6.859375 C 21.609375 6.878906 21.582031 6.890625 21.550781 6.886719 C 21.46875 6.875 21.398438 6.808594 21.324219 6.773438 C 21.234375 6.734375 21.125 6.722656 21.027344 6.722656 C 20.8125 6.726562 20.605469 6.804688 20.410156 6.890625 C 20.210938 6.980469 20.011719 7.070312 19.8125 7.160156 C 19.78125 7.171875 19.746094 7.183594 19.730469 7.207031 C 19.742188 7.214844 19.75 7.207031 19.765625 7.203125 C 19.796875 7.191406 19.824219 7.183594 19.851562 7.171875 C 19.90625 7.152344 19.960938 7.132812 20.015625 7.113281 C 20.128906 7.074219 20.246094 7.03125 20.363281 6.992188 C 20.476562 6.953125 20.589844 6.921875 20.707031 6.898438 C 20.726562 6.894531 20.746094 6.890625 20.765625 6.886719 Z M 20.789062 7.855469 C 20.761719 7.851562 20.730469 7.835938 20.710938 7.824219 C 20.6875 7.816406 20.660156 7.804688 20.636719 7.792969 C 20.585938 7.769531 20.542969 7.742188 20.5 7.710938 C 20.460938 7.683594 20.425781 7.652344 20.390625 7.621094 C 20.371094 7.605469 20.359375 7.585938 20.34375 7.566406 C 20.335938 7.558594 20.324219 7.542969 20.320312 7.535156 C 20.320312 7.496094 20.460938 7.441406 20.492188 7.425781 C 20.511719 7.417969 20.535156 7.40625 20.558594 7.398438 C 20.582031 7.390625 20.621094 7.371094 20.644531 7.371094 C 20.65625 7.386719 20.652344 7.421875 20.652344 7.441406 C 20.65625 7.460938 20.660156 7.484375 20.660156 7.503906 C 20.664062 7.542969 20.671875 7.585938 20.679688 7.625 C 20.691406 7.664062 20.703125 7.699219 20.71875 7.734375 C 20.730469 7.757812 20.738281 7.777344 20.75 7.796875 C 20.765625 7.816406 20.785156 7.835938 20.789062 7.855469 Z M 21.140625 7.695312 C 21.15625 7.703125 21.164062 7.730469 21.164062 7.742188 C 21.167969 7.78125 21.15625 7.820312 21.125 7.84375 C 21.09375 7.871094 21.050781 7.875 21.011719 7.863281 C 20.972656 7.847656 20.9375 7.804688 20.914062 7.773438 C 20.882812 7.730469 20.863281 7.679688 20.851562 7.628906 C 20.839844 7.570312 20.835938 7.511719 20.84375 7.453125 C 20.847656 7.40625 20.859375 7.328125 20.914062 7.3125 C 20.925781 7.335938 20.917969 7.363281 20.917969 7.386719 C 20.917969 7.414062 20.917969 7.441406 20.921875 7.464844 C 20.925781 7.511719 20.933594 7.5625 20.957031 7.605469 C 20.96875 7.628906 20.980469 7.648438 20.996094 7.667969 C 21.015625 7.6875 21.042969 7.695312 21.070312 7.699219 C 21.082031 7.699219 21.09375 7.699219 21.105469 7.699219 C 21.113281 7.699219 21.128906 7.691406 21.140625 7.695312 Z M 21.140625 7.695312 " fill-opacity="1" fill-rule="nonzero"/></g></svg>