<svg xmlns="http://www.w3.org/2000/svg" xmlns:xlink="http://www.w3.org/1999/xlink" width="500" zoomAndPan="magnify" viewBox="0 0 375 374.999991" height="500" preserveAspectRatio="xMidYMid meet" version="1.0"><path fill="currentColor" d="M 210 75 C 214.144531 75 217.5 71.640625 217.5 67.5 C 217.5 63.359375 214.144531 60 210 60 L 165 60 C 160.859375 60 157.5 63.359375 157.5 67.5 C 157.5 71.640625 160.859375 75 165 75 Z M 210 75 " fill-opacity="1" fill-rule="nonzero"/><path fill="currentColor" d="M 210 322.5 L 210 313.664062 C 233.59375 310.980469 256.925781 304.101562 279.449219 293.089844 C 291.9375 286.980469 300 273.828125 300 259.574219 L 300 85.425781 C 300 71.171875 291.9375 58.019531 279.449219 51.914062 C 259.335938 42.066406 238.527344 35.480469 217.5 32.292969 L 217.5 30 C 217.5 13.457031 204.046875 0 187.5 0 C 170.957031 0 157.5 13.457031 157.5 30 L 157.5 32.292969 C 136.476562 35.480469 115.667969 42.066406 95.554688 51.910156 C 83.066406 58.019531 75 71.171875 75 85.425781 L 75 259.574219 C 75 273.828125 83.066406 286.980469 95.554688 293.089844 C 118.074219 304.101562 141.410156 310.980469 165 313.664062 L 165 322.5 C 165 326.640625 168.359375 330 172.5 330 L 180 330 C 180 354.816406 200.1875 375 225 375 L 285 375 C 289.144531 375 292.5 371.640625 292.5 367.5 C 292.5 363.359375 289.144531 360 285 360 L 225 360 C 208.453125 360 195 346.542969 195 330 L 202.5 330 C 206.644531 330 210 326.640625 210 322.5 Z M 195 289.800781 L 195 315 L 180 315 L 180 289.800781 C 180 278.882812 172.195312 269.5625 161.402344 267.632812 C 147.308594 265.195312 133.402344 260.828125 120.011719 254.628906 L 120.355469 105 L 157.5 105 C 161.640625 105 165 101.640625 165 97.5 C 165 93.359375 161.640625 90 157.5 90 L 112.875 90 C 108.738281 90 105.382812 93.347656 105.375 97.480469 L 105 259.332031 C 104.992188 262.191406 106.613281 264.804688 109.171875 266.070312 C 125.140625 273.976562 141.851562 279.476562 158.804688 282.40625 C 162.394531 283.046875 165 286.15625 165 289.800781 L 165 298.585938 C 143.6875 295.960938 122.582031 289.609375 102.148438 279.613281 C 94.769531 276.007812 90 268.140625 90 259.574219 L 90 85.425781 C 90 76.859375 94.769531 68.996094 102.148438 65.382812 C 122.84375 55.253906 144.289062 48.835938 165.875 46.300781 C 169.652344 45.855469 172.5 42.65625 172.5 38.851562 L 172.5 30 C 172.5 21.726562 179.226562 15 187.5 15 C 195.769531 15 202.5 21.726562 202.5 30 L 202.5 38.851562 C 202.5 42.65625 205.347656 45.855469 209.128906 46.300781 C 230.714844 48.835938 252.160156 55.253906 272.855469 65.386719 C 280.230469 68.996094 285 76.859375 285 85.425781 L 285 259.574219 C 285 268.140625 280.230469 276.007812 272.855469 279.613281 C 252.425781 289.609375 231.316406 295.960938 210 298.585938 L 210 289.800781 C 210 286.164062 212.570312 283.09375 216.160156 282.492188 C 233 279.578125 249.566406 274.128906 265.378906 266.292969 C 267.933594 265.035156 269.546875 262.4375 269.554688 259.59375 C 269.554688 259.59375 269.925781 98.328125 269.925781 97.519531 C 269.9375 93.515625 266.414062 90 262.425781 90 L 217.5 90 C 213.355469 90 210 93.359375 210 97.5 C 210 101.640625 213.355469 105 217.5 105 L 254.914062 105 L 254.5625 254.847656 C 241.3125 260.972656 227.554688 265.296875 213.632812 267.703125 C 202.835938 269.519531 195 278.8125 195 289.800781 Z M 195 289.800781 " fill-opacity="1" fill-rule="nonzero"/><path fill="currentColor" d="M 216.429688 221.359375 C 218.5625 217.808594 217.414062 213.199219 213.859375 211.070312 C 208.367188 207.773438 203.585938 204.671875 199.429688 201.746094 C 212 189.824219 217.5 178.207031 217.5 165 C 217.5 148.457031 204.046875 135 187.5 135 C 170.957031 135 157.5 148.457031 157.5 165 C 157.5 178.207031 163.003906 189.824219 175.570312 201.746094 C 171.414062 204.671875 166.636719 207.773438 161.140625 211.070312 C 157.589844 213.199219 156.4375 217.808594 158.570312 221.359375 C 160.699219 224.914062 165.308594 226.066406 168.859375 223.929688 C 175.90625 219.703125 182.101562 215.628906 187.5 211.636719 C 192.898438 215.628906 199.09375 219.703125 206.140625 223.929688 C 209.476562 225.933594 214.292969 224.925781 216.429688 221.359375 Z M 187.5 192.355469 C 174.789062 180.917969 172.5 172.464844 172.5 165 C 172.5 156.726562 179.226562 150 187.5 150 C 195.769531 150 202.5 156.726562 202.5 165 C 202.5 172.464844 200.207031 180.917969 187.5 192.355469 Z M 187.5 192.355469 " fill-opacity="1" fill-rule="nonzero"/><path fill="currentColor" d="M 195 97.5 C 195 97.992188 194.953125 98.480469 194.855469 98.964844 C 194.761719 99.445312 194.617188 99.914062 194.429688 100.371094 C 194.242188 100.824219 194.007812 101.257812 193.734375 101.667969 C 193.460938 102.078125 193.152344 102.453125 192.804688 102.804688 C 192.457031 103.152344 192.078125 103.460938 191.667969 103.734375 C 191.257812 104.007812 190.824219 104.242188 190.371094 104.429688 C 189.914062 104.617188 189.445312 104.761719 188.964844 104.855469 C 188.480469 104.953125 187.992188 105 187.5 105 C 187.007812 105 186.519531 104.953125 186.035156 104.855469 C 185.554688 104.761719 185.085938 104.617188 184.628906 104.429688 C 184.175781 104.242188 183.742188 104.007812 183.332031 103.734375 C 182.921875 103.460938 182.542969 103.152344 182.195312 102.804688 C 181.847656 102.453125 181.539062 102.078125 181.265625 101.667969 C 180.992188 101.257812 180.757812 100.824219 180.570312 100.371094 C 180.382812 99.914062 180.238281 99.445312 180.144531 98.964844 C 180.046875 98.480469 180 97.992188 180 97.5 C 180 97.007812 180.046875 96.519531 180.144531 96.035156 C 180.238281 95.554688 180.382812 95.085938 180.570312 94.628906 C 180.757812 94.175781 180.992188 93.742188 181.265625 93.332031 C 181.539062 92.921875 181.847656 92.542969 182.195312 92.195312 C 182.542969 91.847656 182.921875 91.539062 183.332031 91.265625 C 183.742188 90.992188 184.175781 90.757812 184.628906 90.570312 C 185.085938 90.382812 185.554688 90.238281 186.035156 90.144531 C 186.519531 90.046875 187.007812 90 187.5 90 C 187.992188 90 188.480469 90.046875 188.964844 90.144531 C 189.445312 90.238281 189.914062 90.382812 190.371094 90.570312 C 190.824219 90.757812 191.257812 90.992188 191.667969 91.265625 C 192.078125 91.539062 192.457031 91.847656 192.804688 92.195312 C 193.152344 92.542969 193.460938 92.921875 193.734375 93.332031 C 194.007812 93.742188 194.242188 94.175781 194.429688 94.628906 C 194.617188 95.085938 194.761719 95.554688 194.855469 96.035156 C 194.953125 96.519531 195 97.007812 195 97.5 Z M 195 97.5 " fill-opacity="1" fill-rule="nonzero"/></svg>
