<svg xmlns="http://www.w3.org/2000/svg" xmlns:xlink="http://www.w3.org/1999/xlink" width="500" zoomAndPan="magnify" viewBox="0 0 375 374.999991" height="500" preserveAspectRatio="xMidYMid meet" version="1.0"><defs><clipPath id="03443fb88b"><path d="M 7.5 0.0625 L 367.5 0.0625 L 367.5 374.902344 L 7.5 374.902344 Z M 7.5 0.0625 " clip-rule="nonzero"/></clipPath></defs><g clip-path="url(#03443fb88b)"><path fill="currentColor" d="M 356.820312 81.21875 L 284.425781 189.035156 C 282.589844 191.089844 263.25 211.964844 242.632812 199.402344 L 231.769531 192.777344 L 250.757812 161.699219 C 252.429688 158.980469 252.929688 155.785156 252.175781 152.691406 C 251.433594 149.601562 249.527344 146.984375 246.828125 145.335938 C 246.816406 145.335938 246.574219 145.171875 246.5625 145.171875 C 240.972656 141.757812 233.628906 143.535156 230.210938 149.136719 L 211.183594 180.246094 L 200.738281 173.878906 L 200.238281 173.589844 C 179.726562 161.070312 189.441406 134.351562 190.429688 131.785156 L 253.351562 18.320312 C 264.15625 0.65625 275.546875 7.046875 276.011719 7.324219 L 316.121094 31.742188 L 356.167969 56.160156 C 356.644531 56.464844 367.558594 63.65625 356.820312 81.21875 Z M 201.410156 231.011719 C 199.703125 233.800781 196.03125 234.695312 193.242188 233.011719 C 193.230469 233.011719 192.984375 232.847656 192.972656 232.847656 C 191.613281 232.023438 190.660156 230.722656 190.289062 229.175781 C 189.917969 227.617188 190.171875 226.015625 190.988281 224.65625 L 214.707031 185.882812 L 235.289062 152.238281 C 237.007812 149.4375 240.671875 148.554688 243.425781 150.230469 C 243.4375 150.238281 243.691406 150.390625 243.691406 150.390625 C 245.0625 151.238281 246.027344 152.554688 246.398438 154.085938 C 246.773438 155.632812 246.527344 157.238281 245.679688 158.597656 L 225.144531 192.195312 C 225.144531 192.207031 225.132812 192.207031 225.132812 192.21875 C 225.121094 192.21875 225.121094 192.230469 225.121094 192.242188 Z M 270.769531 254.90625 C 270.769531 260.589844 266.808594 265.644531 261.289062 267.039062 L 152.691406 267.039062 C 151.042969 267.039062 149.71875 268.375 149.71875 270.015625 C 149.71875 271.664062 151.042969 272.992188 152.691406 272.992188 L 200.515625 272.992188 C 206.710938 275.363281 210.800781 281.542969 210.277344 287.878906 C 209.789062 293.421875 206.015625 298.234375 200.609375 300.242188 L 152.691406 300.242188 C 151.042969 300.242188 149.71875 301.582031 149.71875 303.21875 C 149.71875 304.871094 151.042969 306.195312 152.691406 306.195312 L 197.484375 306.195312 C 203.769531 308.613281 207.78125 314.679688 207.234375 321.117188 C 206.757812 326.636719 202.980469 331.4375 197.578125 333.484375 L 149.683594 333.484375 C 148.042969 333.484375 146.707031 334.820312 146.707031 336.457031 C 146.707031 338.097656 148.042969 339.433594 149.683594 339.433594 L 191.625 339.433594 C 197.15625 340.78125 201.15625 345.835938 201.15625 351.566406 C 201.15625 357.261719 197.203125 362.304688 191.707031 363.6875 L 143.617188 363.6875 C 143.417969 363.6875 143.21875 363.699219 143.035156 363.734375 C 142.277344 363.886719 68.15625 378.367188 36.289062 358.109375 C 35.8125 357.808594 35.265625 357.644531 34.695312 357.644531 L 13.449219 357.644531 L 13.449219 248.839844 L 34.695312 248.839844 C 35.71875 248.839844 36.671875 248.304688 37.21875 247.445312 C 37.507812 246.96875 67.226562 199.980469 99.035156 191.335938 C 121.765625 185.117188 142.835938 180.421875 153.378906 178.167969 C 155.65625 177.679688 157.980469 178.121094 159.921875 179.421875 C 161.828125 180.710938 163.082031 182.640625 163.476562 184.875 C 165.128906 194.542969 159.132812 201.921875 145.636719 206.804688 C 123.625 214.789062 111.191406 222.003906 110.421875 227.210938 C 110.121094 228.546875 109.097656 234.3125 112.433594 238.589844 C 114.585938 241.367188 117.953125 242.773438 122.429688 242.773438 L 261.289062 242.773438 C 266.808594 244.179688 270.769531 249.222656 270.769531 254.90625 Z M 366.929688 62.25 C 365.105469 54.707031 359.527344 51.234375 359.285156 51.09375 L 319.210938 26.664062 L 279.105469 2.246094 C 278.941406 2.140625 262.273438 -7.667969 248.210938 15.332031 L 185.140625 129.078125 C 185.070312 129.179688 185.023438 129.285156 184.976562 129.402344 C 184.839844 129.738281 171.71875 163.164062 197.203125 178.703125 L 208.070312 185.328125 L 185.90625 221.5625 C 184.257812 224.285156 183.757812 227.480469 184.5 230.570312 C 185.105469 233.058594 186.488281 235.207031 188.394531 236.824219 L 122.429688 236.824219 C 119.894531 236.824219 118.105469 236.183594 117.128906 234.953125 C 115.59375 232.988281 115.96875 229.570312 116.246094 228.445312 C 116.246094 228.421875 116.257812 228.398438 116.257812 228.375 C 116.699219 227.617188 120.675781 222.179688 147.660156 212.394531 C 169.429688 204.515625 170.589844 191.136719 169.335938 183.851562 C 168.671875 180.015625 166.511719 176.691406 163.246094 174.496094 C 160.003906 172.296875 155.957031 171.519531 152.121094 172.355469 C 141.535156 174.609375 120.347656 179.339844 97.464844 185.605469 C 66.273438 194.078125 38.449219 234.648438 33.066406 242.890625 L 10.476562 242.890625 C 8.835938 242.890625 7.5 244.214844 7.5 245.863281 L 7.5 360.621094 C 7.5 362.257812 8.835938 363.59375 10.476562 363.59375 L 33.847656 363.59375 C 48.164062 372.335938 69.292969 374.914062 89.25 374.902344 C 115.945312 374.902344 140.523438 370.289062 143.90625 369.636719 L 192.054688 369.636719 C 192.265625 369.636719 192.484375 369.605469 192.707031 369.558594 C 201.050781 367.699219 207.105469 360.132812 207.105469 351.566406 C 207.105469 346.441406 204.898438 341.699219 201.375 338.292969 C 207.988281 335.121094 212.535156 328.824219 213.160156 321.617188 C 213.730469 314.933594 210.835938 308.566406 205.804688 304.324219 C 211.648438 300.976562 215.613281 295.09375 216.207031 288.390625 C 216.683594 282.648438 214.636719 277.128906 210.859375 272.992188 L 261.636719 272.992188 C 261.855469 272.992188 262.089844 272.96875 262.296875 272.921875 C 270.667969 271.015625 276.722656 263.4375 276.722656 254.90625 C 276.722656 246.375 270.667969 238.800781 262.296875 236.894531 C 262.089844 236.847656 261.867188 236.824219 261.636719 236.824219 L 204.1875 236.824219 C 205.074219 236.042969 205.851562 235.160156 206.488281 234.117188 L 228.664062 197.855469 L 239.089844 204.222656 L 239.601562 204.515625 C 245.273438 207.976562 250.863281 209.324219 256.140625 209.324219 C 274.464844 209.324219 288.855469 193.007812 289.039062 192.800781 C 289.109375 192.707031 289.179688 192.613281 289.25 192.507812 L 361.828125 84.4375 C 366.800781 76.300781 368.523438 68.839844 366.929688 62.25 " fill-opacity="1" fill-rule="nonzero"/></g><path fill="currentColor" d="M 318.292969 86.261719 L 310.507812 81.496094 C 309.089844 80.648438 307.261719 81.089844 306.414062 82.484375 C 305.554688 83.890625 305.996094 85.726562 307.402344 86.574219 L 315.179688 91.339844 L 300.941406 114.617188 L 249.1875 83.078125 L 263.4375 59.808594 L 271.222656 64.5625 C 271.699219 64.855469 272.234375 65.003906 272.769531 65.003906 C 273.769531 65.003906 274.746094 64.492188 275.316406 63.574219 C 276.164062 62.179688 275.722656 60.34375 274.316406 59.484375 L 266.539062 54.730469 L 280.777344 31.453125 L 332.519531 62.984375 Z M 338.167969 59.449219 L 281.335938 24.828125 C 279.941406 23.96875 278.117188 24.410156 277.246094 25.816406 L 242.566406 82.519531 C 242.144531 83.195312 242.03125 84.007812 242.214844 84.773438 C 242.402344 85.542969 242.878906 86.203125 243.550781 86.609375 L 300.382812 121.242188 C 300.859375 121.535156 301.394531 121.671875 301.929688 121.671875 C 302.929688 121.671875 303.90625 121.171875 304.460938 120.253906 L 339.152344 63.550781 C 339.5625 62.878906 339.6875 62.066406 339.515625 61.296875 C 339.316406 60.53125 338.839844 59.867188 338.167969 59.449219 " fill-opacity="1" fill-rule="nonzero"/><path fill="currentColor" d="M 284.136719 72.421875 L 294.492188 78.730469 C 294.96875 79.019531 295.503906 79.160156 296.035156 79.160156 C 297.035156 79.160156 298.023438 78.648438 298.582031 77.730469 C 299.429688 76.335938 298.988281 74.5 297.582031 73.640625 L 287.226562 67.339844 C 285.820312 66.480469 283.996094 66.933594 283.136719 68.328125 C 282.289062 69.734375 282.730469 71.570312 284.136719 72.421875 " fill-opacity="1" fill-rule="nonzero"/><path fill="currentColor" d="M 240.21875 109.46875 C 233.128906 105.148438 223.839844 107.390625 219.507812 114.46875 C 219.507812 114.46875 219.507812 114.480469 219.507812 114.480469 C 217.402344 117.917969 216.777344 121.964844 217.71875 125.859375 C 218.660156 129.761719 221.0625 133.074219 224.515625 135.167969 C 226.957031 136.664062 229.664062 137.375 232.347656 137.375 C 237.425781 137.375 242.402344 134.804688 245.226562 130.167969 C 247.328125 126.730469 247.96875 122.695312 247.027344 118.78125 C 246.074219 114.875 243.667969 111.5625 240.21875 109.46875 " fill-opacity="1" fill-rule="nonzero"/><path fill="currentColor" d="M 281.542969 134.632812 C 274.453125 130.308594 265.15625 132.5625 260.835938 139.640625 C 258.71875 143.105469 258.089844 147.171875 259.042969 151.089844 C 259.996094 154.980469 262.414062 158.269531 265.832031 160.339844 C 268.285156 161.828125 270.992188 162.535156 273.675781 162.535156 C 278.753906 162.535156 283.730469 159.980469 286.554688 155.332031 C 288.65625 151.902344 289.296875 147.859375 288.34375 143.953125 C 287.402344 140.046875 284.984375 136.734375 281.542969 134.632812 " fill-opacity="1" fill-rule="nonzero"/></svg>
