<svg xmlns="http://www.w3.org/2000/svg" xmlns:xlink="http://www.w3.org/1999/xlink" width="500" zoomAndPan="magnify" viewBox="0 0 375 374.999991" height="500" preserveAspectRatio="xMidYMid meet" version="1.0"><defs><clipPath id="4e3b227aeb"><path d="M 0 175 L 70 175 L 70 244.546875 L 0 244.546875 Z M 0 175 " clip-rule="nonzero"/></clipPath><clipPath id="1a5d5f1c2f"><path d="M 87 198 L 234 198 L 234 244.546875 L 87 244.546875 Z M 87 198 " clip-rule="nonzero"/></clipPath><clipPath id="7059ea48b0"><path d="M 75.136719 181.132812 L 375 181.132812 L 375 244.523438 L 75.136719 244.523438 Z M 75.136719 181.132812 " clip-rule="nonzero"/></clipPath></defs><g clip-path="url(#4e3b227aeb)"><path fill="currentColor" d="M 69.1875 209.902344 C 69.1875 229.023438 53.699219 244.523438 34.59375 244.523438 C 15.488281 244.523438 0 229.023438 0 209.902344 C 0 190.78125 15.488281 175.28125 34.59375 175.28125 C 53.699219 175.28125 69.1875 190.78125 69.1875 209.902344 " fill-opacity="1" fill-rule="nonzero"/></g><g clip-path="url(#1a5d5f1c2f)"><path fill="currentColor" d="M 158.546875 215.15625 L 105.652344 199.214844 C 98.09375 196.9375 90.121094 201.222656 87.847656 208.789062 C 85.570312 216.351562 89.855469 224.332031 97.414062 226.609375 L 151.367188 242.863281 C 155.023438 243.964844 158.824219 244.523438 162.640625 244.523438 L 219 244.523438 C 226.890625 244.523438 233.289062 238.121094 233.289062 230.222656 C 233.289062 222.324219 226.890625 215.921875 219 215.921875 L 163.753906 215.921875 C 161.988281 215.921875 160.234375 215.664062 158.546875 215.15625 " fill-opacity="1" fill-rule="nonzero"/></g><path fill="currentColor" d="M 210.75 196.605469 L 239.507812 197.917969 L 256.546875 180.875 C 257.25 180.175781 258.417969 180.328125 258.917969 181.1875 L 269.351562 199.28125 L 313.957031 201.320312 L 283.636719 148.773438 C 274.738281 133.347656 253.636719 130.566406 241.050781 143.164062 L 200.207031 184.042969 C 204.621094 187.234375 208.269531 191.507812 210.75 196.605469 " fill-opacity="1" fill-rule="nonzero"/><g clip-path="url(#7059ea48b0)"><path fill="currentColor" d="M 357.058594 206.90625 L 208.363281 200.113281 C 203.898438 189.085938 193.113281 181.300781 180.496094 181.300781 L 105.277344 181.300781 C 88.667969 181.300781 75.203125 194.777344 75.203125 211.402344 L 75.203125 214.425781 C 75.203125 231.046875 88.667969 244.523438 105.277344 244.523438 L 144.359375 244.523438 L 96.375 230.070312 C 91.792969 228.691406 88.027344 225.609375 85.761719 221.390625 C 83.5 217.175781 83.011719 212.328125 84.386719 207.746094 C 86.652344 200.234375 93.695312 194.992188 101.527344 194.992188 C 103.273438 194.992188 105.011719 195.246094 106.695312 195.757812 L 159.589844 211.695312 C 160.941406 212.105469 162.339844 212.308594 163.75 212.308594 L 219 212.308594 C 228.871094 212.308594 236.898438 220.347656 236.898438 230.222656 C 236.898438 233.40625 236.054688 236.390625 234.59375 238.984375 L 355.34375 244.5 C 365.71875 244.972656 374.511719 236.941406 374.984375 226.558594 C 375.457031 216.179688 367.433594 207.378906 357.058594 206.90625 " fill-opacity="1" fill-rule="nonzero"/></g></svg>
