<svg xmlns="http://www.w3.org/2000/svg" xmlns:xlink="http://www.w3.org/1999/xlink" width="500" zoomAndPan="magnify" viewBox="0 0 375 374.999991" height="500" preserveAspectRatio="xMidYMid meet" version="1.0"><defs><clipPath id="7d787d1a36"><path d="M 264 7.832031 L 338 7.832031 L 338 118 L 264 118 Z M 264 7.832031 " clip-rule="nonzero"/></clipPath><clipPath id="a955400829"><path d="M 0 260 L 73 260 L 73 369.332031 L 0 369.332031 Z M 0 260 " clip-rule="nonzero"/></clipPath></defs><g clip-path="url(#7d787d1a36)"><path fill="currentColor" d="M 337.726562 79.601562 C 337.726562 81.964844 337.511719 84.285156 337.09375 86.574219 C 336.601562 89.277344 335.820312 91.917969 334.742188 94.460938 C 332.828125 98.988281 330.105469 103.035156 326.640625 106.488281 C 319.816406 113.277344 310.832031 117.011719 301.34375 117.011719 C 291.84375 117.011719 282.867188 113.277344 276.042969 106.488281 C 272.570312 103.035156 269.847656 98.996094 267.941406 94.460938 C 266.863281 91.917969 266.082031 89.277344 265.589844 86.574219 C 265.171875 84.292969 264.964844 81.964844 264.964844 79.601562 C 264.964844 79.191406 264.972656 78.789062 264.980469 78.394531 C 265.214844 70.71875 268.101562 64.339844 272.679688 56.535156 C 273.40625 55.289062 275.585938 51.589844 278.460938 46.710938 C 285.402344 34.925781 296.445312 16.1875 301.347656 7.863281 C 306.246094 16.1875 317.289062 34.933594 324.234375 46.71875 C 327.113281 51.597656 329.285156 55.289062 330.019531 56.542969 C 334.589844 64.347656 337.476562 70.726562 337.710938 78.386719 C 337.710938 78.789062 337.726562 79.191406 337.726562 79.601562 Z M 337.726562 79.601562 " fill-opacity="1" fill-rule="nonzero"/></g><g clip-path="url(#a955400829)"><path fill="currentColor" d="M 72.929688 331.96875 C 72.929688 334.332031 72.71875 336.652344 72.300781 338.9375 C 71.804688 341.640625 71.023438 344.285156 69.945312 346.828125 C 68.035156 351.351562 65.308594 355.402344 61.847656 358.855469 C 55.023438 365.644531 46.035156 369.378906 36.546875 369.378906 C 27.050781 369.378906 18.070312 365.644531 11.246094 358.855469 C 7.777344 355.402344 5.050781 351.359375 3.144531 346.828125 C 2.066406 344.285156 1.285156 341.640625 0.792969 338.9375 C 0.375 336.660156 0.171875 334.332031 0.171875 331.96875 C 0.171875 331.558594 0.175781 331.15625 0.183594 330.761719 C 0.421875 323.085938 3.304688 316.707031 7.882812 308.902344 C 8.609375 307.65625 10.789062 303.957031 13.667969 299.074219 C 20.605469 287.292969 31.648438 268.550781 36.554688 260.230469 C 41.449219 268.550781 52.496094 287.300781 59.441406 299.082031 C 62.316406 303.964844 64.488281 307.65625 65.222656 308.910156 C 69.792969 316.714844 72.679688 323.09375 72.914062 330.753906 C 72.921875 331.148438 72.929688 331.558594 72.929688 331.96875 Z M 72.929688 331.96875 " fill-opacity="1" fill-rule="nonzero"/></g><path fill="currentColor" d="M 193.664062 104.019531 C 193.207031 104.011719 192.753906 104.011719 192.304688 104.011719 L 192.296875 104.011719 C 114.300781 104.011719 46.195312 146.40625 9.757812 209.402344 C 46.1875 272.410156 114.292969 314.800781 192.296875 314.800781 L 192.3125 314.800781 C 270.308594 314.792969 338.417969 272.410156 374.828125 209.402344 C 338.621094 146.769531 271.089844 104.507812 193.664062 104.019531 Z M 96.96875 266.167969 C 72.875 251.960938 52.199219 232.5 36.546875 209.410156 C 52.199219 186.320312 72.882812 166.859375 96.96875 152.652344 C 100.402344 150.625 103.894531 148.714844 107.445312 146.921875 C 94.554688 164.40625 86.933594 186.015625 86.933594 209.410156 C 86.933594 232.804688 94.554688 254.414062 107.453125 271.902344 C 103.902344 270.109375 100.410156 268.195312 96.96875 266.167969 Z M 250.746094 267.875 C 235.382812 283.246094 215.023438 291.816406 193.328125 292.089844 C 192.988281 292.097656 192.640625 292.097656 192.296875 292.097656 C 191.957031 292.097656 191.605469 292.097656 191.265625 292.089844 C 169.570312 291.824219 149.210938 283.253906 133.847656 267.875 C 118.230469 252.257812 109.640625 231.5 109.640625 209.410156 C 109.640625 187.324219 118.230469 166.5625 133.847656 150.945312 C 149.210938 135.578125 169.570312 126.996094 191.265625 126.730469 C 191.605469 126.722656 191.957031 126.722656 192.296875 126.722656 C 192.640625 126.722656 192.988281 126.722656 193.328125 126.730469 C 215.023438 126.996094 235.375 135.578125 250.746094 150.945312 C 266.363281 166.5625 274.957031 187.324219 274.957031 209.410156 C 274.964844 231.492188 266.363281 252.257812 250.746094 267.875 Z M 287.632812 266.167969 C 284.195312 268.195312 280.703125 270.109375 277.148438 271.902344 C 290.046875 254.414062 297.667969 232.804688 297.667969 209.410156 C 297.667969 186.015625 290.046875 164.398438 277.15625 146.914062 C 280.703125 148.714844 284.203125 150.625 287.632812 152.652344 C 311.726562 166.859375 332.402344 186.320312 348.058594 209.410156 C 332.402344 232.5 311.71875 251.960938 287.632812 266.167969 Z M 287.632812 266.167969 " fill-opacity="1" fill-rule="nonzero"/><path fill="#ffffff" d="M 242.191406 209.410156 C 242.191406 236.972656 219.851562 259.320312 192.296875 259.320312 C 164.734375 259.320312 142.402344 236.972656 142.402344 209.410156 C 142.402344 181.847656 164.742188 159.503906 192.296875 159.503906 C 219.859375 159.503906 242.191406 181.847656 242.191406 209.410156 Z M 242.191406 209.410156 " fill-opacity="1" fill-rule="nonzero"/><path fill="currentColor" d="M 242.191406 209.410156 C 242.191406 236.972656 219.851562 259.320312 192.296875 259.320312 C 164.734375 259.320312 142.402344 236.972656 142.402344 209.410156 C 142.402344 181.847656 164.742188 159.503906 192.296875 159.503906 C 219.859375 159.503906 242.191406 181.847656 242.191406 209.410156 Z M 242.191406 209.410156 " fill-opacity="1" fill-rule="nonzero"/></svg>
