<svg xmlns="http://www.w3.org/2000/svg" xmlns:xlink="http://www.w3.org/1999/xlink" width="500" zoomAndPan="magnify" viewBox="0 0 375 374.999991" height="500" preserveAspectRatio="xMidYMid meet" version="1.0"><defs><clipPath id="75c3c2bd29"><path d="M 272 114 L 337.566406 114 L 337.566406 275 L 272 275 Z M 272 114 " clip-rule="nonzero"/></clipPath><clipPath id="9d3046ccb9"><path d="M 21.816406 66 L 124 66 L 124 275 L 21.816406 275 Z M 21.816406 66 " clip-rule="nonzero"/></clipPath></defs><path fill="currentColor" d="M 246.449219 229.910156 C 247.972656 208.277344 259.1875 46.542969 256.289062 27.703125 C 253.160156 7.355469 245.839844 1.816406 245.011719 1.253906 C 243.691406 0.34375 241.894531 0.679688 240.953125 1.992188 C 240.015625 3.300781 240.316406 5.144531 241.609375 6.113281 C 241.671875 6.15625 247.699219 10.871094 250.425781 28.605469 C 253.132812 46.207031 242.441406 202.039062 240.636719 227.988281 C 239.625 227.753906 238.589844 227.550781 237.507812 227.410156 C 224.65625 225.773438 207.664062 235.007812 206.949219 235.398438 C 205.511719 236.1875 204.984375 237.988281 205.773438 239.425781 C 206.566406 240.855469 208.371094 241.386719 209.800781 240.597656 C 209.960938 240.511719 225.816406 231.878906 236.75 233.296875 C 247.640625 234.695312 254.242188 242.140625 259.257812 249.246094 C 264.359375 256.46875 269.761719 287.371094 263.328125 296.859375 C 259.820312 302.03125 241.109375 311.796875 213.273438 322.976562 C 208.609375 324.84375 203.328125 322.734375 201.257812 318.164062 C 200.230469 315.882812 200.144531 313.347656 201.027344 311.011719 C 201.910156 308.675781 203.648438 306.820312 205.921875 305.789062 L 206.472656 305.542969 C 206.476562 305.542969 206.476562 305.539062 206.480469 305.539062 L 235.476562 292.417969 C 236.96875 291.742188 237.636719 289.984375 236.957031 288.492188 C 236.28125 287 234.527344 286.335938 233.03125 287.011719 L 230.402344 288.203125 C 219.382812 285.46875 212.253906 279.304688 208.082031 268.800781 C 207.476562 267.269531 205.75 266.539062 204.226562 267.136719 C 202.699219 267.738281 201.957031 269.464844 202.5625 270.988281 C 204.65625 276.253906 207.484375 280.601562 211 284.152344 C 208.0625 285.816406 205.71875 288.347656 204.210938 291.386719 C 201.09375 287.742188 196.472656 285.421875 191.3125 285.421875 C 183.765625 285.421875 177.359375 290.367188 175.160156 297.191406 C 172.382812 294.648438 168.722656 293.058594 164.671875 293.058594 C 156.070312 293.058594 149.070312 300.054688 149.070312 308.65625 L 149.070312 349.109375 C 149.070312 350.75 150.398438 352.074219 152.039062 352.074219 C 153.679688 352.074219 155.007812 350.75 155.007812 349.109375 L 155.007812 308.65625 C 155.007812 303.328125 159.339844 298.992188 164.671875 298.992188 C 170 298.992188 174.335938 303.328125 174.335938 308.65625 L 174.339844 358.371094 C 174.320312 358.789062 173.789062 368.628906 163.648438 368.628906 C 151.777344 368.628906 143.445312 358.664062 140.734375 349.402344 C 137.953125 339.917969 140.199219 269.691406 147.476562 256.023438 C 154.066406 243.644531 174.390625 240.96875 174.59375 240.941406 C 176.222656 240.742188 177.375 239.261719 177.171875 237.636719 C 176.972656 236.007812 175.457031 234.824219 173.867188 235.058594 C 173.300781 235.125 165.140625 236.210938 156.90625 240.203125 C 151.628906 167.71875 142.472656 35.40625 143.546875 24.535156 C 144.824219 11.578125 149.375 5.707031 149.476562 5.578125 C 150.511719 4.316406 150.328125 2.457031 149.070312 1.417969 C 147.804688 0.371094 145.941406 0.550781 144.890625 1.808594 C 144.65625 2.09375 139.121094 8.933594 137.644531 23.953125 C 136.277344 37.808594 149.664062 222.421875 151.203125 243.523438 C 147.632812 246.011719 144.402344 249.171875 142.238281 253.238281 C 134.164062 268.394531 131.808594 340.054688 135.035156 351.070312 C 138.355469 362.382812 148.71875 374.566406 163.648438 374.566406 C 171.34375 374.566406 175.742188 370.679688 178.058594 366.371094 C 180.886719 370.359375 185.5625 374.566406 192.796875 374.566406 C 192.855469 374.566406 192.921875 374.566406 192.980469 374.566406 C 199.339844 374.503906 203.222656 371.652344 205.492188 368.183594 C 207.988281 371.664062 212.222656 374.507812 219.085938 374.566406 C 219.148438 374.566406 219.21875 374.566406 219.285156 374.566406 C 223.902344 374.566406 227.707031 373.117188 230.59375 370.261719 C 231.378906 369.480469 232.039062 368.636719 232.609375 367.765625 C 235.199219 372.167969 239.460938 374.566406 244.8125 374.566406 C 256.183594 374.566406 259.1875 366.378906 259.1875 362.050781 L 259.1875 317.90625 C 259.1875 314.792969 258.117188 311.882812 256.238281 309.554688 C 261.980469 306.183594 266.359375 302.964844 268.238281 300.1875 C 276.671875 287.753906 269.640625 253.667969 264.097656 245.828125 C 260.03125 240.054688 254.542969 233.523438 246.449219 229.910156 Z M 222.464844 291.792969 L 208.375 298.167969 C 208.753906 293.550781 211.816406 289.6875 216.09375 288.398438 C 218.042969 289.714844 220.179688 290.835938 222.464844 291.792969 Z M 202.355469 358.839844 C 202.34375 359.832031 201.992188 368.542969 192.929688 368.628906 C 192.886719 368.628906 192.851562 368.628906 192.808594 368.628906 C 184.570312 368.628906 180.96875 359.925781 180.273438 357.996094 L 180.273438 302.390625 C 180.273438 296.304688 185.226562 291.355469 191.3125 291.355469 C 196.960938 291.355469 201.578125 295.632812 202.226562 301.105469 C 199.144531 302.867188 196.746094 305.554688 195.476562 308.917969 C 194.035156 312.738281 194.167969 316.890625 195.851562 320.609375 C 197.257812 323.714844 199.585938 326.09375 202.355469 327.632812 Z M 219.144531 368.628906 C 208.703125 368.539062 208.304688 359.519531 208.292969 358.503906 L 208.292969 329.492188 C 208.78125 329.539062 209.269531 329.597656 209.761719 329.597656 C 211.671875 329.597656 213.609375 329.238281 215.488281 328.484375 C 220.148438 326.613281 225.0625 324.574219 229.949219 322.453125 L 229.949219 356.835938 C 229.949219 356.894531 229.855469 362.648438 226.421875 366.046875 C 224.636719 367.8125 222.128906 368.675781 219.144531 368.628906 Z M 253.257812 317.90625 L 253.257812 362.046875 C 253.257812 362.722656 253.023438 368.628906 244.820312 368.628906 C 236.207031 368.628906 235.890625 359.015625 235.882812 357.929688 C 235.882812 357.863281 235.84375 357.808594 235.84375 357.738281 C 235.878906 357.222656 235.882812 356.898438 235.882812 356.835938 L 235.882812 319.832031 C 241.191406 317.429688 246.316406 314.964844 250.902344 312.53125 C 252.382812 313.914062 253.257812 315.820312 253.257812 317.90625 Z M 253.257812 317.90625 " fill-opacity="1" fill-rule="nonzero"/><path fill="currentColor" d="M 172.957031 61.707031 C 171.316406 61.707031 169.988281 63.039062 169.988281 64.675781 C 169.988281 66.3125 171.316406 67.644531 172.957031 67.644531 L 195.570312 67.644531 L 195.570312 102.882812 L 172.957031 102.882812 C 171.316406 102.882812 169.988281 104.210938 169.988281 105.851562 C 169.988281 107.488281 171.316406 108.816406 172.957031 108.816406 L 195.570312 108.816406 L 195.570312 144.058594 L 172.957031 144.058594 C 171.316406 144.058594 169.988281 145.386719 169.988281 147.023438 C 169.988281 148.664062 171.316406 149.992188 172.957031 149.992188 L 195.570312 149.992188 L 195.570312 176.820312 C 195.570312 178.457031 196.894531 179.785156 198.539062 179.785156 C 200.179688 179.785156 201.503906 178.457031 201.503906 176.820312 L 201.503906 149.992188 L 224.140625 149.992188 C 225.78125 149.992188 227.109375 148.664062 227.109375 147.023438 C 227.109375 145.386719 225.78125 144.058594 224.140625 144.058594 L 201.503906 144.058594 L 201.503906 108.816406 L 224.140625 108.816406 C 225.78125 108.816406 227.109375 107.488281 227.109375 105.851562 C 227.109375 104.210938 225.78125 102.882812 224.140625 102.882812 L 201.503906 102.882812 L 201.503906 67.644531 L 224.140625 67.644531 C 225.78125 67.644531 227.109375 66.3125 227.109375 64.675781 C 227.109375 63.039062 225.78125 61.707031 224.140625 61.707031 L 201.503906 61.707031 L 201.503906 38.894531 C 201.503906 37.257812 200.179688 35.929688 198.539062 35.929688 C 196.894531 35.929688 195.570312 37.257812 195.570312 38.894531 L 195.570312 61.707031 Z M 172.957031 61.707031 " fill-opacity="1" fill-rule="nonzero"/><path fill="currentColor" d="M 179.832031 57.792969 C 186.816406 57.792969 192.507812 51.445312 192.507812 43.648438 C 192.507812 35.851562 186.820312 29.507812 179.832031 29.507812 C 172.84375 29.507812 167.15625 35.847656 167.15625 43.648438 C 167.15625 51.449219 172.84375 57.792969 179.832031 57.792969 Z M 179.832031 35.441406 C 183.546875 35.441406 186.570312 39.121094 186.570312 43.648438 C 186.570312 48.175781 183.546875 51.859375 179.832031 51.859375 C 176.113281 51.859375 173.09375 48.175781 173.09375 43.648438 C 173.09375 39.121094 176.113281 35.441406 179.832031 35.441406 Z M 179.832031 35.441406 " fill-opacity="1" fill-rule="nonzero"/><path fill="currentColor" d="M 181.449219 95.472656 C 187.078125 95.472656 191.660156 90.894531 191.660156 85.261719 C 191.660156 79.636719 187.078125 75.058594 181.449219 75.058594 C 175.820312 75.058594 171.242188 79.636719 171.242188 85.261719 C 171.242188 90.890625 175.820312 95.472656 181.449219 95.472656 Z M 181.449219 80.988281 C 183.804688 80.988281 185.722656 82.90625 185.722656 85.261719 C 185.722656 87.617188 183.804688 89.535156 181.449219 89.535156 C 179.09375 89.535156 177.175781 87.617188 177.175781 85.261719 C 177.175781 82.902344 179.09375 80.988281 181.449219 80.988281 Z M 181.449219 80.988281 " fill-opacity="1" fill-rule="nonzero"/><path fill="currentColor" d="M 215.425781 73.199219 C 209.8125 73.199219 205.25 78.355469 205.25 84.695312 C 205.25 91.03125 209.8125 96.1875 215.425781 96.1875 C 221.039062 96.1875 225.601562 91.03125 225.601562 84.695312 C 225.601562 78.355469 221.039062 73.199219 215.425781 73.199219 Z M 215.425781 90.253906 C 213.128906 90.253906 211.183594 87.707031 211.183594 84.695312 C 211.183594 81.679688 213.125 79.132812 215.425781 79.132812 C 217.726562 79.132812 219.667969 81.679688 219.667969 84.695312 C 219.667969 87.707031 217.726562 90.253906 215.425781 90.253906 Z M 215.425781 90.253906 " fill-opacity="1" fill-rule="nonzero"/><path fill="currentColor" d="M 215.425781 113.761719 C 209.8125 113.761719 205.25 119.382812 205.25 126.289062 C 205.25 133.195312 209.8125 138.816406 215.425781 138.816406 C 221.039062 138.816406 225.601562 133.195312 225.601562 126.289062 C 225.601562 119.382812 221.039062 113.761719 215.425781 113.761719 Z M 215.425781 132.882812 C 213.167969 132.882812 211.183594 129.800781 211.183594 126.289062 C 211.183594 122.777344 213.167969 119.695312 215.425781 119.695312 C 217.683594 119.695312 219.667969 122.777344 219.667969 126.289062 C 219.667969 129.800781 217.683594 132.882812 215.425781 132.882812 Z M 215.425781 132.882812 " fill-opacity="1" fill-rule="nonzero"/><path fill="currentColor" d="M 182.070312 139.695312 C 187.359375 139.695312 191.660156 134.589844 191.660156 128.308594 C 191.660156 122.03125 187.359375 116.921875 182.070312 116.921875 C 176.78125 116.921875 172.480469 122.027344 172.480469 128.308594 C 172.480469 134.589844 176.78125 139.695312 182.070312 139.695312 Z M 182.070312 122.855469 C 184.050781 122.855469 185.722656 125.351562 185.722656 128.308594 C 185.722656 131.261719 184.050781 133.761719 182.070312 133.761719 C 180.085938 133.761719 178.417969 131.265625 178.417969 128.308594 C 178.417969 125.355469 180.085938 122.855469 182.070312 122.855469 Z M 182.070312 122.855469 " fill-opacity="1" fill-rule="nonzero"/><path fill="currentColor" d="M 214.011719 58.203125 C 218.84375 58.203125 222.777344 54.269531 222.777344 49.441406 C 222.777344 44.609375 218.84375 40.679688 214.011719 40.679688 C 209.183594 40.679688 205.253906 44.609375 205.253906 49.441406 C 205.253906 54.269531 209.183594 58.203125 214.011719 58.203125 Z M 214.011719 46.617188 C 215.570312 46.617188 216.839844 47.882812 216.839844 49.445312 C 216.839844 51.003906 215.570312 52.269531 214.011719 52.269531 C 212.457031 52.269531 211.1875 51.003906 211.1875 49.445312 C 211.1875 47.882812 212.453125 46.617188 214.011719 46.617188 Z M 214.011719 46.617188 " fill-opacity="1" fill-rule="nonzero"/><g clip-path="url(#75c3c2bd29)"><path fill="currentColor" d="M 336.789062 263.285156 L 332.507812 248.964844 C 334.425781 245.753906 334.921875 241.800781 333.8125 238.09375 L 314.644531 173.972656 L 315.175781 173.8125 C 316.746094 173.34375 317.636719 171.691406 317.167969 170.121094 L 304.132812 126.5 C 302.878906 122.304688 300.070312 118.851562 296.214844 116.773438 C 292.363281 114.691406 287.933594 114.238281 283.738281 115.488281 C 275.078125 118.078125 270.136719 127.222656 272.722656 135.882812 L 285.761719 179.503906 C 285.988281 180.257812 286.503906 180.894531 287.195312 181.265625 C 287.628906 181.503906 288.121094 181.621094 288.605469 181.621094 C 288.890625 181.621094 289.175781 181.582031 289.453125 181.496094 L 289.988281 181.335938 L 309.15625 245.457031 C 310.261719 249.164062 312.847656 252.195312 316.210938 253.828125 L 320.492188 268.148438 C 321.636719 271.984375 325.101562 274.484375 328.800781 274.484375 C 329.582031 274.484375 330.375 274.375 331.160156 274.140625 C 333.363281 273.480469 335.160156 271.972656 336.21875 269.886719 C 337.246094 267.851562 337.449219 265.507812 336.789062 263.285156 Z M 278.410156 134.1875 C 276.757812 128.667969 279.910156 122.828125 285.433594 121.175781 C 286.425781 120.882812 287.4375 120.734375 288.441406 120.734375 C 290.152344 120.734375 291.847656 121.160156 293.394531 121.992188 C 295.851562 123.320312 297.648438 125.523438 298.445312 128.199219 L 310.632812 168.976562 L 291.132812 174.804688 L 290.597656 174.964844 Z M 330.921875 267.203125 C 330.609375 267.824219 330.085938 268.269531 329.457031 268.457031 C 328.113281 268.875 326.628906 267.96875 326.179688 266.457031 L 321.492188 250.785156 C 321.21875 249.863281 320.515625 249.132812 319.605469 248.824219 C 317.339844 248.054688 315.5625 246.160156 314.84375 243.761719 L 295.675781 179.640625 L 308.960938 175.671875 L 328.128906 239.792969 C 328.84375 242.195312 328.394531 244.753906 326.921875 246.640625 C 326.335938 247.398438 326.144531 248.394531 326.421875 249.3125 L 331.105469 264.984375 C 331.328125 265.742188 331.261719 266.53125 330.921875 267.203125 Z M 330.921875 267.203125 " fill-opacity="1" fill-rule="nonzero"/></g><g clip-path="url(#9d3046ccb9)"><path fill="currentColor" d="M 122.007812 66.371094 C 120.488281 65.761719 118.757812 66.503906 118.148438 68.027344 L 100.691406 111.773438 L 96.761719 110.207031 C 96.039062 109.914062 95.214844 109.925781 94.492188 110.234375 C 93.765625 110.546875 93.199219 111.132812 92.90625 111.863281 L 87.773438 124.726562 L 74.75 139.019531 C 74.511719 139.285156 74.316406 139.585938 74.191406 139.917969 L 65.238281 162.355469 C 65.238281 162.355469 65.238281 162.359375 65.234375 162.359375 C 65.230469 162.359375 65.234375 162.359375 65.234375 162.359375 L 46.890625 208.332031 C 46.28125 209.851562 47.023438 211.578125 48.546875 212.183594 L 51.886719 213.515625 L 38.238281 247.707031 L 29.957031 244.410156 C 28.445312 243.800781 26.710938 244.539062 26.101562 246.066406 L 22.027344 256.277344 C 21.734375 257.007812 21.746094 257.820312 22.058594 258.546875 C 22.367188 259.269531 22.953125 259.839844 23.6875 260.128906 L 59.914062 274.578125 C 60.273438 274.722656 60.644531 274.789062 61.015625 274.789062 C 62.1875 274.789062 63.304688 274.082031 63.769531 272.921875 L 67.84375 262.710938 C 68.140625 261.980469 68.128906 261.164062 67.816406 260.441406 C 67.507812 259.71875 66.917969 259.148438 66.1875 258.855469 L 57.910156 255.554688 L 71.550781 221.363281 L 74.886719 222.695312 C 75.242188 222.835938 75.613281 222.902344 75.988281 222.902344 C 76.390625 222.902344 76.785156 222.824219 77.160156 222.664062 C 77.882812 222.355469 78.453125 221.769531 78.746094 221.035156 L 83.433594 209.289062 C 83.433594 209.289062 83.433594 209.285156 83.4375 209.285156 C 83.4375 209.285156 83.4375 209.28125 83.4375 209.28125 L 106.046875 152.625 C 106.1875 152.269531 106.257812 151.894531 106.257812 151.515625 L 106.199219 133.1875 C 106.289062 133.046875 106.386719 132.914062 106.453125 132.753906 L 111.789062 119.390625 C 112.082031 118.660156 112.070312 117.847656 111.757812 117.121094 C 111.449219 116.398438 110.863281 115.828125 110.128906 115.539062 L 106.203125 113.972656 L 123.660156 70.226562 C 124.269531 68.703125 123.527344 66.980469 122.007812 66.371094 Z M 51.296875 256.113281 C 51.003906 256.84375 51.015625 257.660156 51.328125 258.382812 C 51.636719 259.105469 52.222656 259.675781 52.957031 259.96875 L 61.234375 263.269531 L 59.359375 267.964844 L 28.644531 255.714844 L 30.519531 251.015625 L 38.796875 254.316406 C 40.304688 254.925781 42.046875 254.1875 42.652344 252.660156 L 57.398438 215.714844 L 66.039062 219.164062 Z M 97.320312 116.820312 L 101.242188 118.382812 C 101.242188 118.382812 101.242188 118.382812 101.246094 118.382812 C 101.246094 118.382812 101.246094 118.382812 101.25 118.382812 L 105.175781 119.949219 L 102.039062 127.800781 L 94.183594 124.667969 Z M 74.328125 216.082031 L 53.503906 207.773438 L 55.988281 201.539062 L 76.816406 209.847656 Z M 79.019531 204.335938 L 58.191406 196.027344 L 60.117188 191.199219 L 68.472656 194.53125 C 68.832031 194.675781 69.203125 194.742188 69.574219 194.742188 C 70.746094 194.742188 71.863281 194.035156 72.328125 192.875 C 72.9375 191.351562 72.195312 189.628906 70.671875 189.019531 L 62.316406 185.6875 L 64.882812 179.253906 L 73.234375 182.585938 C 73.597656 182.730469 73.96875 182.800781 74.335938 182.800781 C 75.511719 182.800781 76.625 182.09375 77.09375 180.929688 C 77.699219 179.410156 76.957031 177.683594 75.4375 177.078125 L 67.082031 173.746094 L 69.648438 167.3125 L 78.007812 170.644531 C 78.367188 170.789062 78.734375 170.859375 79.105469 170.859375 C 80.28125 170.859375 81.394531 170.152344 81.859375 168.988281 C 82.46875 167.46875 81.726562 165.742188 80.203125 165.136719 L 71.847656 161.804688 L 74.414062 155.367188 L 82.773438 158.699219 C 83.132812 158.84375 83.503906 158.914062 83.871094 158.914062 C 85.046875 158.914062 86.160156 158.207031 86.628906 157.042969 C 87.234375 155.523438 86.492188 153.796875 84.96875 153.191406 L 76.613281 149.859375 L 78.601562 144.875 L 86.960938 148.207031 C 87.320312 148.351562 87.691406 148.417969 88.058594 148.417969 C 89.234375 148.417969 90.347656 147.714844 90.8125 146.550781 C 91.421875 145.027344 90.679688 143.300781 89.15625 142.695312 L 82.023438 139.851562 L 91.140625 129.84375 L 100.261719 133.484375 L 100.316406 150.960938 Z M 79.019531 204.335938 " fill-opacity="1" fill-rule="nonzero"/></g></svg>
