<svg xmlns="http://www.w3.org/2000/svg" xmlns:xlink="http://www.w3.org/1999/xlink" width="500" zoomAndPan="magnify" viewBox="0 0 375 374.999991" height="500" preserveAspectRatio="xMidYMid meet" version="1.0"><defs><clipPath id="aa4242c02a"><path d="M 17.578125 46 L 288 46 L 288 375 L 17.578125 375 Z M 17.578125 46 " clip-rule="nonzero"/></clipPath><clipPath id="8d0b07935b"><path d="M 17.578125 46 L 112 46 L 112 288 L 17.578125 288 Z M 17.578125 46 " clip-rule="nonzero"/></clipPath><clipPath id="8bd870b336"><path d="M 328 117 L 357.328125 117 L 357.328125 165 L 328 165 Z M 328 117 " clip-rule="nonzero"/></clipPath></defs><g clip-path="url(#aa4242c02a)"><path fill="currentColor" d="M 269.460938 375 L 35.152344 375 C 34.574219 375 34 374.972656 33.429688 374.914062 C 32.855469 374.859375 32.289062 374.773438 31.722656 374.664062 C 31.160156 374.550781 30.601562 374.410156 30.050781 374.242188 C 29.5 374.074219 28.957031 373.882812 28.425781 373.660156 C 27.894531 373.441406 27.375 373.195312 26.867188 372.925781 C 26.359375 372.652344 25.867188 372.355469 25.386719 372.039062 C 24.910156 371.71875 24.449219 371.375 24.003906 371.011719 C 23.558594 370.644531 23.132812 370.257812 22.726562 369.851562 C 22.316406 369.445312 21.933594 369.019531 21.566406 368.574219 C 21.203125 368.128906 20.859375 367.667969 20.539062 367.1875 C 20.21875 366.710938 19.925781 366.214844 19.652344 365.707031 C 19.382812 365.199219 19.136719 364.679688 18.914062 364.148438 C 18.695312 363.617188 18.5 363.074219 18.335938 362.523438 C 18.167969 361.972656 18.027344 361.414062 17.914062 360.851562 C 17.804688 360.285156 17.71875 359.71875 17.664062 359.144531 C 17.605469 358.570312 17.578125 357.996094 17.578125 357.421875 L 17.578125 304.6875 C 17.578125 304.304688 17.617188 303.921875 17.691406 303.542969 C 17.765625 303.167969 17.875 302.800781 18.023438 302.445312 C 18.171875 302.089844 18.351562 301.753906 18.566406 301.433594 C 18.777344 301.113281 19.023438 300.816406 19.292969 300.542969 C 19.566406 300.273438 19.863281 300.03125 20.179688 299.816406 C 20.5 299.601562 20.839844 299.421875 21.195312 299.273438 C 21.550781 299.125 21.914062 299.015625 22.292969 298.941406 C 22.671875 298.867188 23.050781 298.828125 23.4375 298.828125 C 23.820312 298.828125 24.203125 298.867188 24.578125 298.941406 C 24.957031 299.015625 25.320312 299.125 25.675781 299.273438 C 26.03125 299.421875 26.371094 299.601562 26.691406 299.816406 C 27.011719 300.03125 27.304688 300.273438 27.578125 300.542969 C 27.851562 300.816406 28.09375 301.113281 28.304688 301.433594 C 28.519531 301.753906 28.699219 302.089844 28.847656 302.445312 C 28.996094 302.800781 29.105469 303.167969 29.179688 303.542969 C 29.257812 303.921875 29.292969 304.304688 29.292969 304.6875 L 29.292969 357.421875 C 29.292969 357.804688 29.332031 358.1875 29.40625 358.566406 C 29.480469 358.941406 29.59375 359.308594 29.738281 359.664062 C 29.886719 360.019531 30.066406 360.355469 30.28125 360.675781 C 30.496094 360.996094 30.738281 361.292969 31.007812 361.566406 C 31.28125 361.835938 31.578125 362.078125 31.898438 362.292969 C 32.21875 362.507812 32.554688 362.6875 32.910156 362.835938 C 33.265625 362.980469 33.632812 363.09375 34.007812 363.167969 C 34.386719 363.242188 34.765625 363.28125 35.152344 363.28125 L 269.460938 363.28125 C 269.847656 363.28125 270.226562 363.242188 270.605469 363.167969 C 270.980469 363.09375 271.347656 362.980469 271.703125 362.835938 C 272.058594 362.6875 272.394531 362.507812 272.714844 362.292969 C 273.035156 362.078125 273.332031 361.835938 273.605469 361.566406 C 273.875 361.292969 274.117188 360.996094 274.332031 360.675781 C 274.546875 360.355469 274.726562 360.019531 274.875 359.664062 C 275.019531 359.308594 275.132812 358.941406 275.207031 358.566406 C 275.28125 358.1875 275.320312 357.804688 275.320312 357.421875 L 275.320312 64.453125 C 275.320312 64.070312 275.28125 63.6875 275.207031 63.308594 C 275.132812 62.933594 275.019531 62.566406 274.875 62.210938 C 274.726562 61.855469 274.546875 61.519531 274.332031 61.199219 C 274.117188 60.878906 273.875 60.582031 273.605469 60.308594 C 273.332031 60.039062 273.035156 59.796875 272.714844 59.582031 C 272.394531 59.367188 272.058594 59.1875 271.703125 59.039062 C 271.347656 58.890625 270.980469 58.78125 270.605469 58.707031 C 270.226562 58.632812 269.847656 58.59375 269.460938 58.59375 L 199.167969 58.59375 C 198.785156 58.59375 198.402344 58.554688 198.027344 58.480469 C 197.648438 58.40625 197.28125 58.296875 196.925781 58.148438 C 196.570312 58 196.234375 57.820312 195.914062 57.605469 C 195.59375 57.390625 195.296875 57.148438 195.027344 56.878906 C 194.753906 56.605469 194.511719 56.308594 194.296875 55.988281 C 194.085938 55.667969 193.902344 55.332031 193.757812 54.976562 C 193.609375 54.621094 193.5 54.253906 193.421875 53.878906 C 193.347656 53.5 193.3125 53.117188 193.3125 52.734375 C 193.3125 52.351562 193.347656 51.96875 193.421875 51.589844 C 193.5 51.214844 193.609375 50.847656 193.757812 50.492188 C 193.902344 50.136719 194.085938 49.800781 194.296875 49.480469 C 194.511719 49.160156 194.753906 48.863281 195.027344 48.589844 C 195.296875 48.320312 195.59375 48.078125 195.914062 47.863281 C 196.234375 47.648438 196.570312 47.46875 196.925781 47.320312 C 197.28125 47.171875 197.648438 47.0625 198.027344 46.988281 C 198.402344 46.914062 198.785156 46.875 199.167969 46.875 L 269.460938 46.875 C 270.039062 46.875 270.613281 46.902344 271.183594 46.960938 C 271.757812 47.015625 272.324219 47.101562 272.890625 47.210938 C 273.453125 47.324219 274.011719 47.464844 274.5625 47.632812 C 275.113281 47.800781 275.65625 47.992188 276.1875 48.214844 C 276.71875 48.433594 277.238281 48.679688 277.746094 48.949219 C 278.253906 49.222656 278.746094 49.519531 279.226562 49.835938 C 279.703125 50.15625 280.164062 50.5 280.609375 50.863281 C 281.054688 51.230469 281.480469 51.617188 281.886719 52.023438 C 282.292969 52.429688 282.679688 52.855469 283.046875 53.300781 C 283.410156 53.746094 283.753906 54.207031 284.074219 54.6875 C 284.394531 55.164062 284.6875 55.660156 284.960938 56.167969 C 285.230469 56.675781 285.476562 57.195312 285.699219 57.726562 C 285.917969 58.257812 286.109375 58.800781 286.277344 59.351562 C 286.445312 59.902344 286.585938 60.460938 286.699219 61.023438 C 286.808594 61.589844 286.894531 62.15625 286.949219 62.730469 C 287.007812 63.304688 287.035156 63.878906 287.035156 64.453125 L 287.035156 357.421875 C 287.035156 357.996094 287.007812 358.570312 286.949219 359.144531 C 286.894531 359.71875 286.808594 360.285156 286.699219 360.851562 C 286.585938 361.414062 286.445312 361.972656 286.277344 362.523438 C 286.109375 363.074219 285.917969 363.617188 285.699219 364.148438 C 285.476562 364.679688 285.230469 365.199219 284.960938 365.707031 C 284.6875 366.214844 284.394531 366.710938 284.074219 367.1875 C 283.753906 367.667969 283.410156 368.128906 283.046875 368.574219 C 282.679688 369.019531 282.292969 369.445312 281.886719 369.851562 C 281.480469 370.257812 281.054688 370.644531 280.609375 371.011719 C 280.164062 371.375 279.703125 371.71875 279.226562 372.039062 C 278.746094 372.355469 278.253906 372.652344 277.746094 372.925781 C 277.238281 373.195312 276.71875 373.441406 276.1875 373.660156 C 275.65625 373.882812 275.113281 374.074219 274.5625 374.242188 C 274.011719 374.410156 273.453125 374.550781 272.890625 374.664062 C 272.324219 374.773438 271.757812 374.859375 271.183594 374.914062 C 270.613281 374.972656 270.039062 375 269.460938 375 Z M 269.460938 375 " fill-opacity="1" fill-rule="nonzero"/></g><g clip-path="url(#8d0b07935b)"><path fill="currentColor" d="M 23.4375 287.109375 C 23.050781 287.109375 22.671875 287.070312 22.292969 286.996094 C 21.914062 286.921875 21.550781 286.808594 21.195312 286.664062 C 20.839844 286.515625 20.5 286.335938 20.179688 286.121094 C 19.863281 285.90625 19.566406 285.664062 19.292969 285.394531 C 19.023438 285.121094 18.777344 284.824219 18.566406 284.503906 C 18.351562 284.183594 18.171875 283.847656 18.023438 283.492188 C 17.875 283.136719 17.765625 282.769531 17.691406 282.394531 C 17.617188 282.015625 17.578125 281.632812 17.578125 281.25 L 17.578125 64.453125 C 17.578125 63.878906 17.605469 63.304688 17.664062 62.730469 C 17.71875 62.15625 17.804688 61.589844 17.914062 61.023438 C 18.027344 60.460938 18.167969 59.902344 18.335938 59.351562 C 18.5 58.800781 18.695312 58.257812 18.914062 57.726562 C 19.136719 57.195312 19.382812 56.675781 19.652344 56.167969 C 19.925781 55.660156 20.21875 55.164062 20.539062 54.6875 C 20.859375 54.207031 21.203125 53.746094 21.566406 53.300781 C 21.933594 52.855469 22.316406 52.429688 22.726562 52.023438 C 23.132812 51.617188 23.558594 51.230469 24.003906 50.863281 C 24.449219 50.5 24.910156 50.15625 25.386719 49.835938 C 25.867188 49.519531 26.359375 49.222656 26.867188 48.949219 C 27.375 48.679688 27.894531 48.433594 28.425781 48.214844 C 28.957031 47.992188 29.5 47.800781 30.050781 47.632812 C 30.601562 47.464844 31.160156 47.324219 31.722656 47.210938 C 32.289062 47.101562 32.855469 47.015625 33.429688 46.960938 C 34 46.902344 34.574219 46.875 35.152344 46.875 L 105.445312 46.875 C 105.828125 46.875 106.210938 46.914062 106.585938 46.988281 C 106.964844 47.0625 107.332031 47.171875 107.6875 47.320312 C 108.042969 47.46875 108.378906 47.648438 108.699219 47.863281 C 109.019531 48.078125 109.316406 48.320312 109.585938 48.589844 C 109.859375 48.863281 110.101562 49.160156 110.316406 49.480469 C 110.527344 49.800781 110.710938 50.136719 110.855469 50.492188 C 111.003906 50.847656 111.113281 51.214844 111.191406 51.589844 C 111.265625 51.96875 111.300781 52.351562 111.300781 52.734375 C 111.300781 53.117188 111.265625 53.5 111.191406 53.878906 C 111.113281 54.253906 111.003906 54.621094 110.855469 54.976562 C 110.710938 55.332031 110.527344 55.667969 110.316406 55.988281 C 110.101562 56.308594 109.859375 56.605469 109.585938 56.878906 C 109.316406 57.148438 109.019531 57.390625 108.699219 57.605469 C 108.378906 57.820312 108.042969 58 107.6875 58.148438 C 107.332031 58.296875 106.964844 58.40625 106.585938 58.480469 C 106.210938 58.554688 105.828125 58.59375 105.445312 58.59375 L 35.152344 58.59375 C 34.765625 58.59375 34.386719 58.632812 34.007812 58.707031 C 33.632812 58.78125 33.265625 58.890625 32.910156 59.039062 C 32.554688 59.1875 32.21875 59.367188 31.898438 59.582031 C 31.578125 59.796875 31.28125 60.039062 31.007812 60.308594 C 30.738281 60.582031 30.496094 60.878906 30.28125 61.199219 C 30.066406 61.519531 29.886719 61.855469 29.738281 62.210938 C 29.59375 62.566406 29.480469 62.933594 29.40625 63.308594 C 29.332031 63.6875 29.292969 64.070312 29.292969 64.453125 L 29.292969 281.25 C 29.292969 281.632812 29.257812 282.015625 29.179688 282.394531 C 29.105469 282.769531 28.996094 283.136719 28.847656 283.492188 C 28.699219 283.847656 28.519531 284.183594 28.304688 284.503906 C 28.09375 284.824219 27.851562 285.121094 27.578125 285.394531 C 27.304688 285.664062 27.011719 285.90625 26.691406 286.121094 C 26.371094 286.335938 26.03125 286.515625 25.675781 286.664062 C 25.320312 286.808594 24.957031 286.921875 24.578125 286.996094 C 24.203125 287.070312 23.820312 287.109375 23.4375 287.109375 Z M 23.4375 287.109375 " fill-opacity="1" fill-rule="nonzero"/></g><path fill="currentColor" d="M 199.167969 82.03125 L 105.445312 82.03125 C 105.058594 82.03125 104.679688 81.992188 104.300781 81.917969 C 103.925781 81.84375 103.558594 81.734375 103.203125 81.585938 C 102.847656 81.4375 102.511719 81.257812 102.191406 81.042969 C 101.871094 80.828125 101.574219 80.585938 101.300781 80.316406 C 101.03125 80.042969 100.789062 79.746094 100.574219 79.425781 C 100.359375 79.105469 100.179688 78.769531 100.03125 78.414062 C 99.886719 78.058594 99.773438 77.691406 99.699219 77.316406 C 99.625 76.9375 99.585938 76.554688 99.585938 76.171875 L 99.585938 35.15625 C 99.585938 34.773438 99.625 34.390625 99.699219 34.011719 C 99.773438 33.636719 99.886719 33.269531 100.03125 32.914062 C 100.179688 32.558594 100.359375 32.222656 100.574219 31.902344 C 100.789062 31.582031 101.03125 31.285156 101.300781 31.011719 C 101.574219 30.742188 101.871094 30.5 102.191406 30.285156 C 102.511719 30.070312 102.847656 29.890625 103.203125 29.742188 C 103.558594 29.59375 103.925781 29.484375 104.300781 29.410156 C 104.679688 29.335938 105.058594 29.296875 105.445312 29.296875 L 199.167969 29.296875 C 199.554688 29.296875 199.933594 29.335938 200.3125 29.410156 C 200.6875 29.484375 201.054688 29.59375 201.410156 29.742188 C 201.765625 29.890625 202.101562 30.070312 202.421875 30.285156 C 202.742188 30.5 203.039062 30.742188 203.3125 31.011719 C 203.582031 31.285156 203.824219 31.582031 204.039062 31.902344 C 204.253906 32.222656 204.433594 32.558594 204.582031 32.914062 C 204.726562 33.269531 204.839844 33.636719 204.914062 34.011719 C 204.988281 34.390625 205.027344 34.773438 205.027344 35.15625 L 205.027344 76.171875 C 205.027344 76.554688 204.988281 76.9375 204.914062 77.316406 C 204.839844 77.691406 204.726562 78.058594 204.582031 78.414062 C 204.433594 78.769531 204.253906 79.105469 204.039062 79.425781 C 203.824219 79.746094 203.582031 80.042969 203.3125 80.316406 C 203.039062 80.585938 202.742188 80.828125 202.421875 81.042969 C 202.101562 81.257812 201.765625 81.4375 201.410156 81.585938 C 201.054688 81.734375 200.6875 81.84375 200.3125 81.917969 C 199.933594 81.992188 199.554688 82.03125 199.167969 82.03125 Z M 111.300781 70.3125 L 193.3125 70.3125 L 193.3125 41.015625 L 111.300781 41.015625 Z M 111.300781 70.3125 " fill-opacity="1" fill-rule="nonzero"/><path fill="currentColor" d="M 169.878906 41.015625 L 134.734375 41.015625 C 134.347656 41.015625 133.96875 40.976562 133.589844 40.902344 C 133.214844 40.828125 132.847656 40.71875 132.492188 40.570312 C 132.136719 40.421875 131.796875 40.242188 131.480469 40.027344 C 131.160156 39.8125 130.863281 39.570312 130.589844 39.300781 C 130.320312 39.027344 130.078125 38.730469 129.863281 38.410156 C 129.648438 38.089844 129.46875 37.753906 129.320312 37.398438 C 129.175781 37.042969 129.0625 36.675781 128.988281 36.300781 C 128.914062 35.921875 128.875 35.539062 128.875 35.15625 L 128.875 23.4375 C 128.875 22.667969 128.914062 21.902344 128.988281 21.140625 C 129.0625 20.375 129.175781 19.617188 129.324219 18.863281 C 129.476562 18.113281 129.660156 17.367188 129.882812 16.632812 C 130.105469 15.898438 130.367188 15.175781 130.660156 14.46875 C 130.953125 13.757812 131.28125 13.066406 131.640625 12.390625 C 132.003906 11.710938 132.398438 11.054688 132.824219 10.417969 C 133.25 9.777344 133.707031 9.164062 134.195312 8.570312 C 134.679688 7.976562 135.195312 7.40625 135.738281 6.863281 C 136.28125 6.320312 136.847656 5.808594 137.441406 5.320312 C 138.035156 4.832031 138.652344 4.375 139.289062 3.949219 C 139.925781 3.523438 140.585938 3.128906 141.261719 2.765625 C 141.9375 2.40625 142.632812 2.078125 143.339844 1.785156 C 144.050781 1.492188 144.769531 1.230469 145.503906 1.007812 C 146.238281 0.785156 146.984375 0.601562 147.734375 0.449219 C 148.488281 0.300781 149.246094 0.1875 150.011719 0.113281 C 150.773438 0.0390625 151.539062 0 152.304688 0 C 153.074219 0 153.839844 0.0390625 154.601562 0.113281 C 155.367188 0.1875 156.125 0.300781 156.878906 0.449219 C 157.628906 0.601562 158.375 0.785156 159.109375 1.007812 C 159.84375 1.230469 160.5625 1.492188 161.273438 1.785156 C 161.980469 2.078125 162.675781 2.40625 163.351562 2.765625 C 164.027344 3.128906 164.6875 3.523438 165.324219 3.949219 C 165.960938 4.375 166.578125 4.832031 167.171875 5.320312 C 167.765625 5.808594 168.332031 6.320312 168.875 6.863281 C 169.417969 7.40625 169.933594 7.976562 170.417969 8.570312 C 170.90625 9.164062 171.363281 9.777344 171.789062 10.417969 C 172.214844 11.054688 172.609375 11.710938 172.972656 12.390625 C 173.332031 13.066406 173.660156 13.757812 173.953125 14.46875 C 174.246094 15.175781 174.507812 15.898438 174.730469 16.632812 C 174.953125 17.367188 175.136719 18.113281 175.289062 18.863281 C 175.4375 19.617188 175.550781 20.375 175.625 21.140625 C 175.699219 21.902344 175.738281 22.667969 175.738281 23.4375 L 175.738281 35.15625 C 175.738281 35.539062 175.699219 35.921875 175.625 36.300781 C 175.550781 36.675781 175.4375 37.042969 175.292969 37.398438 C 175.144531 37.753906 174.964844 38.089844 174.75 38.410156 C 174.535156 38.730469 174.292969 39.027344 174.023438 39.300781 C 173.75 39.570312 173.453125 39.8125 173.132812 40.027344 C 172.8125 40.242188 172.476562 40.421875 172.121094 40.570312 C 171.765625 40.71875 171.398438 40.828125 171.023438 40.902344 C 170.644531 40.976562 170.265625 41.015625 169.878906 41.015625 Z M 140.589844 29.296875 L 164.023438 29.296875 L 164.023438 23.4375 C 164.023438 22.667969 163.945312 21.90625 163.796875 21.152344 C 163.648438 20.398438 163.425781 19.664062 163.128906 18.953125 C 162.835938 18.242188 162.476562 17.566406 162.046875 16.925781 C 161.621094 16.289062 161.132812 15.695312 160.589844 15.152344 C 160.046875 14.605469 159.453125 14.121094 158.816406 13.695312 C 158.175781 13.265625 157.5 12.90625 156.789062 12.609375 C 156.078125 12.316406 155.347656 12.09375 154.59375 11.945312 C 153.835938 11.792969 153.074219 11.71875 152.304688 11.71875 C 151.539062 11.71875 150.777344 11.792969 150.019531 11.945312 C 149.265625 12.09375 148.535156 12.316406 147.824219 12.609375 C 147.113281 12.90625 146.4375 13.265625 145.796875 13.695312 C 145.15625 14.121094 144.566406 14.605469 144.023438 15.152344 C 143.476562 15.695312 142.992188 16.289062 142.566406 16.925781 C 142.136719 17.566406 141.777344 18.242188 141.484375 18.953125 C 141.1875 19.664062 140.964844 20.398438 140.816406 21.152344 C 140.667969 21.90625 140.589844 22.667969 140.589844 23.4375 Z M 140.589844 29.296875 " fill-opacity="1" fill-rule="nonzero"/><path fill="currentColor" d="M 222.601562 351.5625 L 46.867188 351.5625 C 46.480469 351.5625 46.101562 351.523438 45.722656 351.449219 C 45.347656 351.375 44.980469 351.261719 44.625 351.117188 C 44.269531 350.96875 43.933594 350.789062 43.613281 350.574219 C 43.292969 350.359375 42.996094 350.117188 42.726562 349.847656 C 42.453125 349.574219 42.210938 349.277344 41.996094 348.957031 C 41.78125 348.636719 41.601562 348.300781 41.453125 347.945312 C 41.308594 347.589844 41.195312 347.222656 41.121094 346.847656 C 41.046875 346.46875 41.007812 346.085938 41.007812 345.703125 L 41.007812 76.171875 C 41.007812 75.789062 41.046875 75.40625 41.121094 75.027344 C 41.195312 74.652344 41.308594 74.285156 41.453125 73.929688 C 41.601562 73.574219 41.78125 73.238281 41.996094 72.917969 C 42.210938 72.597656 42.453125 72.300781 42.726562 72.027344 C 42.996094 71.757812 43.292969 71.515625 43.613281 71.300781 C 43.933594 71.085938 44.269531 70.90625 44.625 70.757812 C 44.980469 70.609375 45.347656 70.5 45.722656 70.425781 C 46.101562 70.351562 46.480469 70.3125 46.867188 70.3125 L 257.746094 70.3125 C 258.128906 70.3125 258.511719 70.351562 258.890625 70.425781 C 259.265625 70.5 259.632812 70.609375 259.988281 70.757812 C 260.34375 70.90625 260.679688 71.085938 261 71.300781 C 261.320312 71.515625 261.617188 71.757812 261.886719 72.027344 C 262.160156 72.300781 262.402344 72.597656 262.617188 72.917969 C 262.832031 73.238281 263.011719 73.574219 263.15625 73.929688 C 263.304688 74.285156 263.417969 74.652344 263.492188 75.027344 C 263.566406 75.40625 263.605469 75.789062 263.605469 76.171875 L 263.605469 117.1875 C 263.605469 117.570312 263.566406 117.953125 263.492188 118.332031 C 263.417969 118.707031 263.304688 119.074219 263.15625 119.429688 C 263.011719 119.785156 262.832031 120.121094 262.617188 120.441406 C 262.402344 120.761719 262.160156 121.058594 261.886719 121.332031 C 261.617188 121.601562 261.320312 121.84375 261 122.058594 C 260.679688 122.273438 260.34375 122.453125 259.988281 122.601562 C 259.632812 122.75 259.265625 122.859375 258.890625 122.933594 C 258.511719 123.007812 258.128906 123.046875 257.746094 123.046875 C 257.363281 123.046875 256.980469 123.007812 256.601562 122.933594 C 256.226562 122.859375 255.859375 122.75 255.503906 122.601562 C 255.148438 122.453125 254.8125 122.273438 254.492188 122.058594 C 254.171875 121.84375 253.875 121.601562 253.605469 121.332031 C 253.332031 121.058594 253.089844 120.761719 252.875 120.441406 C 252.660156 120.121094 252.480469 119.785156 252.335938 119.429688 C 252.1875 119.074219 252.074219 118.707031 252 118.332031 C 251.925781 117.953125 251.886719 117.570312 251.886719 117.1875 L 251.886719 82.03125 L 52.726562 82.03125 L 52.726562 339.84375 L 220.175781 339.84375 L 251.886719 308.121094 L 251.886719 140.625 C 251.886719 140.242188 251.925781 139.859375 252 139.480469 C 252.074219 139.105469 252.1875 138.738281 252.335938 138.382812 C 252.480469 138.027344 252.660156 137.691406 252.875 137.371094 C 253.089844 137.050781 253.332031 136.753906 253.605469 136.480469 C 253.875 136.210938 254.171875 135.96875 254.492188 135.753906 C 254.8125 135.539062 255.148438 135.359375 255.503906 135.210938 C 255.859375 135.0625 256.226562 134.953125 256.601562 134.878906 C 256.980469 134.804688 257.363281 134.765625 257.746094 134.765625 C 258.128906 134.765625 258.511719 134.804688 258.890625 134.878906 C 259.265625 134.953125 259.632812 135.0625 259.988281 135.210938 C 260.34375 135.359375 260.679688 135.539062 261 135.753906 C 261.320312 135.96875 261.617188 136.210938 261.886719 136.480469 C 262.160156 136.753906 262.402344 137.050781 262.617188 137.371094 C 262.832031 137.691406 263.011719 138.027344 263.15625 138.382812 C 263.304688 138.738281 263.417969 139.105469 263.492188 139.480469 C 263.566406 139.859375 263.605469 140.242188 263.605469 140.625 L 263.605469 310.546875 C 263.605469 311.324219 263.453125 312.070312 263.15625 312.789062 C 262.859375 313.507812 262.4375 314.140625 261.886719 314.6875 L 226.742188 349.84375 C 226.191406 350.394531 225.558594 350.820312 224.839844 351.117188 C 224.125 351.414062 223.375 351.5625 222.601562 351.5625 Z M 222.601562 351.5625 " fill-opacity="1" fill-rule="nonzero"/><path fill="currentColor" d="M 222.601562 351.5625 L 205.097656 351.5625 C 204.710938 351.5625 204.332031 351.523438 203.953125 351.449219 C 203.578125 351.375 203.210938 351.261719 202.855469 351.117188 C 202.5 350.96875 202.160156 350.789062 201.84375 350.574219 C 201.523438 350.359375 201.226562 350.117188 200.953125 349.847656 C 200.683594 349.574219 200.441406 349.277344 200.226562 348.957031 C 200.011719 348.636719 199.832031 348.300781 199.683594 347.945312 C 199.539062 347.589844 199.425781 347.222656 199.351562 346.847656 C 199.277344 346.46875 199.238281 346.085938 199.238281 345.703125 L 199.167969 292.96875 C 199.167969 292.585938 199.207031 292.203125 199.28125 291.824219 C 199.355469 291.449219 199.46875 291.082031 199.613281 290.726562 C 199.761719 290.371094 199.941406 290.035156 200.15625 289.714844 C 200.371094 289.394531 200.613281 289.097656 200.882812 288.824219 C 201.15625 288.554688 201.453125 288.3125 201.773438 288.097656 C 202.089844 287.882812 202.429688 287.703125 202.785156 287.554688 C 203.140625 287.40625 203.507812 287.296875 203.882812 287.222656 C 204.261719 287.148438 204.640625 287.109375 205.027344 287.109375 L 257.746094 287.109375 C 258.128906 287.109375 258.511719 287.148438 258.890625 287.222656 C 259.265625 287.296875 259.632812 287.40625 259.988281 287.554688 C 260.34375 287.703125 260.679688 287.882812 261 288.097656 C 261.320312 288.3125 261.617188 288.554688 261.886719 288.824219 C 262.160156 289.097656 262.402344 289.394531 262.617188 289.714844 C 262.832031 290.035156 263.011719 290.371094 263.15625 290.726562 C 263.304688 291.082031 263.417969 291.449219 263.492188 291.824219 C 263.566406 292.203125 263.605469 292.585938 263.605469 292.96875 L 263.605469 310.546875 C 263.605469 311.324219 263.453125 312.070312 263.15625 312.789062 C 262.859375 313.507812 262.4375 314.140625 261.886719 314.6875 L 226.742188 349.84375 C 226.191406 350.394531 225.558594 350.820312 224.839844 351.117188 C 224.125 351.414062 223.375 351.5625 222.601562 351.5625 Z M 210.941406 339.84375 L 220.175781 339.84375 L 251.886719 308.121094 L 251.886719 298.828125 L 210.882812 298.828125 Z M 210.941406 339.84375 " fill-opacity="1" fill-rule="nonzero"/><path fill="currentColor" d="M 228.457031 234.375 L 76.15625 234.375 C 75.769531 234.375 75.390625 234.335938 75.011719 234.261719 C 74.636719 234.1875 74.269531 234.074219 73.914062 233.929688 C 73.558594 233.78125 73.222656 233.601562 72.902344 233.386719 C 72.582031 233.171875 72.285156 232.929688 72.011719 232.660156 C 71.742188 232.386719 71.5 232.089844 71.285156 231.769531 C 71.070312 231.449219 70.890625 231.113281 70.742188 230.757812 C 70.597656 230.402344 70.484375 230.035156 70.410156 229.660156 C 70.335938 229.28125 70.296875 228.898438 70.296875 228.515625 C 70.296875 228.132812 70.335938 227.75 70.410156 227.371094 C 70.484375 226.996094 70.597656 226.628906 70.742188 226.273438 C 70.890625 225.917969 71.070312 225.582031 71.285156 225.261719 C 71.5 224.941406 71.742188 224.644531 72.011719 224.371094 C 72.285156 224.101562 72.582031 223.859375 72.902344 223.644531 C 73.222656 223.429688 73.558594 223.25 73.914062 223.101562 C 74.269531 222.953125 74.636719 222.84375 75.011719 222.769531 C 75.390625 222.695312 75.769531 222.65625 76.15625 222.65625 L 228.457031 222.65625 C 228.84375 222.65625 229.222656 222.695312 229.601562 222.769531 C 229.976562 222.84375 230.34375 222.953125 230.699219 223.101562 C 231.054688 223.25 231.390625 223.429688 231.710938 223.644531 C 232.03125 223.859375 232.328125 224.101562 232.597656 224.371094 C 232.871094 224.644531 233.113281 224.941406 233.328125 225.261719 C 233.542969 225.582031 233.722656 225.917969 233.871094 226.273438 C 234.015625 226.628906 234.128906 226.996094 234.203125 227.371094 C 234.277344 227.75 234.316406 228.132812 234.316406 228.515625 C 234.316406 228.898438 234.277344 229.28125 234.203125 229.660156 C 234.128906 230.035156 234.015625 230.402344 233.871094 230.757812 C 233.722656 231.113281 233.542969 231.449219 233.328125 231.769531 C 233.113281 232.089844 232.871094 232.386719 232.597656 232.660156 C 232.328125 232.929688 232.03125 233.171875 231.710938 233.386719 C 231.390625 233.601562 231.054688 233.78125 230.699219 233.929688 C 230.34375 234.074219 229.976562 234.1875 229.601562 234.261719 C 229.222656 234.335938 228.84375 234.375 228.457031 234.375 Z M 228.457031 234.375 " fill-opacity="1" fill-rule="nonzero"/><path fill="currentColor" d="M 205.027344 263.671875 L 76.15625 263.671875 C 75.769531 263.671875 75.390625 263.632812 75.011719 263.558594 C 74.636719 263.484375 74.269531 263.375 73.914062 263.226562 C 73.558594 263.078125 73.222656 262.898438 72.902344 262.683594 C 72.582031 262.46875 72.285156 262.226562 72.011719 261.957031 C 71.742188 261.683594 71.5 261.386719 71.285156 261.066406 C 71.070312 260.746094 70.890625 260.410156 70.742188 260.054688 C 70.597656 259.699219 70.484375 259.332031 70.410156 258.957031 C 70.335938 258.578125 70.296875 258.195312 70.296875 257.8125 C 70.296875 257.429688 70.335938 257.046875 70.410156 256.667969 C 70.484375 256.292969 70.597656 255.925781 70.742188 255.570312 C 70.890625 255.214844 71.070312 254.878906 71.285156 254.558594 C 71.5 254.238281 71.742188 253.941406 72.011719 253.667969 C 72.285156 253.398438 72.582031 253.15625 72.902344 252.941406 C 73.222656 252.726562 73.558594 252.546875 73.914062 252.398438 C 74.269531 252.25 74.636719 252.140625 75.011719 252.066406 C 75.390625 251.992188 75.769531 251.953125 76.15625 251.953125 L 205.027344 251.953125 C 205.410156 251.953125 205.792969 251.992188 206.167969 252.066406 C 206.546875 252.140625 206.914062 252.25 207.269531 252.398438 C 207.625 252.546875 207.960938 252.726562 208.28125 252.941406 C 208.601562 253.15625 208.894531 253.398438 209.167969 253.667969 C 209.441406 253.941406 209.683594 254.238281 209.898438 254.558594 C 210.109375 254.878906 210.292969 255.214844 210.4375 255.570312 C 210.585938 255.925781 210.695312 256.292969 210.773438 256.667969 C 210.847656 257.046875 210.882812 257.429688 210.882812 257.8125 C 210.882812 258.195312 210.847656 258.578125 210.773438 258.957031 C 210.695312 259.332031 210.585938 259.699219 210.4375 260.054688 C 210.292969 260.410156 210.109375 260.746094 209.898438 261.066406 C 209.683594 261.386719 209.441406 261.683594 209.167969 261.957031 C 208.894531 262.226562 208.601562 262.46875 208.28125 262.683594 C 207.960938 262.898438 207.625 263.078125 207.269531 263.226562 C 206.914062 263.371094 206.546875 263.484375 206.167969 263.558594 C 205.792969 263.632812 205.410156 263.671875 205.027344 263.671875 Z M 205.027344 263.671875 " fill-opacity="1" fill-rule="nonzero"/><path fill="currentColor" d="M 228.457031 263.671875 C 228.21875 263.675781 227.976562 263.660156 227.738281 263.632812 C 227.5 263.605469 227.265625 263.566406 227.03125 263.507812 C 226.796875 263.453125 226.566406 263.382812 226.34375 263.296875 C 226.117188 263.210938 225.902344 263.113281 225.6875 263 C 225.476562 262.886719 225.269531 262.761719 225.074219 262.625 C 224.878906 262.488281 224.691406 262.335938 224.511719 262.175781 C 224.332031 262.015625 224.164062 261.84375 224.007812 261.660156 C 223.851562 261.480469 223.707031 261.289062 223.574219 261.089844 C 223.441406 260.890625 223.320312 260.683594 223.210938 260.464844 C 223.105469 260.25 223.011719 260.03125 222.929688 259.804688 C 222.851562 259.578125 222.785156 259.347656 222.734375 259.113281 C 222.683594 258.878906 222.644531 258.640625 222.625 258.402344 C 222.601562 258.164062 222.59375 257.921875 222.601562 257.683594 C 222.609375 257.441406 222.632812 257.203125 222.671875 256.964844 C 222.707031 256.730469 222.761719 256.496094 222.828125 256.261719 C 222.894531 256.03125 222.972656 255.808594 223.066406 255.585938 C 223.355469 254.863281 223.765625 254.21875 224.296875 253.652344 C 224.871094 253.132812 225.515625 252.722656 226.230469 252.421875 C 226.765625 252.199219 227.320312 252.054688 227.894531 251.996094 C 228.46875 251.933594 229.042969 251.960938 229.609375 252.070312 C 230.179688 252.179688 230.71875 252.367188 231.230469 252.636719 C 231.742188 252.90625 232.203125 253.246094 232.617188 253.652344 C 233.152344 254.214844 233.566406 254.855469 233.859375 255.570312 C 234.152344 256.289062 234.304688 257.035156 234.316406 257.8125 C 234.320312 258.199219 234.285156 258.582031 234.210938 258.960938 C 234.140625 259.339844 234.03125 259.707031 233.886719 260.0625 C 233.738281 260.421875 233.558594 260.761719 233.347656 261.082031 C 233.132812 261.402344 232.890625 261.699219 232.617188 261.972656 C 232.34375 262.246094 232.046875 262.488281 231.726562 262.703125 C 231.40625 262.917969 231.066406 263.097656 230.707031 263.242188 C 230.351562 263.386719 229.984375 263.496094 229.605469 263.570312 C 229.226562 263.640625 228.84375 263.675781 228.457031 263.671875 Z M 228.457031 263.671875 " fill-opacity="1" fill-rule="nonzero"/><path fill="currentColor" d="M 187.453125 105.46875 L 117.160156 105.46875 C 116.773438 105.46875 116.394531 105.429688 116.015625 105.355469 C 115.640625 105.28125 115.273438 105.171875 114.917969 105.023438 C 114.5625 104.875 114.226562 104.695312 113.90625 104.480469 C 113.585938 104.265625 113.289062 104.023438 113.019531 103.753906 C 112.746094 103.480469 112.503906 103.183594 112.289062 102.863281 C 112.074219 102.542969 111.894531 102.207031 111.75 101.851562 C 111.601562 101.496094 111.488281 101.128906 111.414062 100.753906 C 111.339844 100.375 111.300781 99.992188 111.300781 99.609375 L 111.300781 76.171875 C 111.300781 75.789062 111.339844 75.40625 111.414062 75.027344 C 111.488281 74.652344 111.601562 74.285156 111.75 73.929688 C 111.894531 73.574219 112.074219 73.238281 112.289062 72.917969 C 112.503906 72.597656 112.746094 72.300781 113.019531 72.027344 C 113.289062 71.757812 113.585938 71.515625 113.90625 71.300781 C 114.226562 71.085938 114.5625 70.90625 114.917969 70.757812 C 115.273438 70.609375 115.640625 70.5 116.015625 70.425781 C 116.394531 70.351562 116.777344 70.3125 117.160156 70.3125 L 187.453125 70.3125 C 187.835938 70.3125 188.21875 70.351562 188.597656 70.425781 C 188.972656 70.5 189.339844 70.609375 189.695312 70.757812 C 190.050781 70.90625 190.386719 71.085938 190.707031 71.300781 C 191.027344 71.515625 191.324219 71.757812 191.59375 72.027344 C 191.867188 72.300781 192.109375 72.597656 192.324219 72.917969 C 192.539062 73.238281 192.71875 73.574219 192.863281 73.929688 C 193.011719 74.285156 193.125 74.652344 193.199219 75.027344 C 193.273438 75.40625 193.3125 75.789062 193.3125 76.171875 L 193.3125 99.609375 C 193.3125 99.992188 193.273438 100.375 193.199219 100.753906 C 193.125 101.128906 193.011719 101.496094 192.863281 101.851562 C 192.71875 102.207031 192.539062 102.542969 192.324219 102.863281 C 192.109375 103.183594 191.867188 103.480469 191.59375 103.753906 C 191.324219 104.023438 191.027344 104.265625 190.707031 104.480469 C 190.386719 104.695312 190.050781 104.875 189.695312 105.023438 C 189.339844 105.171875 188.972656 105.28125 188.597656 105.355469 C 188.21875 105.429688 187.835938 105.46875 187.453125 105.46875 Z M 123.019531 93.75 L 181.59375 93.75 L 181.59375 82.03125 L 123.019531 82.03125 Z M 123.019531 93.75 " fill-opacity="1" fill-rule="nonzero"/><path fill="currentColor" d="M 164.023438 205.078125 L 140.589844 205.078125 C 140.207031 205.078125 139.824219 205.039062 139.449219 204.964844 C 139.070312 204.890625 138.703125 204.777344 138.347656 204.632812 C 137.992188 204.484375 137.65625 204.304688 137.335938 204.089844 C 137.015625 203.875 136.722656 203.632812 136.449219 203.363281 C 136.175781 203.089844 135.933594 202.792969 135.71875 202.472656 C 135.507812 202.152344 135.328125 201.816406 135.179688 201.460938 C 135.03125 201.105469 134.921875 200.738281 134.847656 200.363281 C 134.769531 199.984375 134.734375 199.601562 134.734375 199.21875 L 134.734375 181.640625 L 117.160156 181.640625 C 116.773438 181.640625 116.394531 181.601562 116.015625 181.527344 C 115.640625 181.453125 115.273438 181.34375 114.917969 181.195312 C 114.5625 181.046875 114.226562 180.867188 113.90625 180.652344 C 113.585938 180.4375 113.289062 180.195312 113.019531 179.925781 C 112.746094 179.652344 112.503906 179.355469 112.289062 179.035156 C 112.074219 178.714844 111.894531 178.378906 111.75 178.023438 C 111.601562 177.667969 111.488281 177.300781 111.414062 176.925781 C 111.339844 176.546875 111.300781 176.164062 111.300781 175.78125 L 111.300781 152.34375 C 111.300781 151.960938 111.339844 151.578125 111.414062 151.199219 C 111.488281 150.824219 111.601562 150.457031 111.75 150.101562 C 111.894531 149.746094 112.074219 149.410156 112.289062 149.089844 C 112.503906 148.769531 112.746094 148.472656 113.019531 148.199219 C 113.289062 147.929688 113.585938 147.6875 113.90625 147.472656 C 114.226562 147.257812 114.5625 147.078125 114.917969 146.929688 C 115.273438 146.78125 115.640625 146.671875 116.015625 146.597656 C 116.394531 146.523438 116.777344 146.484375 117.160156 146.484375 L 134.734375 146.484375 L 134.734375 128.90625 C 134.734375 128.523438 134.769531 128.140625 134.847656 127.761719 C 134.921875 127.386719 135.03125 127.019531 135.179688 126.664062 C 135.328125 126.308594 135.507812 125.972656 135.71875 125.652344 C 135.933594 125.332031 136.175781 125.035156 136.449219 124.761719 C 136.722656 124.492188 137.015625 124.25 137.335938 124.035156 C 137.65625 123.820312 137.992188 123.640625 138.347656 123.492188 C 138.703125 123.34375 139.070312 123.234375 139.449219 123.160156 C 139.824219 123.085938 140.207031 123.046875 140.589844 123.046875 L 164.023438 123.046875 C 164.40625 123.046875 164.789062 123.085938 165.164062 123.160156 C 165.542969 123.234375 165.910156 123.34375 166.265625 123.492188 C 166.617188 123.640625 166.957031 123.820312 167.277344 124.035156 C 167.597656 124.25 167.890625 124.492188 168.164062 124.761719 C 168.4375 125.035156 168.679688 125.332031 168.894531 125.652344 C 169.105469 125.972656 169.285156 126.308594 169.433594 126.664062 C 169.582031 127.019531 169.691406 127.386719 169.765625 127.761719 C 169.84375 128.140625 169.878906 128.523438 169.878906 128.90625 L 169.878906 146.484375 L 187.453125 146.484375 C 187.835938 146.484375 188.21875 146.523438 188.597656 146.597656 C 188.972656 146.671875 189.339844 146.78125 189.695312 146.929688 C 190.050781 147.078125 190.386719 147.257812 190.707031 147.472656 C 191.027344 147.6875 191.324219 147.929688 191.59375 148.199219 C 191.867188 148.472656 192.109375 148.769531 192.324219 149.089844 C 192.539062 149.410156 192.71875 149.746094 192.863281 150.101562 C 193.011719 150.457031 193.125 150.824219 193.199219 151.199219 C 193.273438 151.578125 193.3125 151.960938 193.3125 152.34375 L 193.3125 175.78125 C 193.3125 176.164062 193.273438 176.546875 193.199219 176.925781 C 193.125 177.300781 193.011719 177.667969 192.863281 178.023438 C 192.71875 178.378906 192.539062 178.714844 192.324219 179.035156 C 192.109375 179.355469 191.867188 179.652344 191.59375 179.925781 C 191.324219 180.195312 191.027344 180.4375 190.707031 180.652344 C 190.386719 180.867188 190.050781 181.046875 189.695312 181.195312 C 189.339844 181.34375 188.972656 181.453125 188.597656 181.527344 C 188.21875 181.601562 187.835938 181.640625 187.453125 181.640625 L 169.878906 181.640625 L 169.878906 199.21875 C 169.878906 199.601562 169.84375 199.984375 169.765625 200.363281 C 169.691406 200.738281 169.582031 201.105469 169.433594 201.460938 C 169.285156 201.816406 169.105469 202.152344 168.894531 202.472656 C 168.679688 202.792969 168.4375 203.089844 168.164062 203.363281 C 167.890625 203.632812 167.597656 203.875 167.277344 204.089844 C 166.957031 204.304688 166.617188 204.484375 166.265625 204.632812 C 165.910156 204.777344 165.542969 204.890625 165.164062 204.964844 C 164.789062 205.039062 164.40625 205.078125 164.023438 205.078125 Z M 146.449219 193.359375 L 158.164062 193.359375 L 158.164062 175.78125 C 158.164062 175.398438 158.203125 175.015625 158.277344 174.636719 C 158.351562 174.261719 158.464844 173.894531 158.609375 173.539062 C 158.757812 173.183594 158.9375 172.847656 159.152344 172.527344 C 159.363281 172.207031 159.609375 171.910156 159.878906 171.636719 C 160.152344 171.367188 160.449219 171.125 160.769531 170.910156 C 161.085938 170.695312 161.425781 170.515625 161.78125 170.367188 C 162.136719 170.21875 162.503906 170.109375 162.878906 170.035156 C 163.257812 169.960938 163.636719 169.921875 164.023438 169.921875 L 181.59375 169.921875 L 181.59375 158.203125 L 164.023438 158.203125 C 163.636719 158.203125 163.257812 158.164062 162.878906 158.089844 C 162.503906 158.015625 162.136719 157.90625 161.78125 157.757812 C 161.425781 157.609375 161.085938 157.429688 160.769531 157.214844 C 160.449219 157 160.152344 156.757812 159.878906 156.488281 C 159.609375 156.214844 159.363281 155.917969 159.152344 155.597656 C 158.9375 155.277344 158.757812 154.941406 158.609375 154.585938 C 158.464844 154.230469 158.351562 153.863281 158.277344 153.488281 C 158.203125 153.109375 158.164062 152.726562 158.164062 152.34375 L 158.164062 134.765625 L 146.449219 134.765625 L 146.449219 152.34375 C 146.449219 152.726562 146.410156 153.109375 146.335938 153.488281 C 146.261719 153.863281 146.148438 154.230469 146.003906 154.585938 C 145.855469 154.941406 145.675781 155.277344 145.460938 155.597656 C 145.246094 155.917969 145.003906 156.214844 144.734375 156.488281 C 144.460938 156.757812 144.164062 157 143.84375 157.214844 C 143.527344 157.429688 143.1875 157.609375 142.832031 157.757812 C 142.476562 157.90625 142.109375 158.015625 141.734375 158.089844 C 141.355469 158.164062 140.976562 158.203125 140.589844 158.203125 L 123.019531 158.203125 L 123.019531 169.921875 L 140.589844 169.921875 C 140.976562 169.921875 141.355469 169.960938 141.734375 170.035156 C 142.109375 170.109375 142.476562 170.21875 142.832031 170.367188 C 143.1875 170.515625 143.527344 170.695312 143.84375 170.910156 C 144.164062 171.125 144.460938 171.367188 144.734375 171.636719 C 145.003906 171.910156 145.246094 172.207031 145.460938 172.527344 C 145.675781 172.847656 145.855469 173.183594 146.003906 173.539062 C 146.148438 173.894531 146.261719 174.261719 146.335938 174.636719 C 146.410156 175.015625 146.449219 175.398438 146.449219 175.78125 Z M 146.449219 193.359375 " fill-opacity="1" fill-rule="nonzero"/><path fill="currentColor" d="M 333.898438 298.828125 L 310.464844 298.828125 C 310.082031 298.828125 309.699219 298.789062 309.324219 298.714844 C 308.945312 298.640625 308.578125 298.53125 308.222656 298.382812 C 307.867188 298.234375 307.53125 298.054688 307.210938 297.839844 C 306.890625 297.625 306.597656 297.382812 306.324219 297.113281 C 306.050781 296.839844 305.808594 296.542969 305.59375 296.222656 C 305.382812 295.902344 305.203125 295.566406 305.054688 295.210938 C 304.90625 294.855469 304.796875 294.488281 304.722656 294.113281 C 304.644531 293.734375 304.609375 293.351562 304.609375 292.96875 L 304.609375 123.046875 C 304.609375 122.664062 304.644531 122.28125 304.722656 121.902344 C 304.796875 121.527344 304.90625 121.160156 305.054688 120.804688 C 305.203125 120.449219 305.382812 120.113281 305.59375 119.792969 C 305.808594 119.472656 306.050781 119.175781 306.324219 118.902344 C 306.597656 118.632812 306.890625 118.390625 307.210938 118.175781 C 307.53125 117.960938 307.867188 117.78125 308.222656 117.632812 C 308.578125 117.484375 308.945312 117.375 309.324219 117.300781 C 309.699219 117.226562 310.082031 117.1875 310.464844 117.1875 L 333.898438 117.1875 C 334.28125 117.1875 334.664062 117.226562 335.039062 117.300781 C 335.417969 117.375 335.785156 117.484375 336.140625 117.632812 C 336.492188 117.78125 336.832031 117.960938 337.152344 118.175781 C 337.472656 118.390625 337.765625 118.632812 338.039062 118.902344 C 338.3125 119.175781 338.554688 119.472656 338.769531 119.792969 C 338.980469 120.113281 339.160156 120.449219 339.308594 120.804688 C 339.457031 121.160156 339.566406 121.527344 339.640625 121.902344 C 339.71875 122.28125 339.753906 122.664062 339.753906 123.046875 L 339.753906 292.96875 C 339.753906 293.351562 339.71875 293.734375 339.640625 294.113281 C 339.566406 294.488281 339.457031 294.855469 339.308594 295.210938 C 339.160156 295.566406 338.980469 295.902344 338.769531 296.222656 C 338.554688 296.542969 338.3125 296.839844 338.039062 297.113281 C 337.765625 297.382812 337.472656 297.625 337.152344 297.839844 C 336.832031 298.054688 336.492188 298.234375 336.140625 298.382812 C 335.785156 298.527344 335.417969 298.640625 335.039062 298.714844 C 334.664062 298.789062 334.28125 298.828125 333.898438 298.828125 Z M 316.324219 287.109375 L 328.039062 287.109375 L 328.039062 128.90625 L 316.324219 128.90625 Z M 316.324219 287.109375 " fill-opacity="1" fill-rule="nonzero"/><path fill="currentColor" d="M 333.898438 128.90625 L 310.464844 128.90625 C 310.082031 128.90625 309.699219 128.867188 309.324219 128.792969 C 308.945312 128.71875 308.578125 128.609375 308.222656 128.460938 C 307.867188 128.3125 307.53125 128.132812 307.210938 127.917969 C 306.890625 127.703125 306.597656 127.460938 306.324219 127.191406 C 306.050781 126.917969 305.808594 126.621094 305.59375 126.300781 C 305.382812 125.980469 305.203125 125.644531 305.054688 125.289062 C 304.90625 124.933594 304.796875 124.566406 304.722656 124.191406 C 304.644531 123.8125 304.609375 123.429688 304.609375 123.046875 L 304.609375 87.890625 C 304.609375 87.316406 304.636719 86.742188 304.691406 86.167969 C 304.75 85.59375 304.832031 85.027344 304.945312 84.460938 C 305.058594 83.898438 305.199219 83.339844 305.363281 82.789062 C 305.53125 82.238281 305.726562 81.695312 305.945312 81.164062 C 306.167969 80.632812 306.410156 80.113281 306.683594 79.605469 C 306.953125 79.097656 307.25 78.601562 307.570312 78.125 C 307.890625 77.644531 308.230469 77.183594 308.597656 76.738281 C 308.960938 76.292969 309.347656 75.867188 309.753906 75.460938 C 310.164062 75.054688 310.589844 74.667969 311.03125 74.300781 C 311.476562 73.9375 311.941406 73.59375 312.417969 73.273438 C 312.898438 72.957031 313.390625 72.660156 313.898438 72.386719 C 314.40625 72.117188 314.925781 71.871094 315.457031 71.652344 C 315.988281 71.429688 316.53125 71.238281 317.082031 71.070312 C 317.632812 70.902344 318.1875 70.761719 318.753906 70.648438 C 319.316406 70.539062 319.886719 70.453125 320.460938 70.398438 C 321.03125 70.339844 321.605469 70.3125 322.179688 70.3125 C 322.757812 70.3125 323.332031 70.339844 323.902344 70.398438 C 324.476562 70.453125 325.046875 70.539062 325.609375 70.648438 C 326.175781 70.761719 326.730469 70.902344 327.28125 71.070312 C 327.832031 71.238281 328.375 71.429688 328.90625 71.652344 C 329.4375 71.871094 329.957031 72.117188 330.464844 72.386719 C 330.972656 72.660156 331.464844 72.957031 331.945312 73.273438 C 332.421875 73.59375 332.886719 73.9375 333.328125 74.300781 C 333.773438 74.667969 334.199219 75.054688 334.609375 75.460938 C 335.015625 75.867188 335.402344 76.292969 335.765625 76.738281 C 336.132812 77.183594 336.472656 77.644531 336.792969 78.125 C 337.113281 78.601562 337.410156 79.097656 337.679688 79.605469 C 337.949219 80.113281 338.195312 80.632812 338.417969 81.164062 C 338.636719 81.695312 338.832031 82.238281 339 82.789062 C 339.164062 83.339844 339.304688 83.898438 339.417969 84.460938 C 339.53125 85.027344 339.613281 85.59375 339.671875 86.167969 C 339.726562 86.742188 339.753906 87.316406 339.753906 87.890625 L 339.753906 123.046875 C 339.753906 123.429688 339.71875 123.8125 339.640625 124.191406 C 339.566406 124.566406 339.457031 124.933594 339.308594 125.289062 C 339.160156 125.644531 338.980469 125.980469 338.769531 126.300781 C 338.554688 126.621094 338.3125 126.917969 338.039062 127.191406 C 337.765625 127.460938 337.472656 127.703125 337.152344 127.917969 C 336.832031 128.132812 336.492188 128.3125 336.140625 128.460938 C 335.785156 128.609375 335.417969 128.71875 335.039062 128.792969 C 334.664062 128.867188 334.28125 128.90625 333.898438 128.90625 Z M 316.324219 117.1875 L 328.039062 117.1875 L 328.039062 87.890625 C 328.039062 87.507812 328 87.125 327.925781 86.746094 C 327.851562 86.371094 327.742188 86.003906 327.59375 85.648438 C 327.445312 85.292969 327.265625 84.957031 327.050781 84.636719 C 326.839844 84.316406 326.59375 84.019531 326.324219 83.746094 C 326.050781 83.476562 325.753906 83.234375 325.4375 83.019531 C 325.117188 82.804688 324.777344 82.625 324.421875 82.476562 C 324.066406 82.328125 323.703125 82.21875 323.324219 82.144531 C 322.945312 82.070312 322.566406 82.03125 322.179688 82.03125 C 321.796875 82.03125 321.414062 82.070312 321.039062 82.144531 C 320.660156 82.21875 320.296875 82.328125 319.941406 82.476562 C 319.585938 82.625 319.246094 82.804688 318.925781 83.019531 C 318.605469 83.234375 318.3125 83.476562 318.039062 83.746094 C 317.765625 84.019531 317.523438 84.316406 317.3125 84.636719 C 317.097656 84.957031 316.917969 85.292969 316.769531 85.648438 C 316.621094 86.003906 316.511719 86.371094 316.4375 86.746094 C 316.359375 87.125 316.324219 87.507812 316.324219 87.890625 Z M 316.324219 117.1875 " fill-opacity="1" fill-rule="nonzero"/><path fill="currentColor" d="M 322.179688 363.28125 C 321.546875 363.28125 320.925781 363.179688 320.320312 362.976562 C 319.71875 362.773438 319.164062 362.480469 318.65625 362.097656 C 318.148438 361.714844 317.714844 361.257812 317.351562 360.734375 C 316.992188 360.207031 316.726562 359.640625 316.550781 359.027344 L 304.835938 318.011719 C 304.683594 317.488281 304.605469 316.953125 304.609375 316.40625 L 304.609375 292.96875 C 304.609375 292.585938 304.644531 292.203125 304.722656 291.824219 C 304.796875 291.449219 304.90625 291.082031 305.054688 290.726562 C 305.203125 290.371094 305.382812 290.035156 305.59375 289.714844 C 305.808594 289.394531 306.050781 289.097656 306.324219 288.824219 C 306.597656 288.554688 306.890625 288.3125 307.210938 288.097656 C 307.53125 287.882812 307.867188 287.703125 308.222656 287.554688 C 308.578125 287.40625 308.945312 287.296875 309.324219 287.222656 C 309.699219 287.148438 310.082031 287.109375 310.464844 287.109375 L 333.898438 287.109375 C 334.28125 287.109375 334.664062 287.148438 335.039062 287.222656 C 335.417969 287.296875 335.785156 287.40625 336.140625 287.554688 C 336.492188 287.703125 336.832031 287.882812 337.152344 288.097656 C 337.472656 288.3125 337.765625 288.554688 338.039062 288.824219 C 338.3125 289.097656 338.554688 289.394531 338.769531 289.714844 C 338.980469 290.035156 339.160156 290.371094 339.308594 290.726562 C 339.457031 291.082031 339.566406 291.449219 339.640625 291.824219 C 339.71875 292.203125 339.753906 292.585938 339.753906 292.96875 L 339.753906 316.40625 C 339.753906 316.953125 339.679688 317.488281 339.527344 318.011719 L 327.8125 359.027344 C 327.636719 359.640625 327.371094 360.207031 327.007812 360.734375 C 326.648438 361.257812 326.214844 361.714844 325.707031 362.097656 C 325.199219 362.480469 324.644531 362.773438 324.042969 362.976562 C 323.4375 363.179688 322.816406 363.28125 322.179688 363.28125 Z M 316.324219 315.585938 L 322.179688 336.09375 L 328.039062 315.585938 L 328.039062 298.828125 L 316.324219 298.828125 Z M 333.898438 316.40625 Z M 333.898438 316.40625 " fill-opacity="1" fill-rule="nonzero"/><g clip-path="url(#8bd870b336)"><path fill="currentColor" d="M 351.46875 164.0625 C 351.085938 164.0625 350.703125 164.023438 350.328125 163.949219 C 349.949219 163.875 349.585938 163.761719 349.230469 163.617188 C 348.875 163.46875 348.535156 163.289062 348.214844 163.074219 C 347.894531 162.859375 347.601562 162.617188 347.328125 162.347656 C 347.054688 162.074219 346.8125 161.777344 346.601562 161.457031 C 346.386719 161.136719 346.207031 160.800781 346.058594 160.445312 C 345.910156 160.089844 345.800781 159.722656 345.726562 159.347656 C 345.648438 158.96875 345.613281 158.585938 345.613281 158.203125 L 345.613281 128.90625 L 333.898438 128.90625 C 333.511719 128.90625 333.132812 128.867188 332.753906 128.792969 C 332.378906 128.71875 332.011719 128.609375 331.65625 128.460938 C 331.300781 128.3125 330.960938 128.132812 330.644531 127.917969 C 330.324219 127.703125 330.027344 127.460938 329.753906 127.191406 C 329.484375 126.917969 329.238281 126.621094 329.027344 126.300781 C 328.8125 125.980469 328.632812 125.644531 328.484375 125.289062 C 328.339844 124.933594 328.226562 124.566406 328.152344 124.191406 C 328.078125 123.8125 328.039062 123.429688 328.039062 123.046875 C 328.039062 122.664062 328.078125 122.28125 328.152344 121.902344 C 328.226562 121.527344 328.339844 121.160156 328.484375 120.804688 C 328.632812 120.449219 328.8125 120.113281 329.027344 119.792969 C 329.238281 119.472656 329.484375 119.175781 329.753906 118.902344 C 330.027344 118.632812 330.324219 118.390625 330.644531 118.175781 C 330.960938 117.960938 331.300781 117.78125 331.65625 117.632812 C 332.011719 117.484375 332.378906 117.375 332.753906 117.300781 C 333.132812 117.226562 333.511719 117.1875 333.898438 117.1875 L 351.46875 117.1875 C 351.855469 117.1875 352.234375 117.226562 352.613281 117.300781 C 352.992188 117.375 353.355469 117.484375 353.710938 117.632812 C 354.066406 117.78125 354.40625 117.960938 354.726562 118.175781 C 355.042969 118.390625 355.339844 118.632812 355.613281 118.902344 C 355.882812 119.175781 356.128906 119.472656 356.339844 119.792969 C 356.554688 120.113281 356.734375 120.449219 356.882812 120.804688 C 357.03125 121.160156 357.140625 121.527344 357.214844 121.902344 C 357.289062 122.28125 357.328125 122.664062 357.328125 123.046875 L 357.328125 158.203125 C 357.328125 158.585938 357.289062 158.96875 357.214844 159.347656 C 357.140625 159.722656 357.03125 160.089844 356.882812 160.445312 C 356.734375 160.800781 356.554688 161.136719 356.339844 161.457031 C 356.128906 161.777344 355.882812 162.074219 355.613281 162.347656 C 355.339844 162.617188 355.042969 162.859375 354.726562 163.074219 C 354.40625 163.289062 354.066406 163.46875 353.710938 163.617188 C 353.355469 163.761719 352.992188 163.875 352.613281 163.949219 C 352.234375 164.023438 351.855469 164.0625 351.46875 164.0625 Z M 351.46875 164.0625 " fill-opacity="1" fill-rule="nonzero"/></g></svg>
