<svg xmlns="http://www.w3.org/2000/svg" xmlns:xlink="http://www.w3.org/1999/xlink" width="500" zoomAndPan="magnify" viewBox="0 0 375 374.999991" height="500" preserveAspectRatio="xMidYMid meet" version="1.0"><defs><clipPath id="f4a900709b"><path d="M 47 200 L 375 200 L 375 355.5625 L 47 355.5625 Z M 47 200 " clip-rule="nonzero"/></clipPath></defs><path fill="currentColor" d="M 121.035156 188.1875 C 76.144531 208.597656 6.472656 264.292969 2.976562 266.917969 C 0.351562 268.957031 0.0585938 272.75 2.101562 275.082031 C 4.140625 277.707031 7.929688 278 10.261719 275.957031 C 11.136719 275.375 86.636719 215.304688 129.199219 197.519531 C 126.28125 194.601562 123.660156 191.394531 121.035156 188.1875 Z M 121.035156 188.1875 " fill-opacity="1" fill-rule="nonzero"/><g clip-path="url(#f4a900709b)"><path fill="currentColor" d="M 314.597656 225.21875 L 263.292969 202.765625 C 263.292969 202.765625 263 202.765625 263 202.476562 C 262.417969 202.183594 259.792969 201.308594 255.714844 200.144531 C 255.128906 200.726562 254.546875 201.308594 253.964844 201.890625 L 245.800781 209.472656 C 253.089844 211.808594 257.753906 213.265625 258.917969 213.554688 L 310.515625 236.007812 C 310.808594 236.300781 311.390625 236.300781 311.683594 236.300781 C 316.347656 237.175781 322.761719 241.550781 324.800781 243.296875 L 358.90625 270.125 C 361.238281 272.167969 362.695312 275.082031 362.40625 277.707031 C 362.40625 278.871094 361.824219 279.164062 361.824219 279.164062 C 361.53125 279.457031 360.074219 280.332031 355.992188 279.457031 C 352.203125 277.707031 333.835938 268.667969 316.636719 253.210938 C 316.054688 252.628906 315.472656 252.339844 314.597656 252.046875 L 303.519531 248.253906 C 298.566406 243.589844 293.027344 237.757812 290.402344 235.132812 C 288.070312 232.800781 284.574219 232.800781 282.242188 234.84375 C 279.910156 237.175781 279.910156 240.675781 281.949219 243.007812 C 283.699219 244.757812 297.980469 259.628906 303.8125 264.292969 C 311.390625 270.125 316.636719 280.621094 316.636719 280.621094 C 316.636719 280.621094 316.636719 280.914062 316.929688 280.914062 L 343.75 328.445312 C 344.332031 331.359375 344.332031 335.441406 343.75 336.023438 C 343.75 336.023438 342.875 336.316406 341.707031 336.023438 C 338.792969 335.441406 336.167969 333.691406 334.421875 330.777344 L 308.183594 287.039062 C 307.308594 285.289062 301.773438 275.082031 296.234375 270.125 C 294.484375 268.375 274.953125 249.128906 262.125 236.59375 C 259.792969 234.257812 256.296875 234.257812 253.964844 236.59375 C 251.632812 238.925781 251.632812 242.425781 253.964844 244.757812 C 257.171875 247.964844 285.738281 276.539062 288.363281 278.871094 C 291.570312 281.789062 295.941406 288.785156 297.691406 292.578125 C 297.691406 292.578125 297.691406 292.871094 297.980469 292.871094 L 302.355469 300.160156 C 302.355469 300.742188 302.644531 301.035156 302.9375 301.617188 L 321.59375 332.527344 C 322.761719 334.566406 323.050781 336.898438 322.46875 339.234375 C 322.175781 340.398438 321.300781 342.148438 318.96875 343.023438 C 318.097656 343.316406 316.929688 343.605469 315.765625 342.730469 C 312.265625 340.691406 305.851562 330.777344 299.148438 319.40625 C 293.902344 310.363281 288.652344 300.160156 284.574219 291.703125 C 284.28125 291.121094 283.988281 290.535156 283.40625 290.246094 L 246.386719 251.753906 C 244.050781 249.421875 240.554688 249.421875 238.222656 251.464844 C 235.890625 253.796875 235.890625 257.296875 237.929688 259.628906 L 274.078125 297.535156 C 276.410156 302.199219 281.949219 313.574219 288.363281 324.652344 C 289.238281 327.570312 288.945312 328.445312 288.945312 328.445312 C 288.945312 328.445312 288.652344 328.734375 288.070312 328.734375 C 285.445312 329.027344 282.824219 327.859375 280.78125 325.527344 C 277.578125 321.445312 271.164062 313.574219 259.503906 298.117188 C 236.765625 268.375 214.027344 267.210938 213.152344 267.210938 C 213.152344 267.210938 212.859375 267.210938 212.859375 267.210938 C 184.292969 267.792969 158.640625 253.503906 156.015625 252.046875 C 152.519531 249.421875 144.648438 246.214844 88.679688 303.367188 C 74.976562 317.363281 61.566406 331.066406 48.742188 344.480469 C 46.410156 346.8125 46.699219 350.605469 49.03125 352.644531 C 50.199219 353.8125 51.65625 354.394531 53.113281 354.394531 C 54.570312 354.394531 56.03125 353.8125 57.195312 352.644531 C 70.023438 339.234375 83.429688 325.527344 97.132812 311.53125 C 135.027344 273.042969 148.144531 264.875 151.644531 263.417969 C 158.640625 267.210938 184 279.457031 212.570312 279.164062 C 214.027344 279.164062 231.808594 281.496094 250.175781 305.699219 C 261.835938 321.152344 268.539062 329.320312 271.746094 333.402344 C 276.410156 338.941406 283.40625 341.855469 289.820312 340.691406 C 292.734375 340.109375 294.773438 339.234375 296.234375 338.066406 C 300.898438 345.066406 305.5625 350.894531 309.058594 353.230469 C 311.683594 354.6875 314.304688 355.5625 317.222656 355.5625 C 319.261719 355.5625 321.011719 355.269531 323.050781 354.394531 C 327.132812 352.644531 330.339844 349.730469 332.378906 345.648438 C 334.710938 346.8125 337.042969 347.6875 339.375 348.273438 C 340.542969 348.5625 341.417969 348.5625 342.292969 348.5625 C 347.246094 348.5625 350.160156 346.523438 351.910156 344.480469 C 357.449219 338.066406 355.117188 327.277344 354.535156 325.234375 C 354.535156 324.652344 354.242188 324.363281 353.953125 323.777344 L 327.425781 276.832031 C 340.542969 285.871094 351.035156 290.535156 351.621094 290.828125 C 352.203125 291.121094 352.492188 291.121094 353.078125 291.121094 C 355.117188 291.410156 356.867188 291.703125 358.617188 291.703125 C 362.695312 291.703125 366.195312 290.828125 368.820312 288.789062 C 371.734375 286.453125 373.484375 283.246094 374.066406 279.164062 C 374.941406 272.457031 371.734375 265.460938 366.195312 261.085938 L 332.089844 234.257812 C 330.921875 233.382812 322.761719 226.96875 314.597656 225.21875 Z M 314.597656 225.21875 " fill-opacity="1" fill-rule="nonzero"/></g><path fill="currentColor" d="M 2.390625 72.132812 C 0.351562 74.464844 0.644531 78.257812 2.976562 80.296875 C 4.140625 81.464844 13.46875 88.171875 69.148438 112.375 C 75.558594 126.078125 85.761719 133.367188 86.347656 133.953125 C 86.636719 133.953125 104.710938 146.78125 127.449219 177.105469 C 149.019531 205.976562 166.511719 210.058594 171.175781 210.640625 C 174.964844 211.222656 178.464844 210.058594 181.378906 208.015625 C 183.128906 210.347656 185.460938 212.097656 188.375 212.972656 C 188.375 213.265625 188.375 213.554688 188.375 213.847656 C 188.667969 219.679688 191.582031 222.886719 193.621094 224.34375 C 195.078125 225.511719 197.703125 226.679688 201.199219 226.679688 C 202.660156 226.679688 204.40625 226.386719 206.15625 226.09375 C 209.945312 225.21875 213.445312 223.179688 216.359375 220.554688 L 246.09375 193.144531 C 249.882812 189.644531 251.921875 184.398438 251.632812 179.148438 L 249.007812 131.617188 C 248.71875 126.078125 246.09375 121.414062 241.71875 118.207031 C 177.589844 72.71875 111.417969 57.554688 102.671875 55.804688 C 94.800781 51.429688 75.269531 39.476562 69.730469 31.019531 C 67.980469 28.6875 64.191406 27.8125 61.566406 29.5625 C 58.945312 31.3125 58.070312 34.808594 59.820312 37.726562 C 68.273438 50.554688 94.507812 65.136719 97.714844 66.886719 C 98.296875 67.175781 98.882812 67.46875 99.464844 67.46875 C 100.046875 67.46875 169.71875 81.757812 235.015625 128.121094 C 236.472656 128.996094 237.347656 130.742188 237.347656 132.492188 L 239.972656 180.316406 C 239.972656 182.0625 239.386719 183.8125 237.929688 184.980469 L 208.195312 212.390625 C 206.738281 213.847656 204.992188 214.722656 203.242188 215.304688 C 201.492188 215.890625 200.328125 215.597656 200.328125 215.597656 C 200.328125 215.597656 200.035156 215.015625 199.742188 213.554688 C 199.453125 210.933594 200.617188 208.015625 202.660156 205.683594 L 221.605469 183.230469 C 222.773438 182.0625 223.0625 180.316406 222.773438 178.566406 L 217.234375 143.574219 C 216.941406 141.53125 215.484375 139.785156 213.445312 138.910156 L 169.71875 121.996094 C 167.96875 121.414062 166.21875 121.414062 164.761719 122.289062 C 163.304688 123.164062 162.140625 124.621094 161.847656 126.371094 L 156.601562 156.988281 C 156.308594 158.738281 156.890625 160.777344 158.058594 161.945312 C 165.636719 169.816406 179.921875 189.0625 175.257812 197.808594 C 174.671875 198.683594 173.507812 199.269531 172.339844 198.976562 C 166.511719 198.394531 152.519531 191.394531 136.484375 169.816406 C 112.582031 138.035156 93.34375 124.621094 92.757812 124.039062 C 92.757812 124.039062 83.722656 117.332031 78.765625 105.375 C 77.890625 103.335938 77.308594 101 76.726562 98.960938 C 75.851562 95.753906 72.9375 94.003906 69.730469 94.585938 C 67.980469 95.167969 66.523438 96.335938 65.941406 97.792969 C 18.714844 77.382812 10.84375 71.550781 10.554688 71.550781 C 8.222656 69.507812 4.433594 69.800781 2.390625 72.132812 Z M 211.113281 177.105469 L 193.914062 197.519531 C 192.746094 198.683594 191.871094 200.144531 191.289062 201.308594 C 190.125 200.433594 189.539062 199.269531 189.25 197.519531 C 188.667969 194.601562 189.25 191.394531 191 188.769531 L 201.492188 171.566406 C 202.367188 170.402344 202.660156 168.941406 202.367188 167.484375 L 197.996094 144.742188 L 206.738281 147.949219 Z M 168.550781 156.113281 L 172.050781 135.410156 L 184.875 140.367188 L 190.125 167.777344 L 183.710938 178.273438 C 179.335938 168.652344 172.339844 160.195312 168.550781 156.113281 Z M 168.550781 156.113281 " fill-opacity="1" fill-rule="nonzero"/><path fill="currentColor" d="M 85.472656 250.003906 C 86.636719 250.003906 87.804688 249.714844 88.96875 248.839844 C 107.625 235.71875 129.199219 227.550781 151.644531 225.511719 C 154.851562 225.21875 157.183594 222.304688 156.890625 219.097656 C 156.601562 215.890625 153.683594 213.554688 150.476562 213.847656 C 125.992188 216.179688 102.378906 224.929688 82.265625 239.214844 C 79.640625 240.964844 79.058594 244.757812 80.808594 247.382812 C 81.972656 249.128906 83.722656 250.003906 85.472656 250.003906 Z M 85.472656 250.003906 " fill-opacity="1" fill-rule="nonzero"/><path fill="currentColor" d="M 141.734375 245.339844 L 158.640625 245.339844 C 161.847656 245.339844 164.472656 242.714844 164.472656 239.507812 C 164.472656 236.300781 161.847656 233.675781 158.640625 233.675781 L 141.734375 233.675781 C 138.527344 233.675781 135.902344 236.300781 135.902344 239.507812 C 135.902344 242.714844 138.527344 245.339844 141.734375 245.339844 Z M 141.734375 245.339844 " fill-opacity="1" fill-rule="nonzero"/><path fill="currentColor" d="M 183.710938 235.425781 C 180.503906 234.550781 177.296875 236.300781 176.421875 239.507812 C 175.546875 242.714844 177.296875 245.921875 180.503906 246.796875 L 198.285156 251.753906 C 198.867188 252.046875 199.453125 252.046875 199.742188 252.046875 C 202.367188 252.046875 204.699219 250.296875 205.28125 247.671875 C 206.15625 244.464844 204.40625 241.257812 201.199219 240.382812 Z M 183.710938 235.425781 " fill-opacity="1" fill-rule="nonzero"/></svg>
