<svg xmlns="http://www.w3.org/2000/svg" xmlns:xlink="http://www.w3.org/1999/xlink" width="500" zoomAndPan="magnify" viewBox="0 0 375 374.999991" height="500" preserveAspectRatio="xMidYMid meet" version="1.0"><path fill="currentColor" d="M 187.1875 375 C 314.265625 375 373.070312 266.699219 373.652344 265.605469 C 374.621094 263.785156 374.621094 261.589844 373.652344 259.765625 C 372.464844 257.527344 344.257812 205.464844 283.609375 173.804688 C 280.300781 151.554688 263.515625 125.703125 261.019531 121.960938 C 258.707031 118.484375 252.953125 118.484375 250.636719 121.960938 C 248.816406 124.691406 239.414062 139.191406 233.160156 155.464844 C 218.1875 152.144531 202.769531 150.375 187.1875 150.375 C 60.113281 150.375 1.304688 258.675781 0.722656 259.765625 C -0.242188 261.589844 -0.242188 263.777344 0.722656 265.605469 C 1.304688 266.699219 60.113281 375 187.1875 375 Z M 255.828125 137.246094 C 265.726562 154.300781 275.753906 178.003906 270.253906 188.292969 C 269.480469 189.714844 267.167969 194.050781 255.824219 194.050781 C 244.484375 194.050781 242.164062 189.714844 241.398438 188.292969 C 235.90625 178.027344 245.925781 154.3125 255.828125 137.246094 Z M 187.1875 162.855469 C 201.4375 162.855469 215.503906 166.441406 228.15625 173.199219 C 226.921875 180.953125 227.257812 188.316406 230.398438 194.175781 C 233.410156 199.8125 240.269531 206.53125 255.824219 206.53125 C 258.257812 206.53125 260.410156 206.320312 262.4375 206.019531 C 270.335938 219.433594 274.542969 234.609375 274.542969 250.207031 C 274.542969 298.378906 235.359375 337.5625 187.1875 337.5625 C 139.019531 337.5625 99.832031 298.378906 99.832031 250.207031 C 99.832031 202.039062 139.019531 162.855469 187.1875 162.855469 Z M 123.644531 173.273438 C 101.492188 191.597656 87.355469 219.285156 87.355469 250.207031 C 87.355469 305.253906 132.140625 350.042969 187.1875 350.042969 C 242.234375 350.042969 287.023438 305.253906 287.023438 250.207031 C 287.023438 233.144531 282.667969 216.507812 274.386719 201.671875 C 277.710938 199.410156 279.902344 196.695312 281.257812 194.175781 C 282.296875 192.230469 282.941406 190.070312 283.414062 187.835938 C 329.078125 213.601562 354.414062 251.875 360.929688 262.6875 C 350.789062 279.453125 295.089844 362.519531 187.1875 362.519531 C 79.292969 362.519531 23.59375 279.464844 13.445312 262.6875 C 21.363281 249.589844 57.046875 196.109375 123.644531 173.273438 Z M 123.644531 173.273438 " fill-opacity="1" fill-rule="nonzero"/><path fill="currentColor" d="M 280.589844 132.203125 L 275.460938 143.578125 C 336.527344 171.160156 362.308594 221.304688 362.566406 221.804688 L 373.722656 216.214844 C 372.609375 214.003906 345.875 161.6875 280.589844 132.203125 Z M 280.589844 132.203125 " fill-opacity="1" fill-rule="nonzero"/><path fill="currentColor" d="M 187.1875 125.414062 C 203.992188 125.414062 220.339844 127.125 235.769531 130.5 L 238.441406 118.308594 C 222.136719 114.746094 204.890625 112.9375 187.1875 112.9375 C 53.839844 112.9375 1.171875 215.183594 0.65625 216.222656 L 11.816406 221.804688 C 12.304688 220.839844 61.472656 125.414062 187.1875 125.414062 Z M 187.1875 125.414062 " fill-opacity="1" fill-rule="nonzero"/><path fill="currentColor" d="M 187.1875 281.40625 C 204.390625 281.40625 218.386719 267.410156 218.386719 250.207031 C 218.386719 233.003906 204.390625 219.011719 187.1875 219.011719 C 169.984375 219.011719 155.988281 233.003906 155.988281 250.207031 C 155.988281 267.410156 169.984375 281.40625 187.1875 281.40625 Z M 187.1875 231.488281 C 197.507812 231.488281 205.90625 239.886719 205.90625 250.207031 C 205.90625 260.527344 197.507812 268.925781 187.1875 268.925781 C 176.867188 268.925781 168.46875 260.527344 168.46875 250.207031 C 168.46875 239.886719 176.867188 231.488281 187.1875 231.488281 Z M 187.1875 231.488281 " fill-opacity="1" fill-rule="nonzero"/><path fill="currentColor" d="M 187.1875 325.082031 C 228.476562 325.082031 262.0625 291.496094 262.0625 250.207031 L 249.585938 250.207031 C 249.585938 284.613281 221.59375 312.605469 187.1875 312.605469 Z M 187.1875 325.082031 " fill-opacity="1" fill-rule="nonzero"/><path fill="currentColor" d="M 326.289062 2.453125 L 295.089844 33.648438 C 294.214844 34.523438 293.628906 35.628906 293.386719 36.839844 L 289.429688 56.605469 L 285.195312 52.367188 L 276.371094 61.191406 L 278.199219 63.019531 L 263.890625 77.328125 C 263.210938 78.015625 262.695312 78.851562 262.386719 79.765625 L 256.148438 98.484375 C 255.398438 100.726562 255.984375 103.203125 257.652344 104.867188 L 270.132812 117.347656 C 271.316406 118.539062 272.914062 119.175781 274.542969 119.175781 C 275.199219 119.175781 275.871094 119.070312 276.515625 118.859375 L 295.234375 112.617188 C 296.148438 112.3125 296.984375 111.792969 297.671875 111.109375 L 311.980469 96.800781 L 313.808594 98.628906 L 322.632812 89.804688 L 318.394531 85.570312 L 338.160156 81.613281 C 339.367188 81.371094 340.476562 80.777344 341.351562 79.910156 L 372.546875 48.710938 C 374.988281 46.273438 374.988281 42.328125 372.546875 39.890625 L 335.109375 2.453125 C 332.671875 0.0117188 328.726562 0.0117188 326.289062 2.453125 Z M 276.234375 105.796875 L 269.207031 98.773438 L 273.757812 85.109375 L 274.542969 84.320312 L 290.679688 100.457031 L 289.890625 101.242188 Z M 299.5 91.636719 L 283.363281 75.5 L 287.023438 71.84375 L 303.15625 87.976562 Z M 359.3125 44.300781 L 333.863281 69.753906 L 307.792969 74.96875 L 300.039062 67.214844 L 305.246094 41.144531 L 330.699219 15.6875 Z M 359.3125 44.300781 " fill-opacity="1" fill-rule="nonzero"/></svg>
