<svg xmlns="http://www.w3.org/2000/svg" xmlns:xlink="http://www.w3.org/1999/xlink" width="500" zoomAndPan="magnify" viewBox="0 0 375 374.999991" height="500" preserveAspectRatio="xMidYMid meet" version="1.0"><defs><clipPath id="46928c5dfe"><path d="M 29 30 L 345.835938 30 L 345.835938 344 L 29 344 Z M 29 30 " clip-rule="nonzero"/></clipPath></defs><g clip-path="url(#46928c5dfe)"><path fill="currentColor" d="M 29.210938 186.890625 C 28.8125 50.414062 195.59375 -20.320312 294.351562 71.703125 C 325.640625 100.40625 345.285156 141.382812 345.285156 186.890625 C 345.285156 273.371094 274.390625 343.726562 187.25 343.726562 C 102.53125 344.367188 28.667969 274 29.210938 186.890625 Z M 151.8125 149.09375 C 151.195312 149.585938 89.984375 198.667969 103.410156 249.453125 C 105.132812 255.863281 106.882812 261.46875 108.707031 266.503906 L 134.507812 265.320312 C 138.066406 265.109375 141.300781 263.910156 143.863281 261.851562 C 148.070312 258.480469 154.148438 254.167969 161.183594 249.175781 C 181.136719 235.011719 218.277344 208.648438 218.019531 195.652344 C 215.078125 154.015625 201.914062 86.558594 231.9375 47.773438 C 229.199219 46.90625 226.429688 46.105469 223.625 45.394531 C 208.757812 63.457031 189.96875 85.480469 169.945312 91.84375 C 154.472656 98.371094 139.855469 104.535156 137.714844 117.132812 C 135.347656 131.324219 150.402344 139.742188 151.027344 140.085938 C 154.402344 141.78125 154.835938 146.839844 151.8125 149.09375 Z M 120.1875 287.707031 C 117.046875 290.488281 117.035156 295.5625 121.21875 297.359375 C 121.21875 297.359375 134.5625 302.960938 134.5625 302.960938 C 138.78125 304.75 143.726562 304.117188 147.433594 301.351562 L 249.582031 223.625 C 251.675781 222.035156 252.980469 219.613281 253.15625 216.984375 C 253.15625 216.984375 260.78125 103.875 260.785156 103.824219 C 260.988281 100.851562 263.582031 98.59375 266.542969 98.796875 C 269.523438 99 271.773438 101.578125 271.574219 104.558594 L 269.15625 140.367188 C 280.324219 120.613281 283.925781 94.71875 285.039062 77.867188 C 272.699219 66.964844 258.507812 58.097656 242.992188 51.777344 C 212.34375 85.167969 226.160156 154.9375 228.828125 195.429688 C 229.171875 212.75 201.226562 234.011719 167.4375 257.996094 C 154.335938 266.113281 149.386719 274.945312 135.078125 276.121094 C 135.078125 276.121094 107.574219 277.316406 107.574219 277.316406 C 107.378906 277.414062 106.929688 277.914062 106.71875 277.988281 C 106.71875 278.328125 107.019531 278.566406 107.242188 278.574219 L 116.195312 278.84375 C 120.578125 278.816406 123.082031 284.449219 120.1875 287.707031 Z M 334.476562 186.890625 C 334.476562 148.574219 319.496094 113.675781 295.0625 87.601562 C 292.519531 112.425781 285.5 141.660156 267.800781 160.476562 L 263.941406 217.707031 C 263.640625 222.21875 261.78125 226.414062 258.800781 229.707031 C 265.640625 240.386719 283.476562 270.640625 284.542969 296.347656 C 315.132812 269.570312 334.476562 230.441406 334.476562 186.890625 Z M 273.578125 305.066406 C 276.867188 282.246094 258.3125 248.996094 250.363281 236.621094 C 250.363281 236.621094 153.9375 309.988281 153.9375 309.988281 C 149.238281 313.425781 143.472656 315.28125 137.808594 314.609375 C 142.832031 321.371094 148.402344 327.414062 152.265625 328.710938 C 163.484375 331.433594 175.195312 332.910156 187.25 332.910156 C 219.480469 332.910156 249.304688 322.554688 273.578125 305.066406 Z M 129.019531 320.976562 C 125.472656 316.179688 122.65625 311.660156 121.085938 309.003906 C 114.828125 306.941406 108.898438 302.96875 107.53125 296.109375 C 107 293.851562 106.945312 291.574219 107.347656 289.398438 L 106.851562 289.382812 C 97.585938 289.292969 92.402344 277.425781 98.734375 270.683594 C 96.734375 265.226562 94.832031 259.175781 92.964844 252.246094 C 80.148438 203.75 123.773438 159.441406 139.652344 145.25 C 133.273438 139.925781 124.640625 129.820312 127.058594 115.335938 C 130.808594 93.632812 155.890625 86.554688 174.25 78.199219 C 182.5625 74.421875 195.996094 61.695312 211.640625 42.917969 C 39.109375 18.601562 -28.246094 249.550781 129.019531 320.976562 Z M 129.019531 320.976562 " fill-opacity="1" fill-rule="nonzero"/></g></svg>
