<svg xmlns="http://www.w3.org/2000/svg" xmlns:xlink="http://www.w3.org/1999/xlink" width="500" zoomAndPan="magnify" viewBox="0 0 375 374.999991" height="500" preserveAspectRatio="xMidYMid meet" version="1.0"><path fill="currentColor" d="M 270.847656 103.109375 C 273.988281 100.878906 276.203125 98.359375 277.269531 95.542969 C 276.421875 98.359375 274.097656 100.878906 270.847656 103.109375 Z M 203.148438 106.132812 C 160.609375 106.132812 138.675781 95.980469 138.675781 91.652344 C 138.675781 87.320312 160.609375 77.171875 203.148438 77.171875 C 245.6875 77.171875 267.625 87.320312 267.625 91.652344 C 267.625 95.980469 245.6875 106.132812 203.148438 106.132812 Z M 203.117188 144 C 203.109375 144 203.097656 144 203.085938 144 C 194.242188 144 185.859375 142.101562 178.238281 139.191406 C 161.019531 132.617188 147.730469 119.25 142.019531 106.5 C 156.507812 113.25 180.367188 116.359375 203.148438 116.359375 C 225.972656 116.359375 249.875 113.425781 264.359375 106.804688 C 256.109375 125.820312 231.917969 144 203.117188 144 Z M 253.976562 178.253906 C 256.003906 180.28125 256.003906 183.578125 253.980469 185.605469 L 206.398438 233.183594 C 199.335938 218.453125 202.148438 200.492188 213.984375 188.660156 C 215.707031 186.9375 227.910156 175.667969 238.339844 166.304688 C 243.917969 169.550781 249.203125 173.476562 253.976562 178.253906 Z M 203.148438 66.796875 C 167.101562 66.796875 128.300781 74.574219 128.300781 91.652344 C 128.300781 92.179688 128.339844 92.699219 128.410156 93.203125 C 128.519531 93.953125 128.710938 94.683594 128.96875 95.394531 C 130.097656 116.253906 148.363281 139.066406 174.964844 149.078125 C 183.660156 152.347656 193.082031 154.285156 203.195312 154.292969 C 203.179688 154.292969 203.164062 154.292969 203.148438 154.292969 C 193.007812 154.292969 183.433594 152.359375 174.710938 149.078125 C 161.296875 153.066406 148.660156 160.347656 138.089844 170.917969 L 50.519531 258.484375 C 48.492188 260.511719 48.492188 263.796875 50.519531 265.820312 C 52.546875 267.847656 55.832031 267.847656 57.855469 265.820312 L 58.214844 265.460938 L 145.425781 178.253906 C 167.808594 155.871094 200.683594 150.238281 228.355469 161.332031 C 218.503906 170.230469 208.3125 179.65625 206.648438 181.320312 C 190.804688 197.160156 187.722656 221.679688 198.714844 240.871094 L 122.234375 317.347656 C 122.109375 317.472656 122.0625 317.636719 121.949219 317.769531 C 120.285156 319.808594 120.332031 322.78125 122.234375 324.683594 C 123.25 325.695312 124.574219 326.203125 125.902344 326.203125 C 127.230469 326.203125 128.558594 325.695312 129.570312 324.683594 L 261.320312 192.941406 C 267.382812 186.867188 267.382812 176.992188 261.316406 170.917969 C 251.679688 161.28125 240.332031 154.386719 228.238281 150.214844 C 225.203125 151.210938 222.074219 152.042969 218.867188 152.695312 C 222.039062 152.042969 225.140625 151.210938 228.171875 150.214844 C 256.9375 140.792969 276.917969 116.464844 277.605469 94.515625 C 277.726562 94.078125 277.828125 93.636719 277.890625 93.179688 C 277.960938 92.679688 277.996094 92.171875 277.996094 91.652344 C 277.996094 74.574219 239.199219 66.796875 203.148438 66.796875 " fill-opacity="1" fill-rule="nonzero"/><path fill="currentColor" d="M 187.5 364.078125 C 90.132812 364.078125 10.921875 284.863281 10.921875 187.5 C 10.921875 90.132812 90.132812 10.921875 187.5 10.921875 C 284.863281 10.921875 364.078125 90.132812 364.078125 187.5 C 364.078125 284.863281 284.863281 364.078125 187.5 364.078125 Z M 187.5 0 C 84.109375 0 0 84.109375 0 187.5 C 0 290.886719 84.109375 375 187.5 375 C 290.886719 375 375 290.886719 375 187.5 C 375 84.109375 290.886719 0 187.5 0 " fill-opacity="1" fill-rule="nonzero"/></svg>
