<svg xmlns="http://www.w3.org/2000/svg" xmlns:xlink="http://www.w3.org/1999/xlink" width="500" zoomAndPan="magnify" viewBox="0 0 375 374.999991" height="500" preserveAspectRatio="xMidYMid meet" version="1.0"><path fill="currentColor" d="M 187.5 92.28125 C 147.480469 92.28125 114.917969 124.804688 114.917969 164.773438 C 114.917969 204.746094 147.480469 237.265625 187.5 237.265625 C 227.519531 237.265625 260.082031 204.746094 260.082031 164.773438 C 260.082031 124.804688 227.519531 92.28125 187.5 92.28125 Z M 211.695312 219.144531 L 163.304688 219.144531 L 163.304688 204.039062 L 181.453125 204.039062 L 181.453125 128.527344 L 172.378906 140.609375 L 155.746094 140.609375 L 176.613281 111.242188 C 177.757812 109.804688 179.496094 108.972656 181.332031 108.972656 L 193.546875 108.972656 C 195.21875 108.972656 196.574219 110.324219 196.574219 111.992188 L 196.574219 204.039062 L 211.695312 204.039062 Z M 211.695312 219.144531 " fill-opacity="1" fill-rule="nonzero"/><path fill="currentColor" d="M 281.25 164.773438 C 281.25 113.140625 239.195312 71.136719 187.5 71.136719 C 135.804688 71.136719 93.75 113.140625 93.75 164.773438 C 93.75 216.40625 135.804688 258.410156 187.5 258.410156 C 239.195312 258.410156 281.25 216.40625 281.25 164.773438 Z M 187.5 243.308594 C 144.140625 243.308594 108.871094 208.078125 108.871094 164.773438 C 108.871094 121.46875 144.140625 86.238281 187.5 86.238281 C 230.859375 86.238281 266.128906 121.46875 266.128906 164.773438 C 266.128906 208.078125 230.859375 243.308594 187.5 243.308594 Z M 187.5 243.308594 " fill-opacity="1" fill-rule="nonzero"/><path fill="currentColor" d="M 142.652344 295.652344 C 136.476562 294.585938 130.464844 293.109375 124.648438 291.277344 C 130.476562 286.960938 140.53125 275.429688 126.839844 252.625 C 109.660156 266.785156 111.90625 280.933594 114.414062 287.609375 C 107.792969 284.929688 101.476562 281.738281 95.480469 278.121094 C 116.40625 260.347656 99.042969 232.988281 99.042969 232.988281 C 80.0625 246.214844 81.367188 262.121094 83.652344 270.113281 C 76.226562 264.46875 69.460938 258.09375 63.460938 251.105469 C 84.664062 243.246094 77.175781 214.613281 77.175781 214.613281 C 56.839844 219.328125 54.65625 232.121094 54.433594 239.261719 C 49.292969 231.640625 44.980469 223.476562 41.597656 214.886719 C 67.792969 210.113281 62.949219 181.953125 62.949219 181.953125 C 45.125 181.460938 38.660156 191.171875 36.300781 198.070312 C 34.144531 189 32.996094 179.585938 32.945312 169.949219 C 59.566406 174.738281 63.300781 149.292969 63.300781 149.292969 C 46.976562 144.109375 37.992188 150.6875 33.617188 156.128906 C 34.480469 147.902344 36.167969 139.859375 38.605469 132.074219 C 65.726562 143.425781 75.910156 121.734375 75.910156 121.734375 C 60.804688 110.835938 49.453125 115.089844 43.304688 119.460938 C 46.695312 111.707031 50.898438 104.289062 55.863281 97.289062 C 76.265625 114.289062 91.203125 97.316406 91.203125 97.316406 C 84.289062 84.414062 71.542969 84.980469 64.359375 86.546875 C 67.453125 83.035156 70.75 79.648438 74.269531 76.421875 L 75.757812 75.109375 C 104.457031 81.753906 109.871094 49.667969 109.871094 49.667969 C 78.871094 43.992188 73.328125 61.636719 72.410156 70.003906 L 70.222656 71.933594 C 66.261719 75.566406 62.582031 79.398438 59.132812 83.371094 C 57.703125 66.4375 36.164062 61.886719 36.164062 61.886719 C 31.339844 84.546875 44.320312 92.117188 50.515625 94.398438 C 45.230469 101.941406 40.789062 109.945312 37.238281 118.308594 C 32.445312 98.320312 9.941406 97.3125 9.941406 97.3125 C 9.246094 125.390625 25.628906 130.039062 32.6875 130.742188 C 30.410156 138.125 28.796875 145.722656 27.863281 153.484375 C 19.960938 140.734375 0 143.066406 0 143.066406 C 2.144531 167.207031 19.734375 169.550781 26.886719 169.492188 C 26.898438 177.359375 27.621094 185.085938 28.988281 192.617188 C 24.789062 189.84375 16.738281 187.160156 3.074219 191.828125 C 3.074219 191.828125 8.421875 217.175781 34.050781 211.90625 C 36.113281 217.867188 38.597656 223.640625 41.472656 229.210938 C 36.425781 228.101562 27.300781 227.914062 16.765625 236.261719 C 16.765625 236.261719 28.246094 257.019531 52.898438 247.554688 C 56.234375 252.050781 59.847656 256.351562 63.730469 260.417969 C 58.011719 260.046875 48.527344 261.480469 39.386719 272.101562 C 39.386719 272.101562 59.054688 293.8125 81.253906 275.882812 C 87.644531 280.625 94.488281 284.84375 101.722656 288.480469 C 96.003906 289.082031 88.265625 291.820312 81.476562 300.953125 C 81.476562 300.953125 106.746094 323.28125 121.714844 296.667969 C 128.140625 298.75 134.777344 300.421875 141.621094 301.605469 C 141.796875 301.636719 141.96875 301.652344 142.140625 301.652344 C 143.585938 301.652344 144.863281 300.617188 145.117188 299.144531 C 145.398438 297.496094 144.300781 295.933594 142.652344 295.652344 Z M 142.652344 295.652344 " fill-opacity="1" fill-rule="nonzero"/><path fill="currentColor" d="M 346.011719 192.617188 C 347.378906 185.085938 348.101562 177.363281 348.113281 169.492188 C 355.265625 169.550781 372.855469 167.207031 375 143.066406 C 375 143.066406 355.039062 140.734375 347.136719 153.488281 C 346.199219 145.726562 344.582031 138.125 342.300781 130.746094 C 349.359375 130.042969 365.753906 125.402344 365.058594 97.316406 C 365.058594 97.316406 342.53125 98.324219 337.757812 118.335938 C 334.199219 109.976562 329.753906 101.972656 324.453125 94.414062 C 330.640625 92.144531 343.667969 84.585938 338.835938 61.886719 C 338.835938 61.886719 317.257812 66.445312 315.863281 83.414062 C 312.355469 79.363281 308.605469 75.460938 304.5625 71.753906 L 302.625 70.285156 C 301.800781 62.03125 296.472656 43.925781 265.132812 49.667969 C 265.132812 49.667969 270.527344 81.605469 299.054688 75.148438 L 300.691406 76.382812 C 304.222656 79.625 307.53125 83.023438 310.636719 86.542969 C 303.449219 84.980469 290.710938 84.417969 283.800781 97.316406 C 283.800781 97.316406 298.734375 114.285156 319.132812 97.292969 C 324.097656 104.292969 328.296875 111.707031 331.691406 119.453125 C 325.542969 115.082031 314.195312 110.835938 299.09375 121.730469 C 299.09375 121.730469 309.273438 143.425781 336.398438 132.070312 C 338.832031 139.855469 340.527344 147.898438 341.390625 156.125 C 337.011719 150.6875 328.027344 144.105469 311.703125 149.289062 C 311.703125 149.289062 315.441406 174.734375 342.058594 169.949219 C 342.011719 179.582031 340.859375 189 338.703125 198.070312 C 336.34375 191.171875 329.886719 181.460938 312.058594 181.949219 C 312.058594 181.949219 307.210938 210.109375 333.410156 214.882812 C 330.023438 223.472656 325.714844 231.636719 320.574219 239.257812 C 320.351562 232.121094 318.167969 219.324219 297.828125 214.609375 C 297.828125 214.609375 290.339844 243.246094 311.546875 251.101562 C 305.546875 258.09375 298.78125 264.464844 291.355469 270.109375 C 293.636719 262.121094 294.945312 246.214844 275.964844 232.984375 C 275.964844 232.984375 258.597656 260.34375 279.527344 278.121094 C 273.527344 281.730469 267.214844 284.925781 260.589844 287.605469 C 263.097656 280.929688 265.34375 266.785156 248.164062 252.625 C 234.476562 275.429688 244.53125 286.957031 250.359375 291.273438 C 244.535156 293.109375 238.53125 294.582031 232.355469 295.648438 C 230.707031 295.929688 229.605469 297.492188 229.890625 299.136719 C 230.144531 300.609375 231.421875 301.644531 232.867188 301.644531 C 233.039062 301.644531 233.207031 301.628906 233.382812 301.597656 C 240.226562 300.417969 246.867188 298.742188 253.292969 296.660156 C 268.257812 323.273438 293.53125 300.941406 293.53125 300.941406 C 286.738281 291.8125 279.003906 289.070312 273.285156 288.472656 C 280.519531 284.835938 287.363281 280.613281 293.753906 275.875 C 315.949219 293.804688 335.617188 272.09375 335.617188 272.09375 C 326.476562 261.472656 316.996094 260.042969 311.273438 260.40625 C 315.15625 256.339844 318.769531 252.042969 322.105469 247.546875 C 346.761719 257.007812 358.238281 236.25 358.238281 236.25 C 347.699219 227.90625 338.578125 228.09375 333.535156 229.203125 C 336.40625 223.632812 338.894531 217.855469 340.953125 211.898438 C 366.582031 217.164062 371.933594 191.820312 371.933594 191.820312 C 358.261719 187.160156 350.210938 189.84375 346.011719 192.617188 Z M 346.011719 192.617188 " fill-opacity="1" fill-rule="nonzero"/></svg>
