<svg xmlns="http://www.w3.org/2000/svg" xmlns:xlink="http://www.w3.org/1999/xlink" width="500" zoomAndPan="magnify" viewBox="0 0 375 374.999991" height="500" preserveAspectRatio="xMidYMid meet" version="1.0"><defs><clipPath id="be58d15837"><path d="M 0.234375 0 L 373 0 L 373 375 L 0.234375 375 Z M 0.234375 0 " clip-rule="nonzero"/></clipPath></defs><g clip-path="url(#be58d15837)"><path fill="currentColor" d="M 364.707031 180.914062 L 343.871094 221.847656 L 340.957031 227.566406 L 340.945312 229.3125 L 340.449219 293.183594 L 284.472656 293.183594 L 284.789062 210.707031 L 284.816406 203.292969 L 284.992188 156.746094 C 284.992188 151.792969 289.019531 147.757812 293.972656 147.757812 L 327.75 147.757812 C 332.691406 147.757812 336.714844 151.773438 336.734375 156.714844 L 336.128906 186.472656 C 336.09375 188.492188 337.351562 190.285156 339.265625 190.929688 C 341.175781 191.570312 343.265625 190.910156 344.453125 189.277344 L 355.699219 173.910156 C 356.988281 172.957031 358.71875 172.871094 360.101562 173.730469 L 363.308594 175.71875 C 365.066406 176.808594 365.683594 179.089844 364.707031 180.914062 Z M 206.882812 267.0625 C 205.746094 257.996094 199.464844 250.507812 191.066406 247.621094 L 163.417969 206.125 C 172.230469 200.636719 177.722656 190.929688 177.722656 180.347656 L 177.722656 176.460938 C 183.527344 178.578125 189.703125 179.679688 195.984375 179.679688 L 209.992188 179.679688 C 217.679688 179.679688 225.136719 178.050781 231.964844 174.96875 L 231.964844 180.347656 C 231.964844 192.675781 239.246094 203.484375 250.214844 208.214844 Z M 199.660156 351.289062 C 199.660156 360.265625 192.359375 367.574219 183.386719 367.574219 L 24.324219 367.574219 C 15.355469 367.574219 8.054688 360.265625 8.054688 351.289062 L 8.054688 270.039062 C 8.054688 261.058594 15.355469 253.757812 24.324219 253.757812 L 183.386719 253.757812 C 184.429688 253.757812 185.449219 253.855469 186.4375 254.042969 C 193.957031 255.476562 199.660156 262.101562 199.660156 270.039062 Z M 68.300781 235.085938 L 68.386719 246.34375 L 61.308594 246.34375 C 63.246094 242.332031 65.59375 238.566406 68.300781 235.085938 Z M 51.9375 180.984375 L 51.902344 180.914062 C 50.925781 179.089844 51.539062 176.808594 53.300781 175.71875 L 56.503906 173.730469 C 57.890625 172.871094 59.617188 172.957031 60.90625 173.910156 L 72.148438 189.277344 C 73.34375 190.910156 75.425781 191.570312 77.34375 190.929688 C 79.253906 190.285156 80.515625 188.492188 80.476562 186.464844 L 79.875 156.714844 C 79.894531 151.773438 83.914062 147.757812 88.855469 147.757812 L 122.632812 147.757812 C 127.585938 147.757812 131.613281 151.792969 131.613281 156.761719 L 131.789062 203.292969 L 131.816406 210.707031 L 131.953125 246.34375 L 75.789062 246.34375 L 75.648438 227.566406 L 75.5 227.269531 L 72.027344 220.449219 Z M 147.375 210.707031 C 150.546875 210.707031 153.640625 210.230469 156.613281 209.273438 L 181.308594 246.34375 L 139.359375 246.34375 L 139.226562 210.707031 Z M 150.710938 134.589844 C 150.929688 134.433594 151.152344 134.277344 151.378906 134.121094 C 151.5625 133.992188 151.753906 133.867188 151.945312 133.742188 C 152.265625 133.523438 152.597656 133.316406 152.929688 133.113281 C 153.214844 132.933594 153.503906 132.761719 153.796875 132.589844 C 153.808594 132.578125 153.824219 132.570312 153.84375 132.5625 C 154.460938 132.203125 155.097656 131.851562 155.757812 131.511719 C 155.90625 131.425781 156.058594 131.351562 156.210938 131.277344 C 156.5625 131.097656 156.921875 130.925781 157.285156 130.753906 C 157.34375 130.726562 157.40625 130.699219 157.460938 130.671875 C 157.765625 130.53125 158.070312 130.390625 158.378906 130.253906 C 158.382812 130.253906 158.386719 130.25 158.386719 130.25 C 158.457031 130.21875 158.53125 130.1875 158.601562 130.15625 C 160.402344 129.367188 162.328125 128.640625 164.382812 127.980469 C 164.441406 127.964844 164.5 127.945312 164.5625 127.925781 C 164.902344 127.816406 165.246094 127.710938 165.589844 127.605469 C 165.738281 127.5625 165.882812 127.519531 166.03125 127.476562 C 166.3125 127.394531 166.59375 127.3125 166.878906 127.230469 C 167.027344 127.1875 167.175781 127.148438 167.324219 127.105469 C 167.660156 127.015625 167.992188 126.921875 168.332031 126.832031 C 168.382812 126.820312 168.429688 126.808594 168.480469 126.796875 C 168.648438 126.753906 168.816406 126.710938 168.984375 126.667969 C 169.308594 126.585938 169.632812 126.503906 169.964844 126.421875 C 170.363281 126.328125 170.761719 126.234375 171.164062 126.140625 C 171.199219 126.136719 171.230469 126.128906 171.261719 126.121094 C 171.746094 126.011719 172.238281 125.902344 172.734375 125.800781 C 172.753906 125.796875 172.777344 125.792969 172.792969 125.789062 C 173.199219 125.703125 173.609375 125.621094 174.019531 125.542969 C 174.5 125.445312 174.980469 125.355469 175.464844 125.269531 C 175.769531 125.214844 176.074219 125.15625 176.382812 125.105469 C 176.921875 125.011719 177.46875 124.925781 178.015625 124.835938 C 178.09375 124.824219 178.167969 124.8125 178.242188 124.800781 C 178.796875 124.710938 179.351562 124.628906 179.914062 124.550781 C 180.15625 124.511719 180.402344 124.480469 180.648438 124.449219 C 181.40625 124.34375 182.179688 124.246094 182.960938 124.152344 C 183.214844 124.121094 183.46875 124.09375 183.722656 124.066406 C 184.296875 124 184.878906 123.9375 185.464844 123.875 C 185.800781 123.84375 186.132812 123.808594 186.472656 123.773438 C 186.542969 123.769531 186.609375 123.761719 186.679688 123.753906 C 187.335938 123.691406 188 123.632812 188.667969 123.578125 C 189.136719 123.535156 189.609375 123.5 190.082031 123.464844 C 190.554688 123.429688 191.03125 123.398438 191.511719 123.363281 C 191.878906 123.339844 192.246094 123.3125 192.617188 123.296875 C 193.253906 123.253906 193.90625 123.222656 194.554688 123.191406 C 195.28125 123.152344 196.007812 123.113281 196.746094 123.082031 C 197.695312 123.046875 198.65625 123.011719 199.632812 122.984375 C 199.707031 122.984375 199.78125 122.984375 199.851562 122.980469 C 200.859375 122.953125 201.878906 122.929688 202.910156 122.914062 C 203.691406 122.902344 204.484375 122.898438 205.285156 122.890625 C 205.789062 122.886719 206.304688 122.886719 206.816406 122.886719 C 207.773438 122.886719 208.71875 122.894531 209.652344 122.902344 C 209.761719 122.90625 209.871094 122.90625 209.980469 122.90625 C 211.703125 122.925781 213.382812 122.964844 215.03125 123.019531 C 216.183594 123.054688 217.328125 123.097656 218.445312 123.152344 C 219.058594 123.183594 219.667969 123.210938 220.269531 123.25 C 220.875 123.28125 221.46875 123.320312 222.0625 123.359375 C 222.65625 123.398438 223.242188 123.4375 223.820312 123.484375 C 224.40625 123.527344 224.984375 123.574219 225.554688 123.625 C 226.125 123.675781 226.6875 123.726562 227.25 123.78125 C 229.449219 123.992188 231.566406 124.246094 233.605469 124.53125 C 233.648438 124.539062 233.683594 124.546875 233.722656 124.550781 C 234.238281 124.621094 234.746094 124.699219 235.246094 124.777344 C 235.253906 124.78125 235.261719 124.78125 235.265625 124.78125 C 235.773438 124.859375 236.28125 124.945312 236.773438 125.027344 C 237.46875 125.144531 238.144531 125.265625 238.820312 125.394531 C 238.957031 125.417969 239.09375 125.445312 239.230469 125.472656 C 239.820312 125.585938 240.402344 125.703125 240.972656 125.824219 C 241.042969 125.839844 241.113281 125.851562 241.183594 125.867188 C 241.628906 125.960938 242.058594 126.050781 242.492188 126.152344 C 242.910156 126.246094 243.316406 126.34375 243.726562 126.445312 C 244.132812 126.542969 244.535156 126.640625 244.933594 126.746094 C 245.164062 126.804688 245.390625 126.863281 245.617188 126.929688 C 245.730469 126.953125 245.835938 126.980469 245.949219 127.015625 C 246.148438 127.066406 246.355469 127.121094 246.554688 127.183594 C 246.941406 127.289062 247.332031 127.402344 247.710938 127.515625 C 247.894531 127.566406 248.074219 127.621094 248.257812 127.683594 C 248.832031 127.859375 249.394531 128.035156 249.945312 128.21875 C 250.230469 128.316406 250.507812 128.410156 250.785156 128.511719 C 251.414062 128.726562 252.027344 128.949219 252.636719 129.1875 C 252.988281 129.320312 253.335938 129.457031 253.671875 129.59375 C 254.042969 129.742188 254.410156 129.898438 254.765625 130.054688 C 255.128906 130.207031 255.480469 130.363281 255.832031 130.527344 C 254.472656 145.222656 246.320312 157.804688 234.574219 165.203125 C 227.460938 169.6875 219.03125 172.265625 209.992188 172.265625 L 195.984375 172.265625 C 187.089844 172.265625 178.691406 169.691406 171.570312 165.203125 C 160.90625 158.507812 153.09375 147.546875 150.710938 134.589844 Z M 149.945312 109.695312 L 149.945312 86.421875 C 150.433594 86.496094 150.925781 86.527344 151.429688 86.527344 L 255.648438 86.527344 C 255.78125 86.527344 255.910156 86.527344 256.035156 86.515625 L 256.035156 122.558594 C 255.757812 122.445312 255.480469 122.339844 255.195312 122.234375 C 254.757812 122.066406 254.3125 121.898438 253.859375 121.738281 C 252.957031 121.414062 252.027344 121.105469 251.082031 120.808594 C 250.652344 120.667969 250.210938 120.535156 249.765625 120.402344 C 249.703125 120.386719 249.636719 120.367188 249.570312 120.347656 C 249.492188 120.324219 249.414062 120.300781 249.332031 120.277344 C 248.945312 120.167969 248.5625 120.054688 248.167969 119.949219 C 248.160156 119.949219 248.148438 119.945312 248.140625 119.941406 C 247.769531 119.839844 247.390625 119.742188 247.007812 119.640625 C 246.824219 119.59375 246.644531 119.542969 246.457031 119.496094 C 246.359375 119.472656 246.261719 119.449219 246.164062 119.425781 C 245.996094 119.382812 245.828125 119.339844 245.65625 119.296875 C 245.5 119.257812 245.34375 119.21875 245.183594 119.179688 C 244.972656 119.132812 244.753906 119.085938 244.546875 119.035156 C 244.183594 118.953125 243.820312 118.867188 243.453125 118.789062 C 243.082031 118.707031 242.703125 118.625 242.324219 118.546875 C 242.15625 118.511719 241.992188 118.472656 241.824219 118.441406 C 241.4375 118.359375 241.042969 118.28125 240.652344 118.207031 C 240.628906 118.203125 240.605469 118.199219 240.582031 118.195312 C 240.578125 118.195312 240.578125 118.195312 240.578125 118.195312 C 240.402344 118.160156 240.230469 118.128906 240.054688 118.097656 C 239.578125 118.003906 239.09375 117.917969 238.613281 117.832031 C 238.097656 117.738281 237.578125 117.65625 237.046875 117.570312 C 236.710938 117.511719 236.367188 117.460938 236.027344 117.410156 C 235.648438 117.351562 235.261719 117.296875 234.878906 117.238281 C 234.492188 117.183594 234.101562 117.128906 233.710938 117.078125 C 233.355469 117.03125 232.992188 116.980469 232.632812 116.933594 C 232.265625 116.886719 231.90625 116.84375 231.539062 116.800781 C 231.132812 116.746094 230.722656 116.703125 230.3125 116.65625 C 229.90625 116.609375 229.488281 116.5625 229.070312 116.519531 C 228.878906 116.496094 228.679688 116.480469 228.480469 116.460938 C 227.933594 116.40625 227.382812 116.355469 226.828125 116.304688 C 226.40625 116.265625 225.984375 116.230469 225.558594 116.191406 C 225.332031 116.175781 225.101562 116.15625 224.878906 116.136719 C 224.25 116.085938 223.613281 116.039062 222.96875 115.992188 C 221.394531 115.886719 219.789062 115.792969 218.144531 115.71875 C 217.675781 115.695312 217.195312 115.679688 216.714844 115.660156 C 216.183594 115.636719 215.644531 115.617188 215.105469 115.605469 C 214.570312 115.585938 214.039062 115.570312 213.503906 115.558594 C 213.042969 115.546875 212.578125 115.535156 212.109375 115.527344 C 211.648438 115.515625 211.179688 115.507812 210.707031 115.503906 C 210.386719 115.496094 210.066406 115.492188 209.742188 115.488281 C 208.78125 115.480469 207.804688 115.472656 206.816406 115.472656 C 206.292969 115.472656 205.769531 115.472656 205.253906 115.480469 C 205.167969 115.480469 205.085938 115.480469 205.003906 115.480469 C 204.910156 115.480469 204.816406 115.484375 204.71875 115.484375 C 204.492188 115.484375 204.261719 115.484375 204.03125 115.488281 C 203.882812 115.488281 203.742188 115.492188 203.59375 115.496094 C 202.898438 115.503906 202.210938 115.515625 201.527344 115.527344 C 201.402344 115.53125 201.277344 115.53125 201.152344 115.535156 C 200.753906 115.542969 200.355469 115.554688 199.960938 115.5625 C 199.707031 115.566406 199.457031 115.578125 199.210938 115.585938 C 198.84375 115.59375 198.480469 115.605469 198.117188 115.617188 C 197.753906 115.632812 197.390625 115.644531 197.03125 115.660156 C 196.253906 115.6875 195.484375 115.71875 194.71875 115.761719 C 194.714844 115.761719 194.710938 115.761719 194.707031 115.761719 C 194.457031 115.773438 194.210938 115.789062 193.960938 115.800781 C 193.621094 115.820312 193.285156 115.835938 192.949219 115.855469 C 192.757812 115.867188 192.570312 115.878906 192.382812 115.890625 C 192.238281 115.898438 192.089844 115.90625 191.949219 115.914062 C 191.796875 115.925781 191.652344 115.933594 191.503906 115.945312 C 191.058594 115.976562 190.613281 116.007812 190.175781 116.039062 C 190.019531 116.050781 189.859375 116.058594 189.707031 116.074219 C 189.472656 116.089844 189.246094 116.109375 189.015625 116.125 C 189.011719 116.125 189.003906 116.125 189 116.125 C 188.6875 116.152344 188.382812 116.175781 188.078125 116.199219 C 187.753906 116.226562 187.441406 116.253906 187.125 116.285156 C 186.757812 116.316406 186.394531 116.347656 186.035156 116.382812 C 185.839844 116.402344 185.648438 116.421875 185.453125 116.441406 C 184.964844 116.492188 184.480469 116.539062 183.996094 116.59375 C 183.914062 116.601562 183.828125 116.609375 183.742188 116.621094 C 183.402344 116.65625 183.0625 116.695312 182.726562 116.734375 C 181.535156 116.875 180.363281 117.019531 179.214844 117.1875 C 178.648438 117.265625 178.089844 117.351562 177.535156 117.433594 C 177.007812 117.511719 176.484375 117.601562 175.964844 117.6875 C 175.777344 117.71875 175.589844 117.753906 175.402344 117.785156 C 175.238281 117.8125 175.078125 117.839844 174.917969 117.867188 C 174.097656 118.011719 173.277344 118.160156 172.480469 118.324219 C 171.914062 118.433594 171.359375 118.550781 170.808594 118.667969 C 170.453125 118.742188 170.089844 118.820312 169.734375 118.902344 C 169.519531 118.949219 169.304688 119 169.089844 119.050781 C 168.964844 119.078125 168.839844 119.105469 168.714844 119.136719 C 168.433594 119.203125 168.15625 119.269531 167.878906 119.335938 C 167.675781 119.390625 167.476562 119.433594 167.277344 119.484375 C 166.929688 119.574219 166.582031 119.664062 166.234375 119.753906 C 165.839844 119.855469 165.445312 119.964844 165.058594 120.074219 C 164.65625 120.191406 164.253906 120.300781 163.855469 120.421875 C 163.457031 120.542969 163.0625 120.664062 162.667969 120.785156 C 162.433594 120.859375 162.203125 120.933594 161.972656 121.007812 C 161.726562 121.085938 161.484375 121.164062 161.246094 121.242188 C 161.039062 121.3125 160.832031 121.378906 160.628906 121.453125 C 160.625 121.453125 160.621094 121.453125 160.617188 121.453125 C 160.527344 121.484375 160.4375 121.515625 160.347656 121.550781 C 160.171875 121.609375 159.996094 121.671875 159.816406 121.734375 C 159.585938 121.816406 159.351562 121.898438 159.121094 121.988281 C 158.839844 122.089844 158.558594 122.195312 158.28125 122.304688 C 157.480469 122.609375 156.703125 122.925781 155.9375 123.253906 C 155.808594 123.308594 155.679688 123.371094 155.550781 123.425781 C 153.554688 124.296875 151.6875 125.242188 149.945312 126.261719 Z M 140.421875 117.960938 C 134.703125 117.960938 130.054688 111.847656 130.054688 104.335938 C 130.054688 96.820312 134.703125 90.710938 140.421875 90.710938 C 141.148438 90.710938 141.855469 90.808594 142.539062 90.996094 L 142.539062 117.675781 C 141.855469 117.863281 141.148438 117.960938 140.421875 117.960938 Z M 148.019531 53.640625 C 148.019531 26.855469 169.382812 7.414062 198.8125 7.414062 L 208.261719 7.414062 C 237.699219 7.414062 259.058594 26.855469 259.058594 53.640625 L 259.058594 75.703125 C 259.058594 77.585938 257.53125 79.113281 255.648438 79.113281 L 151.429688 79.113281 C 149.550781 79.113281 148.019531 77.585938 148.019531 75.703125 Z M 265.96875 88.9375 C 271.683594 88.9375 276.335938 95.046875 276.335938 102.5625 C 276.335938 110.070312 271.683594 116.1875 265.96875 116.1875 C 265.097656 116.1875 264.253906 116.042969 263.441406 115.777344 L 263.441406 89.347656 C 264.253906 89.078125 265.097656 88.9375 265.96875 88.9375 Z M 367.203125 169.414062 L 364.003906 167.429688 C 359.730469 164.78125 354.320312 165.234375 350.542969 168.554688 L 350.242188 168.824219 L 343.714844 177.742188 L 344.136719 156.820312 L 344.140625 156.746094 C 344.140625 147.703125 336.789062 140.34375 327.75 140.34375 L 293.972656 140.34375 C 284.9375 140.34375 277.585938 147.703125 277.585938 156.730469 L 277.410156 203.292969 L 262.316406 203.292969 C 260.5625 203.292969 258.8125 203.101562 257.113281 202.710938 L 257.0625 202.695312 L 257.058594 202.695312 C 246.644531 200.25 239.371094 191.0625 239.371094 180.347656 L 239.371094 170.878906 C 242.085938 169.09375 244.652344 167.046875 247.039062 164.746094 C 255.636719 156.46875 261.136719 145.746094 262.855469 134.101562 L 263.15625 134.257812 L 263.414062 127.855469 L 263.488281 126.078125 L 263.441406 126.054688 L 263.441406 123.386719 C 264.265625 123.527344 265.113281 123.601562 265.96875 123.601562 C 275.769531 123.601562 283.742188 114.164062 283.742188 102.5625 C 283.742188 90.960938 275.769531 81.523438 265.96875 81.523438 C 265.550781 81.523438 265.140625 81.542969 264.734375 81.574219 C 265.832031 79.878906 266.464844 77.863281 266.464844 75.703125 L 266.464844 53.640625 C 266.464844 38.277344 260.351562 24.414062 249.25 14.597656 C 238.601562 5.183594 224.042969 0 208.261719 0 L 198.8125 0 C 183.035156 0 168.476562 5.183594 157.828125 14.597656 C 146.726562 24.414062 140.613281 38.277344 140.613281 53.640625 L 140.613281 75.703125 C 140.613281 77.988281 141.328125 80.109375 142.539062 81.855469 L 142.539062 83.453125 C 141.84375 83.347656 141.136719 83.296875 140.421875 83.296875 C 130.617188 83.296875 122.648438 92.734375 122.648438 104.335938 C 122.648438 115.9375 130.617188 125.375 140.421875 125.375 C 141.136719 125.375 141.84375 125.324219 142.539062 125.222656 L 142.539062 126.195312 C 142.539062 127.933594 142.625 129.679688 142.792969 131.414062 L 142.757812 131.445312 L 143.035156 133.496094 C 143.050781 133.597656 143.0625 133.695312 143.082031 133.796875 C 143.082031 133.816406 143.082031 133.832031 143.085938 133.84375 L 143.9375 140.0625 L 144.285156 139.777344 C 146.960938 150.011719 152.660156 159.289062 160.703125 166.367188 C 163.675781 168.980469 166.898438 171.238281 170.316406 173.109375 L 170.316406 180.347656 C 170.316406 189.460938 164.925781 197.707031 156.582031 201.375 L 156.578125 201.375 L 156.449219 201.429688 C 153.574219 202.667969 150.523438 203.292969 147.375 203.292969 L 139.199219 203.292969 L 139.023438 156.746094 C 139.023438 147.703125 131.671875 140.34375 122.632812 140.34375 L 88.855469 140.34375 C 79.820312 140.34375 72.464844 147.703125 72.464844 156.746094 L 72.894531 177.742188 L 66.363281 168.824219 L 66.066406 168.554688 C 62.28125 165.234375 56.875 164.78125 52.601562 167.429688 L 49.402344 169.414062 C 44.332031 172.550781 42.558594 179.117188 45.355469 184.382812 L 66.453125 225.835938 C 60.921875 231.796875 56.402344 238.722656 53.183594 246.34375 L 24.324219 246.34375 C 11.269531 246.34375 0.648438 256.972656 0.648438 270.039062 L 0.648438 351.289062 C 0.648438 364.355469 11.269531 374.988281 24.324219 374.988281 L 183.386719 374.988281 C 196.445312 374.988281 207.066406 364.355469 207.066406 351.289062 L 207.066406 279.304688 L 257.820312 210.378906 C 259.308594 210.601562 260.8125 210.707031 262.316406 210.707031 L 277.382812 210.707031 L 277.066406 293.183594 L 277.0625 293.183594 L 277.046875 297.882812 L 277.039062 300.597656 L 277.042969 300.597656 L 276.878906 365.582031 L 284.285156 365.597656 L 284.449219 300.597656 L 340.398438 300.597656 L 340.050781 366.335938 L 347.457031 366.375 L 347.828125 296.738281 L 348.28125 238.214844 C 354.59375 247.472656 358.5 258.535156 359.089844 270.515625 L 362.765625 367.257812 L 370.167969 366.976562 L 366.488281 270.191406 C 365.675781 253.808594 359.339844 238.972656 349.324219 227.460938 L 371.25 184.382812 C 374.046875 179.117188 372.273438 172.550781 367.203125 169.414062 " fill-opacity="1" fill-rule="nonzero"/></g><path fill="currentColor" d="M 233.328125 110.503906 C 237.457031 110.503906 240.808594 107.148438 240.808594 103.011719 C 240.808594 98.878906 237.457031 95.527344 233.328125 95.527344 C 229.191406 95.527344 225.84375 98.878906 225.84375 103.011719 C 225.84375 107.148438 229.191406 110.503906 233.328125 110.503906 " fill-opacity="1" fill-rule="nonzero"/><path fill="currentColor" d="M 177.109375 111.324219 C 181.238281 111.324219 184.589844 107.972656 184.589844 103.835938 C 184.589844 99.703125 181.238281 96.347656 177.109375 96.347656 C 172.976562 96.347656 169.625 99.703125 169.625 103.835938 C 169.625 107.972656 172.976562 111.324219 177.109375 111.324219 " fill-opacity="1" fill-rule="nonzero"/><path fill="currentColor" d="M 74.339844 354.523438 C 70.4375 354.523438 67.265625 351.347656 67.265625 347.445312 C 67.265625 343.539062 70.4375 340.363281 74.339844 340.363281 C 78.238281 340.363281 81.410156 343.539062 81.410156 347.445312 C 81.410156 351.347656 78.238281 354.523438 74.339844 354.523438 Z M 59.277344 325.023438 C 57.230469 325.023438 55.214844 324.726562 53.253906 324.148438 L 58.417969 310.335938 L 63.730469 324.542969 C 62.265625 324.859375 60.777344 325.023438 59.277344 325.023438 Z M 42.5 354.523438 C 38.597656 354.523438 35.425781 351.347656 35.425781 347.445312 C 35.425781 343.539062 38.597656 340.363281 42.5 340.363281 C 46.398438 340.363281 49.570312 343.539062 49.570312 347.445312 C 49.570312 351.347656 46.398438 354.523438 42.5 354.523438 Z M 74.789062 332.964844 L 62.371094 299.761719 L 64.273438 294.675781 L 64.273438 263.992188 C 64.273438 261.945312 62.617188 260.285156 60.570312 260.285156 C 59.765625 260.285156 59.023438 260.542969 58.417969 260.980469 C 57.8125 260.542969 57.070312 260.285156 56.265625 260.285156 C 54.21875 260.285156 52.5625 261.945312 52.5625 263.992188 L 52.5625 294.675781 L 54.464844 299.761719 L 42.046875 332.964844 C 34.269531 333.203125 28.015625 339.601562 28.015625 347.445312 C 28.015625 355.433594 34.511719 361.9375 42.5 361.9375 C 50.484375 361.9375 56.980469 355.433594 56.980469 347.445312 C 56.980469 341.917969 53.875 337.109375 49.320312 334.664062 L 50.652344 331.097656 C 53.449219 331.980469 56.332031 332.433594 59.277344 332.433594 C 61.667969 332.433594 64.035156 332.132812 66.347656 331.542969 L 67.515625 334.664062 C 62.960938 337.109375 59.855469 341.917969 59.855469 347.445312 C 59.855469 355.433594 66.351562 361.9375 74.339844 361.9375 C 82.324219 361.9375 88.816406 355.433594 88.816406 347.445312 C 88.816406 339.601562 82.566406 333.203125 74.789062 332.964844 " fill-opacity="1" fill-rule="nonzero"/><path fill="currentColor" d="M 117.789062 258.667969 C 117.789062 258.226562 117.257812 258.003906 116.945312 258.316406 L 105.90625 269.3125 L 105.90625 273.050781 C 108.53125 273.1875 110.628906 276.082031 110.628906 279.632812 C 110.628906 283.183594 108.53125 286.078125 105.90625 286.214844 L 105.90625 290.371094 L 117.789062 290.371094 L 117.789062 258.667969 " fill-opacity="1" fill-rule="nonzero"/><path fill="currentColor" d="M 105.25 360.484375 L 117.792969 360.484375 L 117.792969 297.140625 L 105.25 297.140625 L 105.25 360.484375 " fill-opacity="1" fill-rule="nonzero"/><path fill="currentColor" d="M 159.933594 358.070312 C 157.882812 358.070312 156.214844 356.398438 156.214844 354.347656 L 156.214844 285.386719 L 148.804688 285.386719 L 148.804688 354.347656 C 148.804688 360.488281 153.800781 365.484375 159.933594 365.484375 C 166.070312 365.484375 171.058594 360.488281 171.058594 354.347656 L 163.652344 354.347656 C 163.652344 356.398438 161.984375 358.070312 159.933594 358.070312 " fill-opacity="1" fill-rule="nonzero"/><path fill="currentColor" d="M 148.804688 274.617188 L 156.214844 274.617188 L 156.214844 264.277344 L 163.652344 264.277344 L 163.652344 338.105469 L 171.058594 338.105469 L 171.058594 256.863281 L 148.804688 256.863281 L 148.804688 274.617188 " fill-opacity="1" fill-rule="nonzero"/></svg>
