<svg xmlns="http://www.w3.org/2000/svg" xmlns:xlink="http://www.w3.org/1999/xlink" width="541" zoomAndPan="magnify" viewBox="0 0 405.75 140.249994" height="187" preserveAspectRatio="xMidYMid meet" version="1.0"><defs><g/><clipPath id="fcec51d781"><path d="M 230 19 L 309 19 L 309 67 L 230 67 Z M 230 19 " clip-rule="nonzero"/></clipPath><clipPath id="31f6dcf145"><path d="M 319.210938 44.195312 L 272.765625 97.726562 L 222.050781 53.722656 L 268.496094 0.195312 Z M 319.210938 44.195312 " clip-rule="nonzero"/></clipPath><clipPath id="12f779cb49"><path d="M 319.210938 44.195312 L 272.765625 97.726562 L 222.050781 53.722656 L 268.496094 0.195312 Z M 319.210938 44.195312 " clip-rule="nonzero"/></clipPath><clipPath id="0ef95ac00c"><path d="M 319.207031 44.195312 L 272.613281 97.898438 L 221.679688 53.710938 L 268.277344 0.00390625 Z M 319.207031 44.195312 " clip-rule="nonzero"/></clipPath><clipPath id="2bf64738ea"><path d="M 239 49 L 300 49 L 300 67 L 239 67 Z M 239 49 " clip-rule="nonzero"/></clipPath><clipPath id="587c8fb723"><path d="M 319.210938 44.195312 L 272.765625 97.726562 L 222.050781 53.722656 L 268.496094 0.195312 Z M 319.210938 44.195312 " clip-rule="nonzero"/></clipPath><clipPath id="610c5636e1"><path d="M 319.210938 44.195312 L 272.765625 97.726562 L 222.050781 53.722656 L 268.496094 0.195312 Z M 319.210938 44.195312 " clip-rule="nonzero"/></clipPath></defs><g fill="currentColor" fill-opacity="1"><g transform="translate(74.664338, 110.836115)"><g><path d="M 28.390625 -8 L 11.40625 -7.90625 L 8.203125 -0.046875 L -0.46875 0 L 15.640625 -36.6875 L 24 -36.734375 L 40.5625 -0.21875 L 31.671875 -0.171875 Z M 25.6875 -14.40625 L 19.8125 -28.390625 L 14.078125 -14.34375 Z M 25.6875 -14.40625 "/></g></g></g><g fill="currentColor" fill-opacity="1"><g transform="translate(114.691622, 110.615542)"><g><path d="M 20.234375 -28.640625 C 22.835938 -28.660156 25.210938 -28.078125 27.359375 -26.890625 C 29.515625 -25.703125 31.207031 -24.019531 32.4375 -21.84375 C 33.675781 -19.664062 34.300781 -17.132812 34.3125 -14.25 C 34.332031 -11.351562 33.738281 -8.8125 32.53125 -6.625 C 31.320312 -4.445312 29.644531 -2.75 27.5 -1.53125 C 25.363281 -0.320312 22.992188 0.289062 20.390625 0.3125 C 16.796875 0.332031 13.96875 -0.785156 11.90625 -3.046875 L 11.984375 10.078125 L 3.828125 10.125 L 3.609375 -28.140625 L 11.390625 -28.1875 L 11.40625 -24.9375 C 13.414062 -27.382812 16.359375 -28.617188 20.234375 -28.640625 Z M 18.9375 -6.375 C 21.03125 -6.382812 22.742188 -7.097656 24.078125 -8.515625 C 25.410156 -9.929688 26.070312 -11.828125 26.0625 -14.203125 C 26.050781 -16.566406 25.367188 -18.453125 24.015625 -19.859375 C 22.660156 -21.265625 20.9375 -21.960938 18.84375 -21.953125 C 16.757812 -21.941406 15.050781 -21.222656 13.71875 -19.796875 C 12.382812 -18.378906 11.722656 -16.488281 11.734375 -14.125 C 11.742188 -11.75 12.425781 -9.859375 13.78125 -8.453125 C 15.132812 -7.054688 16.851562 -6.363281 18.9375 -6.375 Z M 18.9375 -6.375 "/></g></g></g><g fill="currentColor" fill-opacity="1"><g transform="translate(150.747532, 110.416854)"><g><path d="M 20.234375 -28.640625 C 22.835938 -28.660156 25.210938 -28.078125 27.359375 -26.890625 C 29.515625 -25.703125 31.207031 -24.019531 32.4375 -21.84375 C 33.675781 -19.664062 34.300781 -17.132812 34.3125 -14.25 C 34.332031 -11.351562 33.738281 -8.8125 32.53125 -6.625 C 31.320312 -4.445312 29.644531 -2.75 27.5 -1.53125 C 25.363281 -0.320312 22.992188 0.289062 20.390625 0.3125 C 16.796875 0.332031 13.96875 -0.785156 11.90625 -3.046875 L 11.984375 10.078125 L 3.828125 10.125 L 3.609375 -28.140625 L 11.390625 -28.1875 L 11.40625 -24.9375 C 13.414062 -27.382812 16.359375 -28.617188 20.234375 -28.640625 Z M 18.9375 -6.375 C 21.03125 -6.382812 22.742188 -7.097656 24.078125 -8.515625 C 25.410156 -9.929688 26.070312 -11.828125 26.0625 -14.203125 C 26.050781 -16.566406 25.367188 -18.453125 24.015625 -19.859375 C 22.660156 -21.265625 20.9375 -21.960938 18.84375 -21.953125 C 16.757812 -21.941406 15.050781 -21.222656 13.71875 -19.796875 C 12.382812 -18.378906 11.722656 -16.488281 11.734375 -14.125 C 11.742188 -11.75 12.425781 -9.859375 13.78125 -8.453125 C 15.132812 -7.054688 16.851562 -6.363281 18.9375 -6.375 Z M 18.9375 -6.375 "/></g></g></g><g fill="currentColor" fill-opacity="1"><g transform="translate(186.803442, 110.218166)"><g><path d="M 14.953125 -28.609375 C 19.304688 -28.640625 22.65625 -27.625 25 -25.5625 C 27.34375 -23.5 28.523438 -20.378906 28.546875 -16.203125 L 28.640625 -0.15625 L 21.015625 -0.109375 L 21 -3.609375 C 19.476562 -0.992188 16.625 0.328125 12.4375 0.359375 C 10.28125 0.367188 8.40625 0.0078125 6.8125 -0.71875 C 5.21875 -1.445312 4 -2.453125 3.15625 -3.734375 C 2.320312 -5.015625 1.898438 -6.472656 1.890625 -8.109375 C 1.878906 -10.722656 2.851562 -12.785156 4.8125 -14.296875 C 6.769531 -15.804688 9.800781 -16.570312 13.90625 -16.59375 L 20.390625 -16.625 C 20.378906 -18.40625 19.832031 -19.769531 18.75 -20.71875 C 17.664062 -21.675781 16.039062 -22.148438 13.875 -22.140625 C 12.382812 -22.128906 10.914062 -21.882812 9.46875 -21.40625 C 8.03125 -20.925781 6.804688 -20.28125 5.796875 -19.46875 L 2.84375 -25.15625 C 4.375 -26.25 6.207031 -27.09375 8.34375 -27.6875 C 10.476562 -28.289062 12.679688 -28.597656 14.953125 -28.609375 Z M 14.453125 -5.140625 C 15.835938 -5.148438 17.070312 -5.476562 18.15625 -6.125 C 19.238281 -6.78125 20 -7.738281 20.4375 -9 L 20.421875 -11.875 L 14.828125 -11.84375 C 11.484375 -11.820312 9.816406 -10.710938 9.828125 -8.515625 C 9.835938 -7.472656 10.25 -6.644531 11.0625 -6.03125 C 11.882812 -5.425781 13.015625 -5.128906 14.453125 -5.140625 Z M 14.453125 -5.140625 "/></g></g></g><g fill="currentColor" fill-opacity="1"><g transform="translate(219.044734, 110.040499)"><g><path d="M 3.546875 -38.796875 L 11.703125 -38.84375 L 11.921875 -0.0625 L 3.765625 -0.015625 Z M 3.546875 -38.796875 "/></g></g></g><g fill="currentColor" fill-opacity="1"><g transform="translate(234.773474, 109.953825)"><g><path d="M 14.953125 -28.609375 C 19.304688 -28.640625 22.65625 -27.625 25 -25.5625 C 27.34375 -23.5 28.523438 -20.378906 28.546875 -16.203125 L 28.640625 -0.15625 L 21.015625 -0.109375 L 21 -3.609375 C 19.476562 -0.992188 16.625 0.328125 12.4375 0.359375 C 10.28125 0.367188 8.40625 0.0078125 6.8125 -0.71875 C 5.21875 -1.445312 4 -2.453125 3.15625 -3.734375 C 2.320312 -5.015625 1.898438 -6.472656 1.890625 -8.109375 C 1.878906 -10.722656 2.851562 -12.785156 4.8125 -14.296875 C 6.769531 -15.804688 9.800781 -16.570312 13.90625 -16.59375 L 20.390625 -16.625 C 20.378906 -18.40625 19.832031 -19.769531 18.75 -20.71875 C 17.664062 -21.675781 16.039062 -22.148438 13.875 -22.140625 C 12.382812 -22.128906 10.914062 -21.882812 9.46875 -21.40625 C 8.03125 -20.925781 6.804688 -20.28125 5.796875 -19.46875 L 2.84375 -25.15625 C 4.375 -26.25 6.207031 -27.09375 8.34375 -27.6875 C 10.476562 -28.289062 12.679688 -28.597656 14.953125 -28.609375 Z M 14.453125 -5.140625 C 15.835938 -5.148438 17.070312 -5.476562 18.15625 -6.125 C 19.238281 -6.78125 20 -7.738281 20.4375 -9 L 20.421875 -11.875 L 14.828125 -11.84375 C 11.484375 -11.820312 9.816406 -10.710938 9.828125 -8.515625 C 9.835938 -7.472656 10.25 -6.644531 11.0625 -6.03125 C 11.882812 -5.425781 13.015625 -5.128906 14.453125 -5.140625 Z M 14.453125 -5.140625 "/></g></g></g><g fill="currentColor" fill-opacity="1"><g transform="translate(267.014766, 109.776157)"><g><path d="M 13.21875 0.34375 C 10.882812 0.363281 8.601562 0.09375 6.375 -0.46875 C 4.144531 -1.039062 2.363281 -1.753906 1.03125 -2.609375 L 3.71875 -8.484375 C 4.96875 -7.691406 6.484375 -7.046875 8.265625 -6.546875 C 10.046875 -6.054688 11.789062 -5.816406 13.5 -5.828125 C 16.957031 -5.847656 18.679688 -6.710938 18.671875 -8.421875 C 18.671875 -9.222656 18.195312 -9.796875 17.25 -10.140625 C 16.300781 -10.484375 14.851562 -10.769531 12.90625 -11 C 10.601562 -11.332031 8.695312 -11.722656 7.1875 -12.171875 C 5.6875 -12.617188 4.382812 -13.410156 3.28125 -14.546875 C 2.175781 -15.691406 1.617188 -17.328125 1.609375 -19.453125 C 1.597656 -21.234375 2.101562 -22.8125 3.125 -24.1875 C 4.15625 -25.570312 5.648438 -26.648438 7.609375 -27.421875 C 9.578125 -28.203125 11.898438 -28.597656 14.578125 -28.609375 C 16.566406 -28.617188 18.546875 -28.410156 20.515625 -27.984375 C 22.484375 -27.566406 24.117188 -26.976562 25.421875 -26.21875 L 22.734375 -20.40625 C 20.242188 -21.789062 17.535156 -22.472656 14.609375 -22.453125 C 12.867188 -22.441406 11.566406 -22.1875 10.703125 -21.6875 C 9.835938 -21.195312 9.40625 -20.566406 9.40625 -19.796875 C 9.40625 -18.929688 9.875 -18.328125 10.8125 -17.984375 C 11.757812 -17.640625 13.265625 -17.316406 15.328125 -17.015625 C 17.628906 -16.648438 19.515625 -16.25 20.984375 -15.8125 C 22.453125 -15.382812 23.726562 -14.597656 24.8125 -13.453125 C 25.894531 -12.316406 26.441406 -10.71875 26.453125 -8.65625 C 26.460938 -6.914062 25.945312 -5.363281 24.90625 -4 C 23.863281 -2.632812 22.34375 -1.570312 20.34375 -0.8125 C 18.351562 -0.0507812 15.976562 0.332031 13.21875 0.34375 Z M 13.21875 0.34375 "/></g></g></g><g fill="currentColor" fill-opacity="1"><g transform="translate(294.762122, 109.623254)"><g><path d="M 20.703125 -28.640625 C 24.179688 -28.660156 27 -27.628906 29.15625 -25.546875 C 31.3125 -23.472656 32.398438 -20.378906 32.421875 -16.265625 L 32.515625 -0.171875 L 24.359375 -0.140625 L 24.28125 -14.984375 C 24.269531 -17.210938 23.769531 -18.875 22.78125 -19.96875 C 21.789062 -21.0625 20.375 -21.601562 18.53125 -21.59375 C 16.476562 -21.570312 14.847656 -20.921875 13.640625 -19.640625 C 12.429688 -18.367188 11.832031 -16.476562 11.84375 -13.96875 L 11.921875 -0.0625 L 3.765625 -0.015625 L 3.546875 -38.796875 L 11.703125 -38.84375 L 11.78125 -25.25 C 12.851562 -26.34375 14.15625 -27.175781 15.6875 -27.75 C 17.21875 -28.332031 18.890625 -28.628906 20.703125 -28.640625 Z M 20.703125 -28.640625 "/></g></g></g><g clip-path="url(#fcec51d781)"><g clip-path="url(#31f6dcf145)"><g clip-path="url(#12f779cb49)"><g clip-path="url(#0ef95ac00c)"><path fill="currentColor" d="M 300.398438 65.875 C 300.332031 65.078125 300.265625 64.277344 300.199219 63.480469 C 300.070312 61.933594 299.523438 60.617188 300.539062 59.234375 C 301.546875 57.855469 303.15625 56.832031 304.457031 55.746094 C 305.488281 54.882812 306.996094 53.417969 308.445312 53.40625 C 308.445312 53.40625 304.621094 53.4375 299.535156 58.558594 C 299.535156 58.558594 295.84375 56.128906 307.0625 48.988281 C 307.0625 48.988281 299.679688 51.855469 297.210938 54.996094 C 297.210938 54.996094 296.019531 49.839844 306.535156 40.542969 C 306.535156 40.542969 300.027344 45.070312 295.683594 50.964844 C 295.683594 50.964844 295.53125 42.976562 306.339844 35.863281 C 306.339844 35.863281 298.027344 40.246094 293.273438 48.101562 C 293.273438 48.101562 292.386719 39.472656 305.683594 32.460938 C 305.683594 32.460938 295.457031 36.082031 290.023438 47.988281 C 290.023438 47.988281 293.179688 34.105469 303.039062 30.167969 C 303.039062 30.167969 291.714844 33.867188 288.226562 46.941406 C 288.226562 46.941406 288.644531 31.460938 298.335938 26.085938 C 298.335938 26.085938 289.34375 29.621094 285.519531 45.753906 C 285.519531 45.753906 284.480469 30.175781 296.128906 24.171875 C 296.128906 24.171875 285.152344 27.917969 282.246094 44.332031 C 282.246094 44.332031 278.5625 30.316406 291.542969 21.738281 C 291.542969 21.738281 279.730469 27.335938 278.566406 43.972656 C 278.566406 43.972656 273.117188 30.355469 288.128906 19.289062 C 288.128906 19.289062 272.933594 27.746094 274.882812 43.09375 C 274.882812 43.09375 270.457031 30.75 281.207031 20.886719 C 281.207031 20.886719 269.871094 29.34375 271.777344 42.589844 C 271.777344 42.589844 264.601562 31.855469 275.304688 21.304688 C 275.304688 21.304688 263.882812 30.457031 268.316406 42.421875 C 268.316406 42.421875 261.148438 33.757812 268.722656 23.839844 C 268.722656 23.839844 260.628906 32.277344 264.570312 42.136719 C 264.570312 42.136719 258.824219 35.992188 263.335938 26.636719 C 263.335938 26.636719 258.597656 33.730469 261.515625 42.835938 C 261.515625 42.835938 255.777344 35.792969 259.667969 25.515625 C 259.667969 25.515625 255.046875 34.257812 258.402344 43.160156 C 258.402344 43.160156 254.34375 35.066406 256.535156 25.117188 C 256.535156 25.117188 253.222656 37.699219 256.058594 44.671875 C 256.058594 44.671875 251.496094 36.714844 253.25 27.417969 C 253.25 27.417969 250.351562 37.140625 254.097656 46.1875 C 254.097656 46.1875 249.496094 33.824219 250.128906 29.089844 C 250.128906 29.089844 248.667969 38.640625 251.855469 45.660156 C 251.855469 45.660156 246.054688 37.792969 246.496094 29.414062 C 246.496094 29.414062 244.738281 38.714844 249.800781 46.839844 C 249.800781 46.839844 241.347656 39.503906 243.445312 31.148438 C 243.445312 31.148438 239.144531 40.558594 247.691406 48.230469 C 247.691406 48.230469 241.230469 44.6875 240.941406 36.707031 C 240.941406 36.707031 240.035156 43.390625 245.882812 48.980469 C 245.882812 48.980469 240.457031 45.429688 237.882812 38.300781 C 237.882812 38.300781 239.386719 45.921875 243.707031 50.441406 C 243.707031 50.441406 237.171875 45.800781 234.914062 42.167969 C 234.914062 42.167969 237.695312 48.316406 241.8125 51.886719 C 241.8125 51.886719 234.867188 50.242188 232.886719 40.792969 C 232.886719 40.792969 232.429688 48 239.402344 53.921875 C 239.402344 53.921875 234.828125 52.660156 231.65625 44.882812 C 231.65625 44.882812 233.023438 51.476562 237.925781 55.472656 C 237.925781 55.472656 232.976562 53.902344 231.160156 49.613281 C 231.160156 49.613281 232.6875 54.535156 237.164062 57.390625 C 237.164062 57.390625 232.4375 55.863281 230.765625 52.738281 C 230.765625 52.738281 233.058594 57.820312 236.300781 58.832031 C 236.300781 58.832031 233.90625 59.070312 232.136719 56.503906 C 232.136719 56.503906 233.527344 59.65625 235.972656 60.097656 C 236.25 60.148438 236.496094 62.039062 236.523438 62.257812 C 236.6875 63.625 236.429688 64.664062 235.394531 65.578125 C 237.195312 67.648438 239.234375 62.964844 239.804688 62.035156 C 244.671875 54.148438 255.992188 50.300781 264.667969 48.574219 C 273.472656 46.820312 283.46875 47.289062 290.667969 53.257812 C 294.414062 56.367188 299.960938 60.609375 300.398438 65.875 " fill-opacity="1" fill-rule="nonzero"/></g></g></g></g><g clip-path="url(#2bf64738ea)"><g clip-path="url(#587c8fb723)"><g clip-path="url(#610c5636e1)"><path fill="currentColor" d="M 299.0625 66.59375 C 299.0625 66.59375 299.027344 66.53125 298.953125 66.417969 C 298.882812 66.304688 298.773438 66.140625 298.628906 65.925781 C 298.484375 65.710938 298.304688 65.449219 298.085938 65.144531 C 297.863281 64.839844 297.605469 64.496094 297.3125 64.117188 C 296.714844 63.359375 295.964844 62.464844 295.046875 61.496094 C 294.128906 60.527344 293.046875 59.488281 291.785156 58.453125 C 291.152344 57.9375 290.480469 57.417969 289.765625 56.914062 C 289.046875 56.414062 288.289062 55.917969 287.488281 55.453125 C 285.886719 54.515625 284.117188 53.679688 282.21875 53.011719 C 281.980469 52.929688 281.738281 52.851562 281.5 52.773438 C 281.257812 52.695312 281.011719 52.625 280.769531 52.546875 C 280.523438 52.476562 280.277344 52.410156 280.03125 52.339844 C 279.78125 52.273438 279.53125 52.214844 279.28125 52.148438 C 279.03125 52.089844 278.777344 52.039062 278.523438 51.980469 C 278.394531 51.949219 278.265625 51.929688 278.140625 51.902344 C 278.011719 51.878906 277.882812 51.855469 277.753906 51.828125 C 277.625 51.804688 277.496094 51.785156 277.367188 51.761719 C 277.238281 51.738281 277.109375 51.71875 276.980469 51.695312 C 276.914062 51.6875 276.851562 51.675781 276.785156 51.664062 L 276.589844 51.636719 C 276.460938 51.621094 276.328125 51.601562 276.199219 51.582031 C 274.109375 51.304688 271.953125 51.238281 269.808594 51.363281 C 269.671875 51.367188 269.539062 51.382812 269.40625 51.390625 L 268.800781 51.433594 L 268.71875 51.441406 L 268.617188 51.453125 L 268.203125 51.496094 C 267.929688 51.527344 267.65625 51.554688 267.382812 51.585938 L 266.96875 51.628906 L 266.765625 51.648438 L 266.566406 51.675781 C 266.035156 51.75 265.507812 51.828125 264.980469 51.902344 C 264.453125 51.992188 263.925781 52.089844 263.402344 52.183594 C 263.136719 52.222656 262.878906 52.285156 262.621094 52.339844 C 262.359375 52.398438 262.101562 52.453125 261.84375 52.507812 C 261.714844 52.535156 261.585938 52.5625 261.457031 52.589844 C 261.328125 52.621094 261.199219 52.65625 261.074219 52.6875 C 260.820312 52.75 260.566406 52.816406 260.3125 52.878906 C 259.800781 53 259.308594 53.15625 258.8125 53.300781 C 258.6875 53.335938 258.566406 53.375 258.441406 53.410156 L 258.257812 53.464844 C 258.195312 53.480469 258.136719 53.503906 258.074219 53.523438 C 257.832031 53.601562 257.589844 53.683594 257.351562 53.761719 C 255.425781 54.410156 253.609375 55.167969 251.945312 56.003906 C 251.839844 56.054688 251.738281 56.109375 251.632812 56.160156 C 251.582031 56.183594 251.527344 56.210938 251.476562 56.234375 C 251.425781 56.261719 251.375 56.289062 251.324219 56.316406 C 251.121094 56.425781 250.921875 56.535156 250.722656 56.644531 C 250.523438 56.75 250.324219 56.851562 250.132812 56.96875 C 249.941406 57.082031 249.75 57.191406 249.558594 57.304688 C 248.800781 57.746094 248.085938 58.207031 247.410156 58.667969 C 247.238281 58.777344 247.078125 58.898438 246.914062 59.011719 C 246.75 59.128906 246.589844 59.246094 246.429688 59.359375 C 246.390625 59.386719 246.351562 59.414062 246.3125 59.445312 C 246.273438 59.472656 246.234375 59.503906 246.195312 59.53125 C 246.121094 59.589844 246.042969 59.648438 245.96875 59.707031 C 245.816406 59.824219 245.664062 59.9375 245.515625 60.050781 C 245.222656 60.28125 244.941406 60.511719 244.667969 60.730469 C 244.53125 60.847656 244.402344 60.960938 244.269531 61.070312 C 244.140625 61.183594 244.007812 61.292969 243.886719 61.402344 C 242.886719 62.285156 242.0625 63.113281 241.410156 63.820312 C 241.328125 63.910156 241.25 63.996094 241.171875 64.078125 C 241.097656 64.164062 241.023438 64.246094 240.953125 64.328125 C 240.882812 64.40625 240.816406 64.488281 240.75 64.5625 C 240.683594 64.640625 240.621094 64.714844 240.5625 64.785156 C 240.441406 64.925781 240.332031 65.0625 240.230469 65.1875 C 240.128906 65.308594 240.042969 65.425781 239.964844 65.527344 C 239.808594 65.730469 239.6875 65.890625 239.609375 66 C 239.535156 66.109375 239.496094 66.167969 239.496094 66.167969 C 239.496094 66.167969 239.523438 66.105469 239.585938 65.984375 C 239.648438 65.867188 239.738281 65.6875 239.871094 65.464844 C 240 65.238281 240.164062 64.960938 240.371094 64.644531 C 240.421875 64.566406 240.476562 64.480469 240.53125 64.398438 C 240.589844 64.3125 240.648438 64.226562 240.707031 64.136719 C 240.769531 64.046875 240.832031 63.953125 240.898438 63.859375 C 240.964844 63.765625 241.035156 63.671875 241.109375 63.570312 C 241.679688 62.785156 242.425781 61.859375 243.363281 60.863281 C 243.59375 60.613281 243.84375 60.367188 244.097656 60.105469 C 244.359375 59.855469 244.628906 59.59375 244.90625 59.332031 C 245.050781 59.203125 245.191406 59.074219 245.339844 58.941406 C 245.414062 58.878906 245.488281 58.8125 245.5625 58.746094 C 245.597656 58.710938 245.636719 58.679688 245.671875 58.644531 C 245.710938 58.613281 245.75 58.582031 245.789062 58.546875 C 245.941406 58.417969 246.097656 58.289062 246.257812 58.15625 C 246.414062 58.023438 246.574219 57.886719 246.742188 57.761719 C 246.90625 57.628906 247.074219 57.5 247.242188 57.367188 C 247.328125 57.300781 247.414062 57.234375 247.5 57.167969 C 247.589844 57.105469 247.675781 57.042969 247.765625 56.976562 C 247.941406 56.847656 248.121094 56.71875 248.304688 56.585938 C 248.394531 56.523438 248.484375 56.453125 248.578125 56.390625 C 248.671875 56.328125 248.765625 56.265625 248.859375 56.203125 C 249.238281 55.949219 249.621094 55.6875 250.023438 55.445312 C 250.222656 55.324219 250.425781 55.199219 250.628906 55.074219 C 250.679688 55.042969 250.730469 55.011719 250.78125 54.980469 C 250.835938 54.949219 250.886719 54.921875 250.9375 54.890625 C 251.042969 54.832031 251.148438 54.773438 251.253906 54.714844 C 252.9375 53.753906 254.789062 52.878906 256.769531 52.136719 C 257.019531 52.042969 257.269531 51.953125 257.519531 51.859375 C 257.582031 51.835938 257.640625 51.8125 257.707031 51.789062 L 257.894531 51.726562 C 258.023438 51.6875 258.152344 51.644531 258.277344 51.605469 C 258.789062 51.441406 259.300781 51.265625 259.828125 51.125 C 260.089844 51.050781 260.351562 50.976562 260.617188 50.902344 C 260.75 50.867188 260.878906 50.828125 261.011719 50.792969 C 261.144531 50.761719 261.28125 50.730469 261.414062 50.699219 C 261.679688 50.632812 261.949219 50.570312 262.21875 50.507812 C 262.488281 50.445312 262.757812 50.375 263.027344 50.328125 C 263.300781 50.273438 263.574219 50.222656 263.847656 50.167969 C 264.121094 50.117188 264.394531 50.058594 264.671875 50.011719 C 265.226562 49.925781 265.785156 49.84375 266.347656 49.757812 L 266.554688 49.726562 L 266.761719 49.703125 L 267.171875 49.65625 C 267.445312 49.625 267.71875 49.597656 267.996094 49.566406 L 268.40625 49.519531 L 268.507812 49.507812 L 268.554688 49.503906 L 268.582031 49.503906 L 268.632812 49.5 L 269.269531 49.449219 C 269.410156 49.441406 269.550781 49.425781 269.695312 49.421875 C 271.960938 49.289062 274.246094 49.382812 276.464844 49.714844 C 276.601562 49.734375 276.742188 49.757812 276.878906 49.777344 L 277.085938 49.8125 C 277.15625 49.824219 277.222656 49.835938 277.292969 49.847656 C 277.429688 49.875 277.566406 49.898438 277.703125 49.925781 C 277.839844 49.953125 277.976562 49.976562 278.113281 50.007812 C 278.25 50.035156 278.382812 50.066406 278.519531 50.097656 C 278.65625 50.125 278.789062 50.152344 278.925781 50.1875 C 279.191406 50.257812 279.460938 50.320312 279.726562 50.390625 C 279.992188 50.464844 280.253906 50.535156 280.515625 50.613281 C 280.777344 50.691406 281.039062 50.769531 281.296875 50.855469 C 281.554688 50.941406 281.808594 51.027344 282.0625 51.117188 C 282.316406 51.210938 282.566406 51.300781 282.816406 51.398438 C 284.804688 52.171875 286.632812 53.144531 288.257812 54.214844 C 289.066406 54.75 289.832031 55.304688 290.542969 55.878906 C 291.253906 56.449219 291.917969 57.03125 292.527344 57.613281 C 293.75 58.777344 294.773438 59.933594 295.613281 61.007812 C 296.457031 62.078125 297.121094 63.0625 297.628906 63.894531 C 297.886719 64.308594 298.101562 64.6875 298.285156 65.019531 C 298.464844 65.347656 298.613281 65.632812 298.726562 65.867188 C 298.84375 66.101562 298.925781 66.28125 298.980469 66.40625 C 299.035156 66.527344 299.0625 66.59375 299.0625 66.59375 " fill-opacity="1" fill-rule="nonzero"/></g></g></g></svg>
