<svg xmlns="http://www.w3.org/2000/svg" xmlns:xlink="http://www.w3.org/1999/xlink" width="500" zoomAndPan="magnify" viewBox="0 0 375 374.999991" height="500" preserveAspectRatio="xMidYMid meet" version="1.0"><defs><clipPath id="51dfdc9136"><path d="M 94.660156 0 L 282.910156 0 L 282.910156 375 L 94.660156 375 Z M 94.660156 0 " clip-rule="nonzero"/></clipPath></defs><path fill="currentColor" d="M 188.785156 329.042969 C 181.535156 329.042969 175.640625 334.929688 175.640625 342.164062 C 175.640625 349.398438 181.535156 355.28125 188.785156 355.28125 C 196.03125 355.28125 201.925781 349.398438 201.925781 342.164062 C 201.925781 334.929688 196.03125 329.042969 188.785156 329.042969 " fill-opacity="1" fill-rule="nonzero"/><g clip-path="url(#51dfdc9136)"><path fill="currentColor" d="M 271.785156 306.117188 C 271.785156 307.851562 270.355469 309.285156 268.605469 309.285156 L 108.957031 309.285156 C 107.214844 309.285156 105.78125 307.851562 105.78125 306.117188 L 105.78125 68.976562 C 105.78125 67.234375 107.214844 65.804688 108.957031 65.804688 L 268.605469 65.804688 C 270.355469 65.804688 271.785156 67.234375 271.785156 68.976562 Z M 188.785156 362.335938 C 177.644531 362.335938 168.578125 353.285156 168.578125 342.164062 C 168.578125 331.039062 177.644531 321.992188 188.785156 321.992188 C 199.925781 321.992188 208.988281 331.039062 208.988281 342.164062 C 208.988281 353.285156 199.925781 362.335938 188.785156 362.335938 M 166.542969 26.484375 C 166.542969 24.738281 167.976562 23.308594 169.71875 23.308594 L 207.84375 23.308594 C 209.59375 23.308594 211.023438 24.738281 211.023438 26.484375 L 211.023438 30.714844 C 211.023438 32.457031 209.59375 33.882812 207.84375 33.882812 L 169.71875 33.882812 C 167.976562 33.882812 166.542969 32.457031 166.542969 30.714844 Z M 254.3125 0.375 L 123.257812 0.375 C 107.53125 0.375 94.664062 13.226562 94.664062 28.929688 L 94.664062 346.15625 C 94.664062 361.867188 107.53125 374.710938 123.257812 374.710938 L 254.3125 374.710938 C 270.042969 374.710938 282.902344 361.867188 282.902344 346.15625 L 282.902344 28.929688 C 282.902344 13.226562 270.042969 0.375 254.3125 0.375 " fill-opacity="1" fill-rule="nonzero"/></g></svg>
