<svg xmlns="http://www.w3.org/2000/svg" xmlns:xlink="http://www.w3.org/1999/xlink" width="40" zoomAndPan="magnify" viewBox="0 0 30 30.000001" height="40" preserveAspectRatio="xMidYMid meet" version="1.0"><defs><clipPath id="42ae0e7eca"><path d="M 1.355469 0 L 18 0 L 18 29.03125 L 1.355469 29.03125 Z M 1.355469 0 " clip-rule="nonzero"/></clipPath><clipPath id="0c3890b909"><path d="M 7 7 L 28.933594 7 L 28.933594 22 L 7 22 Z M 7 7 " clip-rule="nonzero"/></clipPath></defs><g clip-path="url(#42ae0e7eca)"><path fill="currentColor" d="M 9.519531 27.285156 C 8.765625 27.285156 8.152344 26.679688 8.152344 25.933594 C 8.152344 25.1875 8.765625 24.582031 9.519531 24.582031 C 9.898438 24.582031 10.238281 24.734375 10.484375 24.976562 C 10.734375 25.222656 10.886719 25.558594 10.886719 25.933594 C 10.886719 26.679688 10.273438 27.285156 9.519531 27.285156 Z M 16.765625 23.9375 L 2.273438 23.9375 L 2.273438 5.09375 L 16.765625 5.09375 L 16.765625 6.691406 L 17.683594 6.691406 L 17.683594 2.136719 C 17.683594 0.964844 16.714844 0.0078125 15.527344 0.0078125 L 3.511719 0.0078125 C 2.328125 0.0078125 1.355469 0.964844 1.355469 2.136719 L 1.355469 26.894531 C 1.355469 28.066406 2.324219 29.027344 3.511719 29.027344 L 15.527344 29.027344 C 16.714844 29.027344 17.683594 28.066406 17.683594 26.894531 L 17.683594 22.339844 L 16.765625 22.339844 Z M 7.503906 3.445312 C 7.25 3.445312 7.046875 3.242188 7.046875 2.992188 C 7.046875 2.742188 7.25 2.539062 7.503906 2.539062 L 11.535156 2.539062 C 11.789062 2.539062 11.992188 2.742188 11.992188 2.992188 C 11.992188 3.242188 11.789062 3.445312 11.535156 3.445312 Z M 7.503906 3.445312 " fill-opacity="1" fill-rule="evenodd"/></g><g clip-path="url(#0c3890b909)"><path fill="currentColor" d="M 9.589844 7.257812 L 27.1875 7.257812 C 28.148438 7.257812 28.933594 8.039062 28.933594 8.988281 L 28.933594 9.625 L 7.84375 9.625 L 7.84375 8.988281 C 7.84375 8.039062 8.632812 7.257812 9.589844 7.257812 Z M 14.683594 15.679688 C 14.933594 15.679688 15.140625 15.476562 15.140625 15.226562 C 15.140625 14.976562 14.933594 14.773438 14.683594 14.773438 L 11.457031 14.773438 C 11.207031 14.773438 11 14.976562 11 15.226562 C 11 15.476562 11.207031 15.679688 11.457031 15.679688 Z M 17.207031 17.613281 C 17.460938 17.613281 17.664062 17.410156 17.664062 17.160156 C 17.664062 16.910156 17.460938 16.707031 17.207031 16.707031 L 11.457031 16.707031 C 11.207031 16.707031 11 16.910156 11 17.160156 C 11 17.410156 11.207031 17.613281 11.457031 17.613281 Z M 17.207031 19.546875 C 17.460938 19.546875 17.664062 19.34375 17.664062 19.09375 C 17.664062 18.84375 17.460938 18.640625 17.207031 18.640625 L 11.457031 18.640625 C 11.207031 18.640625 11 18.84375 11 19.09375 C 11 19.34375 11.207031 19.546875 11.457031 19.546875 Z M 20.375 14.714844 L 25.320312 14.714844 C 25.574219 14.714844 25.777344 14.917969 25.777344 15.167969 L 25.777344 19.152344 C 25.777344 19.402344 25.574219 19.605469 25.320312 19.605469 L 20.375 19.605469 C 20.125 19.605469 19.917969 19.402344 19.917969 19.152344 L 19.917969 15.167969 C 19.917969 14.917969 20.125 14.714844 20.375 14.714844 Z M 28.933594 10.53125 L 28.933594 12.546875 L 7.84375 12.546875 L 7.84375 10.53125 Z M 28.933594 13.453125 L 28.933594 20.042969 C 28.933594 20.996094 28.144531 21.773438 27.1875 21.773438 L 9.589844 21.773438 C 8.628906 21.773438 7.84375 20.992188 7.84375 20.042969 L 7.84375 13.453125 Z M 28.933594 13.453125 " fill-opacity="1" fill-rule="nonzero"/></g><path fill="currentColor" d="M 9.519531 25.148438 C 9.082031 25.148438 8.726562 25.5 8.726562 25.933594 C 8.726562 26.367188 9.082031 26.71875 9.519531 26.71875 C 9.957031 26.71875 10.3125 26.363281 10.3125 25.933594 C 10.3125 25.722656 10.230469 25.527344 10.082031 25.378906 C 9.929688 25.230469 9.730469 25.148438 9.519531 25.148438 Z M 9.519531 25.148438 " fill-opacity="1" fill-rule="evenodd"/></svg>