<svg xmlns="http://www.w3.org/2000/svg" xmlns:xlink="http://www.w3.org/1999/xlink" width="40" zoomAndPan="magnify" viewBox="0 0 30 30.000001" height="40" preserveAspectRatio="xMidYMid meet" version="1.0"><defs><clipPath id="1213484659"><path d="M 10 24 L 20 24 L 20 26.855469 L 10 26.855469 Z M 10 24 " clip-rule="nonzero"/></clipPath><clipPath id="89f4885964"><path d="M 18 2.902344 L 29.515625 2.902344 L 29.515625 13 L 18 13 Z M 18 2.902344 " clip-rule="nonzero"/></clipPath><clipPath id="2dda9780b3"><path d="M 0.484375 2.902344 L 12 2.902344 L 12 13 L 0.484375 13 Z M 0.484375 2.902344 " clip-rule="nonzero"/></clipPath></defs><path fill="currentColor" d="M 12.171875 5.308594 L 17.828125 5.308594 L 17.828125 6.785156 L 12.171875 6.785156 Z M 12.171875 5.308594 " fill-opacity="1" fill-rule="nonzero"/><path fill="currentColor" d="M 24.886719 18.730469 L 5.113281 18.730469 L 5.113281 11.8125 L 3.660156 11.8125 L 3.660156 22.320312 C 3.660156 23.136719 4.308594 23.792969 5.113281 23.792969 L 24.886719 23.792969 C 25.691406 23.792969 26.339844 23.136719 26.339844 22.320312 L 26.339844 11.8125 L 24.886719 11.8125 Z M 15 23.226562 C 14.332031 23.226562 13.789062 22.679688 13.789062 21.996094 C 13.789062 21.320312 14.332031 20.769531 15 20.769531 C 15.667969 20.769531 16.210938 21.320312 16.210938 21.996094 C 16.210938 22.679688 15.667969 23.226562 15 23.226562 Z M 15 23.226562 " fill-opacity="1" fill-rule="nonzero"/><g clip-path="url(#1213484659)"><path fill="currentColor" d="M 12.257812 24.402344 L 10.113281 26.050781 L 10.113281 26.824219 L 19.886719 26.824219 L 19.886719 26.050781 L 17.742188 24.402344 Z M 12.257812 24.402344 " fill-opacity="1" fill-rule="nonzero"/></g><path fill="currentColor" d="M 12.617188 15.175781 C 12.273438 15.359375 11.960938 15.585938 11.667969 15.847656 C 10.996094 15.097656 10.5625 14.128906 10.5 13.054688 C 9.945312 12.640625 9.84375 12.566406 9.902344 12.609375 C 9.898438 12.660156 9.898438 12.707031 9.898438 12.761719 C 9.898438 15.613281 12.191406 17.9375 15 17.9375 C 17.808594 17.9375 20.101562 15.613281 20.101562 12.761719 C 20.101562 12.707031 20.101562 12.652344 20.097656 12.605469 C 20.035156 12.648438 19.160156 13.3125 19.5 13.054688 C 19.4375 14.121094 19.007812 15.097656 18.335938 15.839844 C 18.042969 15.585938 17.726562 15.351562 17.390625 15.171875 C 17.558594 14.535156 17.660156 13.816406 17.683594 13.054688 L 18.347656 13.054688 C 18.121094 12.925781 17.953125 12.71875 17.875 12.464844 L 17.683594 12.464844 C 17.660156 11.695312 17.558594 10.976562 17.390625 10.34375 C 17.539062 10.265625 17.683594 10.171875 17.828125 10.074219 L 17.828125 9.335938 C 17.636719 9.496094 17.425781 9.640625 17.207031 9.765625 C 17.015625 9.238281 16.777344 8.78125 16.496094 8.429688 C 16.976562 8.601562 17.429688 8.855469 17.828125 9.191406 L 17.828125 8.441406 C 17 7.882812 16.019531 7.574219 15 7.574219 C 13.972656 7.574219 13 7.882812 12.171875 8.449219 L 12.171875 9.191406 C 12.574219 8.855469 13.023438 8.601562 13.511719 8.429688 C 13.230469 8.78125 12.988281 9.238281 12.796875 9.765625 C 12.574219 9.640625 12.363281 9.496094 12.171875 9.332031 L 12.171875 10.070312 C 12.316406 10.171875 12.460938 10.265625 12.617188 10.34375 C 12.441406 10.976562 12.339844 11.695312 12.324219 12.464844 L 12.125 12.464844 C 12.046875 12.71875 11.878906 12.925781 11.652344 13.054688 L 12.324219 13.054688 C 12.339844 13.816406 12.441406 14.535156 12.617188 15.175781 Z M 17.917969 16.253906 C 17.503906 16.613281 17.023438 16.894531 16.496094 17.082031 C 16.777344 16.730469 17.015625 16.273438 17.207031 15.75 C 17.460938 15.890625 17.695312 16.058594 17.917969 16.253906 Z M 15.292969 8.222656 C 15.851562 8.398438 16.34375 9.070312 16.679688 10.027344 C 16.242188 10.203125 15.773438 10.304688 15.292969 10.335938 Z M 15.292969 10.929688 C 15.835938 10.898438 16.355469 10.789062 16.847656 10.585938 C 16.992188 11.152344 17.082031 11.792969 17.101562 12.464844 L 15.292969 12.464844 Z M 15.292969 13.054688 L 17.101562 13.054688 C 17.082031 13.71875 16.992188 14.359375 16.847656 14.921875 C 16.355469 14.726562 15.835938 14.617188 15.292969 14.585938 Z M 15.292969 15.175781 C 15.773438 15.207031 16.242188 15.308594 16.679688 15.488281 C 16.351562 16.445312 15.851562 17.121094 15.292969 17.296875 Z M 14.710938 17.296875 C 14.152344 17.121094 13.65625 16.445312 13.324219 15.488281 C 13.761719 15.308594 14.230469 15.207031 14.710938 15.175781 Z M 14.710938 8.222656 L 14.710938 10.335938 C 14.230469 10.304688 13.761719 10.203125 13.324219 10.027344 C 13.65625 9.070312 14.152344 8.398438 14.710938 8.222656 Z M 13.152344 10.59375 C 13.644531 10.789062 14.171875 10.898438 14.710938 10.929688 L 14.710938 12.464844 L 12.898438 12.464844 C 12.921875 11.792969 13.007812 11.160156 13.152344 10.59375 Z M 14.710938 13.054688 L 14.710938 14.585938 C 14.171875 14.617188 13.648438 14.730469 13.152344 14.925781 C 13.007812 14.359375 12.921875 13.71875 12.898438 13.054688 Z M 12.796875 15.75 C 12.988281 16.277344 13.230469 16.730469 13.503906 17.082031 C 12.984375 16.894531 12.503906 16.613281 12.082031 16.261719 C 12.304688 16.066406 12.546875 15.894531 12.796875 15.75 Z M 12.796875 15.75 " fill-opacity="1" fill-rule="nonzero"/><path fill="currentColor" d="M 25.535156 8.578125 L 26.382812 8.578125 L 26.703125 7.183594 L 25.535156 7.183594 Z M 25.535156 8.578125 " fill-opacity="1" fill-rule="nonzero"/><g clip-path="url(#89f4885964)"><path fill="currentColor" d="M 28.574219 2.875 L 19.257812 2.875 C 18.796875 2.875 18.425781 3.253906 18.425781 3.71875 L 18.425781 12.160156 C 18.425781 12.484375 18.773438 12.6875 19.050781 12.523438 L 21.28125 11.203125 L 28.574219 11.203125 C 29.03125 11.203125 29.40625 10.824219 29.40625 10.359375 L 29.40625 3.71875 C 29.40625 3.253906 29.03125 2.875 28.574219 2.875 Z M 23.085938 10.085938 C 22.742188 10.085938 22.460938 9.800781 22.460938 9.453125 C 22.460938 9.277344 22.53125 9.117188 22.648438 9.003906 L 23.527344 9.003906 C 23.644531 9.117188 23.714844 9.277344 23.714844 9.453125 C 23.714844 9.800781 23.433594 10.085938 23.085938 10.085938 Z M 25.769531 10.085938 C 25.425781 10.085938 25.144531 9.800781 25.144531 9.453125 C 25.144531 9.277344 25.214844 9.117188 25.328125 9.003906 L 26.210938 9.003906 C 26.328125 9.117188 26.398438 9.277344 26.398438 9.453125 C 26.398438 9.800781 26.117188 10.085938 25.769531 10.085938 Z M 27.585938 5.203125 L 26.75 8.835938 C 26.730469 8.933594 26.644531 9 26.546875 9 L 22.277344 9 C 22.253906 9 22.230469 8.996094 22.207031 8.988281 C 22.195312 8.984375 22.1875 8.976562 22.175781 8.96875 C 22.167969 8.964844 22.15625 8.960938 22.148438 8.957031 C 22.136719 8.945312 22.128906 8.9375 22.121094 8.925781 C 22.113281 8.917969 22.109375 8.910156 22.101562 8.902344 C 22.09375 8.890625 22.089844 8.875 22.082031 8.855469 C 22.082031 8.851562 22.074219 8.84375 22.074219 8.835938 L 21.09375 4.578125 C 21.070312 4.484375 20.988281 4.414062 20.890625 4.414062 L 20.449219 4.414062 C 20.332031 4.414062 20.238281 4.320312 20.238281 4.203125 C 20.238281 4.085938 20.332031 3.992188 20.449219 3.992188 L 20.890625 3.992188 C 21.183594 3.992188 21.433594 4.195312 21.5 4.484375 L 21.605469 4.941406 L 27.382812 4.941406 C 27.445312 4.941406 27.507812 4.972656 27.546875 5.023438 C 27.585938 5.074219 27.601562 5.140625 27.585938 5.203125 Z M 27.585938 5.203125 " fill-opacity="1" fill-rule="nonzero"/></g><path fill="currentColor" d="M 25.535156 6.761719 L 26.800781 6.761719 L 27.121094 5.367188 L 25.535156 5.367188 Z M 25.535156 6.761719 " fill-opacity="1" fill-rule="nonzero"/><path fill="currentColor" d="M 22.027344 6.761719 L 23.292969 6.761719 L 23.292969 5.367188 L 21.707031 5.367188 Z M 22.027344 6.761719 " fill-opacity="1" fill-rule="nonzero"/><path fill="currentColor" d="M 23.710938 5.367188 L 25.117188 5.367188 L 25.117188 6.761719 L 23.710938 6.761719 Z M 23.710938 5.367188 " fill-opacity="1" fill-rule="nonzero"/><path fill="currentColor" d="M 22.414062 8.441406 L 22.441406 8.578125 L 23.292969 8.578125 L 23.292969 7.183594 L 22.125 7.183594 Z M 22.414062 8.441406 " fill-opacity="1" fill-rule="nonzero"/><path fill="currentColor" d="M 23.710938 7.183594 L 25.117188 7.183594 L 25.117188 8.578125 L 23.710938 8.578125 Z M 23.710938 7.183594 " fill-opacity="1" fill-rule="nonzero"/><g clip-path="url(#2dda9780b3)"><path fill="currentColor" d="M 10.949219 12.523438 C 11.222656 12.691406 11.574219 12.488281 11.574219 12.160156 L 11.574219 3.71875 C 11.574219 3.253906 11.199219 2.878906 10.746094 2.878906 L 1.429688 2.878906 C 0.96875 2.878906 0.59375 3.253906 0.59375 3.71875 L 0.59375 10.363281 C 0.59375 10.824219 0.96875 11.203125 1.429688 11.203125 L 8.722656 11.203125 Z M 1.285156 9.433594 L 1.285156 4.644531 C 1.285156 4.113281 1.710938 3.6875 2.226562 3.6875 L 9.941406 3.6875 C 10.457031 3.6875 10.882812 4.113281 10.882812 4.644531 L 10.882812 9.433594 C 10.882812 9.960938 10.457031 10.390625 9.941406 10.390625 L 2.226562 10.390625 C 1.710938 10.390625 1.285156 9.960938 1.285156 9.433594 Z M 1.285156 9.433594 " fill-opacity="1" fill-rule="nonzero"/></g><path fill="currentColor" d="M 10.28125 4.644531 C 10.28125 4.449219 10.125 4.296875 9.941406 4.296875 L 2.226562 4.296875 C 2.042969 4.296875 1.886719 4.449219 1.886719 4.644531 L 1.886719 4.992188 L 10.28125 4.992188 Z M 10.28125 4.644531 " fill-opacity="1" fill-rule="nonzero"/><path fill="currentColor" d="M 1.886719 5.601562 L 10.28125 5.601562 L 10.28125 6.371094 L 1.886719 6.371094 Z M 1.886719 5.601562 " fill-opacity="1" fill-rule="nonzero"/><path fill="currentColor" d="M 10.28125 9.433594 L 10.28125 6.980469 L 1.886719 6.980469 L 1.886719 9.433594 C 1.886719 9.625 2.042969 9.78125 2.226562 9.78125 L 9.941406 9.78125 C 10.125 9.78125 10.28125 9.625 10.28125 9.433594 Z M 4.902344 8.613281 L 3.507812 8.613281 L 3.507812 8.09375 L 4.902344 8.09375 Z M 6.78125 8.613281 L 5.386719 8.613281 L 5.386719 8.09375 L 6.78125 8.09375 Z M 8.660156 8.613281 L 7.265625 8.613281 L 7.265625 8.09375 L 8.660156 8.09375 Z M 8.660156 8.613281 " fill-opacity="1" fill-rule="nonzero"/></svg>