<svg xmlns="http://www.w3.org/2000/svg" xmlns:xlink="http://www.w3.org/1999/xlink" width="40" zoomAndPan="magnify" viewBox="0 0 30 30.000001" height="40" preserveAspectRatio="xMidYMid meet" version="1.0"><defs><clipPath id="aeaed31318"><path d="M 0.484375 5 L 29.515625 5 L 29.515625 24 L 0.484375 24 Z M 0.484375 5 " clip-rule="nonzero"/></clipPath><clipPath id="5a0455885e"><path d="M -4.402344 13.148438 L 15.890625 -5.535156 L 33.585938 13.6875 L 13.296875 32.371094 Z M -4.402344 13.148438 " clip-rule="nonzero"/></clipPath><clipPath id="f02fdffa97"><path d="M -4.402344 13.148438 L 15.890625 -5.535156 L 33.585938 13.6875 L 13.296875 32.371094 Z M -4.402344 13.148438 " clip-rule="nonzero"/></clipPath><clipPath id="38bc04b53c"><path d="M -4.398438 13.148438 L 15.691406 -5.347656 L 33.230469 13.707031 L 13.140625 32.203125 Z M -4.398438 13.148438 " clip-rule="nonzero"/></clipPath><clipPath id="3b2112eeb0"><path d="M 4 5 L 27 5 L 27 14 L 4 14 Z M 4 5 " clip-rule="nonzero"/></clipPath><clipPath id="b143795110"><path d="M -4.402344 13.148438 L 15.890625 -5.535156 L 33.585938 13.6875 L 13.296875 32.371094 Z M -4.402344 13.148438 " clip-rule="nonzero"/></clipPath><clipPath id="06f47765b5"><path d="M -4.402344 13.148438 L 15.890625 -5.535156 L 33.585938 13.6875 L 13.296875 32.371094 Z M -4.402344 13.148438 " clip-rule="nonzero"/></clipPath></defs><g clip-path="url(#aeaed31318)"><g clip-path="url(#5a0455885e)"><g clip-path="url(#f02fdffa97)"><g clip-path="url(#38bc04b53c)"><path fill="currentColor" d="M 3.710938 5.679688 C 3.703125 5.988281 3.691406 6.296875 3.683594 6.605469 C 3.664062 7.199219 3.816406 7.726562 3.371094 8.210938 C 2.925781 8.691406 2.269531 9.015625 1.726562 9.375 C 1.292969 9.660156 0.65625 10.152344 0.101562 10.09375 C 0.101562 10.09375 1.566406 10.246094 3.726562 8.511719 C 3.726562 8.511719 5.03125 9.597656 0.441406 11.839844 C 0.441406 11.839844 3.382812 11.0625 4.457031 9.96875 C 4.457031 9.96875 4.691406 11.988281 0.28125 15.085938 C 0.28125 15.085938 2.957031 13.636719 4.867188 11.574219 C 4.867188 11.574219 4.582031 14.628906 0.152344 16.878906 C 0.152344 16.878906 3.515625 15.566406 5.664062 12.769531 C 5.664062 12.769531 5.632812 16.101562 0.257812 18.207031 C 0.257812 18.207031 4.316406 17.265625 6.902344 12.953125 C 6.902344 12.953125 5.101562 18.117188 1.167969 19.199219 C 1.167969 19.199219 5.648438 18.273438 7.542969 13.429688 C 7.542969 13.429688 6.71875 19.320312 2.789062 20.957031 C 2.789062 20.957031 6.371094 19.992188 8.523438 14 C 8.523438 14 8.253906 19.992188 3.546875 21.78125 C 3.546875 21.78125 7.898438 20.824219 9.710938 14.683594 C 9.710938 14.683594 10.515625 20.191406 5.195312 22.90625 C 5.195312 22.90625 9.941406 21.277344 11.101562 14.980469 C 11.101562 14.980469 12.597656 20.410156 6.394531 23.988281 C 6.394531 23.988281 12.554688 21.414062 12.46875 15.472656 C 12.46875 15.472656 13.628906 20.375 9.101562 23.675781 C 9.101562 23.675781 13.792969 20.933594 13.632812 15.796875 C 13.632812 15.796875 15.910156 20.203125 11.375 23.769531 C 11.375 23.769531 16.125 20.765625 14.949219 16.011719 C 14.949219 16.011719 17.3125 19.625 13.996094 23.085938 C 13.996094 23.085938 17.445312 20.214844 16.363281 16.28125 C 16.363281 16.28125 18.292969 18.875 16.171875 22.25 C 16.171875 22.25 18.285156 19.746094 17.558594 16.144531 C 17.558594 16.144531 19.449219 19.078125 17.523438 22.835938 C 17.523438 22.835938 19.660156 19.695312 18.761719 16.15625 C 18.761719 16.15625 19.964844 19.417969 18.699219 23.121094 C 18.699219 23.121094 20.507812 18.460938 19.722656 15.679688 C 19.722656 15.679688 21.121094 18.910156 20.054688 22.382812 C 20.054688 22.382812 21.578125 18.796875 20.535156 15.183594 C 20.535156 15.183594 21.761719 20.101562 21.316406 21.878906 C 21.316406 21.878906 22.285156 18.296875 21.371094 15.484375 C 21.371094 15.484375 23.246094 18.734375 22.71875 21.914062 C 22.71875 21.914062 23.785156 18.4375 22.203125 15.121094 C 22.203125 15.121094 25.117188 18.28125 23.957031 21.382812 C 23.957031 21.382812 26 17.976562 23.070312 14.679688 C 23.070312 14.679688 25.382812 16.308594 25.152344 19.367188 C 25.152344 19.367188 25.78125 16.855469 23.792969 14.472656 C 23.792969 14.472656 25.710938 16.058594 26.386719 18.890625 C 26.386719 18.890625 26.140625 15.917969 24.683594 14.007812 C 24.683594 14.007812 26.980469 16.058594 27.683594 17.542969 C 27.683594 17.542969 26.886719 15.074219 25.46875 13.535156 C 25.46875 13.535156 28.050781 14.460938 28.402344 18.152344 C 28.402344 18.152344 28.882812 15.421875 26.476562 12.863281 C 26.476562 12.863281 28.167969 13.542969 29.042969 16.644531 C 29.042969 16.644531 28.808594 14.070312 27.105469 12.332031 C 27.105469 12.332031 28.929688 13.144531 29.4375 14.863281 C 29.4375 14.863281 29.066406 12.917969 27.480469 11.636719 C 27.480469 11.636719 29.21875 12.421875 29.722656 13.683594 C 29.722656 13.683594 29.066406 11.648438 27.871094 11.121094 C 27.871094 11.121094 28.796875 11.132812 29.359375 12.1875 C 29.359375 12.1875 28.964844 10.925781 28.050781 10.652344 C 27.949219 10.621094 27.933594 9.890625 27.933594 9.804688 C 27.929688 9.277344 28.074219 8.890625 28.507812 8.585938 C 27.910156 7.71875 26.929688 9.417969 26.671875 9.75 C 24.476562 12.550781 19.988281 13.53125 16.605469 13.820312 C 13.167969 14.109375 9.371094 13.503906 6.882812 10.914062 C 5.585938 9.566406 3.652344 7.710938 3.710938 5.679688 " fill-opacity="1" fill-rule="nonzero"/></g></g></g></g><g clip-path="url(#3b2112eeb0)"><g clip-path="url(#b143795110)"><g clip-path="url(#06f47765b5)"><path fill="currentColor" d="M 4.25 5.464844 C 4.25 5.464844 4.261719 5.488281 4.285156 5.535156 C 4.308594 5.582031 4.339844 5.652344 4.386719 5.738281 C 4.433594 5.828125 4.492188 5.933594 4.5625 6.058594 C 4.632812 6.183594 4.714844 6.328125 4.8125 6.484375 C 5.007812 6.800781 5.253906 7.175781 5.5625 7.582031 C 5.871094 7.992188 6.242188 8.433594 6.679688 8.882812 C 6.898438 9.109375 7.132812 9.335938 7.382812 9.558594 C 7.636719 9.78125 7.902344 10 8.191406 10.214844 C 8.761719 10.640625 9.402344 11.035156 10.097656 11.371094 C 10.183594 11.414062 10.273438 11.453125 10.359375 11.496094 C 10.449219 11.535156 10.539062 11.570312 10.628906 11.609375 C 10.71875 11.648438 10.8125 11.683594 10.902344 11.722656 C 10.996094 11.757812 11.085938 11.792969 11.179688 11.828125 C 11.273438 11.859375 11.367188 11.890625 11.460938 11.925781 C 11.511719 11.941406 11.558594 11.953125 11.605469 11.96875 C 11.652344 11.984375 11.703125 12 11.75 12.015625 C 11.796875 12.03125 11.84375 12.042969 11.894531 12.058594 C 11.941406 12.070312 11.992188 12.085938 12.039062 12.097656 C 12.0625 12.105469 12.085938 12.113281 12.113281 12.121094 L 12.183594 12.136719 C 12.234375 12.152344 12.285156 12.164062 12.332031 12.175781 C 13.117188 12.371094 13.9375 12.488281 14.761719 12.535156 C 14.8125 12.539062 14.867188 12.539062 14.917969 12.539062 L 15.148438 12.550781 L 15.378906 12.550781 C 15.484375 12.554688 15.59375 12.554688 15.699219 12.554688 L 16.011719 12.554688 C 16.21875 12.546875 16.421875 12.542969 16.628906 12.535156 C 16.832031 12.523438 17.039062 12.507812 17.242188 12.496094 C 17.34375 12.492188 17.445312 12.480469 17.546875 12.46875 C 17.648438 12.460938 17.75 12.449219 17.851562 12.4375 C 17.902344 12.433594 17.953125 12.429688 18.003906 12.425781 C 18.054688 12.417969 18.101562 12.410156 18.152344 12.402344 C 18.253906 12.390625 18.351562 12.375 18.453125 12.363281 C 18.652344 12.339844 18.847656 12.300781 19.042969 12.265625 C 19.089844 12.257812 19.140625 12.25 19.1875 12.242188 L 19.261719 12.226562 C 19.285156 12.222656 19.308594 12.21875 19.332031 12.214844 C 19.429688 12.195312 19.523438 12.171875 19.621094 12.152344 C 20.382812 11.988281 21.109375 11.777344 21.78125 11.53125 C 21.820312 11.515625 21.863281 11.5 21.90625 11.484375 C 21.925781 11.476562 21.945312 11.46875 21.96875 11.460938 C 21.988281 11.453125 22.007812 11.445312 22.03125 11.4375 C 22.113281 11.402344 22.191406 11.371094 22.273438 11.339844 C 22.355469 11.304688 22.433594 11.273438 22.511719 11.238281 C 22.589844 11.203125 22.667969 11.171875 22.746094 11.136719 C 23.054688 11 23.347656 10.855469 23.625 10.707031 C 23.695312 10.671875 23.761719 10.632812 23.828125 10.597656 C 23.894531 10.558594 23.960938 10.523438 24.027344 10.488281 C 24.042969 10.476562 24.058594 10.46875 24.078125 10.460938 C 24.09375 10.449219 24.109375 10.441406 24.125 10.429688 C 24.15625 10.410156 24.1875 10.390625 24.21875 10.375 C 24.28125 10.335938 24.34375 10.296875 24.40625 10.261719 C 24.527344 10.1875 24.644531 10.109375 24.761719 10.039062 C 24.816406 10 24.871094 9.960938 24.925781 9.925781 C 24.980469 9.886719 25.035156 9.851562 25.085938 9.816406 C 25.507812 9.523438 25.855469 9.242188 26.136719 9 C 26.171875 8.96875 26.203125 8.941406 26.238281 8.910156 C 26.269531 8.882812 26.300781 8.851562 26.332031 8.824219 C 26.363281 8.796875 26.390625 8.769531 26.421875 8.746094 C 26.449219 8.71875 26.476562 8.691406 26.5 8.667969 C 26.554688 8.617188 26.601562 8.570312 26.644531 8.527344 C 26.6875 8.484375 26.726562 8.445312 26.761719 8.410156 C 26.828125 8.339844 26.882812 8.28125 26.917969 8.246094 C 26.949219 8.207031 26.96875 8.183594 26.96875 8.183594 C 26.96875 8.183594 26.953125 8.207031 26.925781 8.25 C 26.894531 8.292969 26.855469 8.359375 26.792969 8.4375 C 26.734375 8.519531 26.660156 8.617188 26.566406 8.730469 C 26.542969 8.757812 26.519531 8.785156 26.496094 8.816406 C 26.472656 8.847656 26.445312 8.875 26.417969 8.910156 C 26.390625 8.941406 26.363281 8.972656 26.332031 9.003906 C 26.304688 9.039062 26.273438 9.070312 26.242188 9.105469 C 25.988281 9.382812 25.664062 9.703125 25.265625 10.042969 C 25.164062 10.128906 25.058594 10.214844 24.949219 10.300781 C 24.839844 10.386719 24.726562 10.472656 24.609375 10.5625 C 24.546875 10.605469 24.488281 10.648438 24.425781 10.691406 C 24.394531 10.714844 24.363281 10.734375 24.332031 10.757812 C 24.316406 10.769531 24.300781 10.78125 24.285156 10.789062 C 24.269531 10.800781 24.253906 10.8125 24.238281 10.824219 C 24.175781 10.867188 24.109375 10.910156 24.042969 10.953125 C 23.976562 10.996094 23.910156 11.042969 23.839844 11.082031 C 23.773438 11.125 23.703125 11.167969 23.632812 11.210938 C 23.597656 11.234375 23.5625 11.253906 23.527344 11.277344 C 23.488281 11.296875 23.453125 11.316406 23.417969 11.339844 C 23.34375 11.378906 23.269531 11.421875 23.195312 11.464844 C 23.15625 11.484375 23.121094 11.507812 23.082031 11.527344 C 23.042969 11.546875 23.003906 11.566406 22.964844 11.585938 C 22.808594 11.667969 22.652344 11.75 22.488281 11.824219 C 22.40625 11.863281 22.324219 11.902344 22.242188 11.941406 C 22.222656 11.949219 22.199219 11.960938 22.179688 11.96875 C 22.15625 11.980469 22.136719 11.988281 22.117188 11.996094 C 22.074219 12.015625 22.03125 12.035156 21.988281 12.050781 C 21.304688 12.34375 20.558594 12.601562 19.769531 12.796875 C 19.671875 12.824219 19.574219 12.847656 19.472656 12.871094 C 19.449219 12.878906 19.425781 12.886719 19.398438 12.890625 L 19.324219 12.90625 C 19.273438 12.917969 19.222656 12.925781 19.171875 12.9375 C 18.972656 12.976562 18.769531 13.023438 18.5625 13.054688 C 18.457031 13.070312 18.355469 13.085938 18.25 13.105469 C 18.199219 13.113281 18.148438 13.121094 18.09375 13.128906 C 18.042969 13.136719 17.988281 13.140625 17.9375 13.148438 C 17.832031 13.160156 17.726562 13.175781 17.621094 13.1875 C 17.515625 13.199219 17.410156 13.214844 17.304688 13.222656 C 17.199219 13.230469 17.09375 13.238281 16.984375 13.246094 C 16.878906 13.253906 16.773438 13.265625 16.664062 13.269531 C 16.449219 13.277344 16.230469 13.289062 16.015625 13.296875 L 15.695312 13.296875 C 15.589844 13.296875 15.484375 13.296875 15.378906 13.296875 L 15.128906 13.296875 L 14.886719 13.289062 C 14.832031 13.285156 14.777344 13.285156 14.722656 13.28125 C 13.851562 13.234375 12.984375 13.101562 12.152344 12.878906 C 12.097656 12.863281 12.046875 12.847656 11.996094 12.835938 L 11.917969 12.8125 C 11.890625 12.804688 11.867188 12.796875 11.839844 12.789062 C 11.789062 12.773438 11.738281 12.757812 11.6875 12.742188 C 11.636719 12.726562 11.585938 12.714844 11.535156 12.695312 C 11.484375 12.679688 11.433594 12.660156 11.382812 12.644531 C 11.332031 12.625 11.28125 12.609375 11.230469 12.589844 C 11.132812 12.554688 11.03125 12.519531 10.933594 12.480469 C 10.835938 12.441406 10.738281 12.402344 10.640625 12.359375 C 10.546875 12.320312 10.449219 12.277344 10.355469 12.234375 C 10.261719 12.191406 10.167969 12.148438 10.074219 12.101562 C 9.980469 12.054688 9.890625 12.007812 9.800781 11.960938 C 9.074219 11.582031 8.417969 11.132812 7.84375 10.652344 C 7.558594 10.414062 7.289062 10.167969 7.042969 9.921875 C 6.796875 9.671875 6.566406 9.421875 6.359375 9.171875 C 5.941406 8.675781 5.601562 8.191406 5.328125 7.746094 C 5.050781 7.300781 4.839844 6.894531 4.679688 6.554688 C 4.601562 6.386719 4.535156 6.234375 4.480469 6.101562 C 4.425781 5.964844 4.382812 5.851562 4.347656 5.757812 C 4.3125 5.664062 4.289062 5.589844 4.273438 5.539062 C 4.257812 5.492188 4.25 5.464844 4.25 5.464844 " fill-opacity="1" fill-rule="nonzero"/></g></g></g></svg>